Ayanna-tamil-1.ufo
<glyph name="tml_Anusvara" format="1">
  <advance width="0"/>
  <unicode hex="0B82"/>
  <outline>
    <contour>
      <point x="-59" y="596"/>
      <point x="-105" y="644"/>
      <point x="-105" y="702" type="curve" smooth="yes"/>
      <point x="-105" y="760"/>
      <point x="-59" y="807"/>
      <point x="0" y="807" type="curve" smooth="yes"/>
      <point x="59" y="807"/>
      <point x="106" y="760"/>
      <point x="106" y="702" type="curve" smooth="yes"/>
      <point x="106" y="644"/>
      <point x="59" y="596"/>
      <point x="0" y="596" type="curve" smooth="yes"/>
    </contour>
    <contour>
      <point x="16" y="673"/>
      <point x="30" y="687"/>
      <point x="30" y="704" type="curve" smooth="yes"/>
      <point x="30" y="721"/>
      <point x="16" y="734"/>
      <point x="-1" y="734" type="curve" smooth="yes"/>
      <point x="-18" y="734"/>
      <point x="-31" y="721"/>
      <point x="-31" y="704" type="curve" smooth="yes"/>
      <point x="-31" y="687"/>
      <point x="-18" y="673"/>
      <point x="-1" y="673" type="curve" smooth="yes"/>
    </contour>
  </outline>
</glyph>
<glyph name="tml_Visarga" format="1">
  <advance width="746"/>
  <unicode hex="0B83"/>
  <outline>
    <contour>
      <point x="442" y="141"/>
      <point x="505" y="204"/>
      <point x="505" y="282" type="curve" smooth="yes"/>
      <point x="505" y="360"/>
      <point x="442" y="423"/>
      <point x="364" y="423" type="curve" smooth="yes"/>
      <point x="285" y="423"/>
      <point x="222" y="360"/>
      <point x="222" y="282" type="curve" smooth="yes"/>
      <point x="222" y="204"/>
      <point x="285" y="141"/>
      <point x="364" y="141" type="curve" smooth="yes"/>
    </contour>
    <contour>
      <point x="336" y="233"/>
      <point x="313" y="256"/>
      <point x="313" y="285" type="curve" smooth="yes"/>
      <point x="313" y="313"/>
      <point x="336" y="336"/>
      <point x="365" y="336" type="curve" smooth="yes"/>
      <point x="393" y="336"/>
      <point x="416" y="313"/>
      <point x="416" y="285" type="curve" smooth="yes"/>
      <point x="416" y="256"/>
      <point x="393" y="233"/>
      <point x="365" y="233" type="curve" smooth="yes"/>
    </contour>
    <contour>
      <point x="641" y="-210"/>
      <point x="704" y="-147"/>
      <point x="704" y="-69" type="curve" smooth="yes"/>
      <point x="704" y="9"/>
      <point x="641" y="72"/>
      <point x="563" y="72" type="curve" smooth="yes"/>
      <point x="484" y="72"/>
      <point x="421" y="9"/>
      <point x="421" y="-69" type="curve" smooth="yes"/>
      <point x="421" y="-147"/>
      <point x="484" y="-210"/>
      <point x="563" y="-210" type="curve" smooth="yes"/>
    </contour>
    <contour>
      <point x="535" y="-118"/>
      <point x="512" y="-95"/>
      <point x="512" y="-66" type="curve" smooth="yes"/>
      <point x="512" y="-38"/>
      <point x="535" y="-15"/>
      <point x="564" y="-15" type="curve" smooth="yes"/>
      <point x="592" y="-15"/>
      <point x="615" y="-38"/>
      <point x="615" y="-66" type="curve" smooth="yes"/>
      <point x="615" y="-95"/>
      <point x="592" y="-118"/>
      <point x="564" y="-118" type="curve" smooth="yes"/>
    </contour>
    <contour>
      <point x="262" y="-210"/>
      <point x="325" y="-147"/>
      <point x="325" y="-69" type="curve" smooth="yes"/>
      <point x="325" y="9"/>
      <point x="262" y="72"/>
      <point x="184" y="72" type="curve" smooth="yes"/>
      <point x="105" y="72"/>
      <point x="42" y="9"/>
      <point x="42" y="-69" type="curve" smooth="yes"/>
      <point x="42" y="-147"/>
      <point x="105" y="-210"/>
      <point x="184" y="-210" type="curve" smooth="yes"/>
    </contour>
    <contour>
      <point x="156" y="-118"/>
      <point x="133" y="-95"/>
      <point x="133" y="-66" type="curve" smooth="yes"/>
      <point x="133" y="-38"/>
      <point x="156" y="-15"/>
      <point x="185" y="-15" type="curve" smooth="yes"/>
      <point x="213" y="-15"/>
      <point x="236" y="-38"/>
      <point x="236" y="-66" type="curve" smooth="yes"/>
      <point x="236" y="-95"/>
      <point x="213" y="-118"/>
      <point x="185" y="-118" type="curve" smooth="yes"/>
    </contour>
  </outline>
</glyph>
<glyph name="a-tamil" format="1">
  <advance width="905"/>
  <unicode hex="0B85"/>
  <outline>
    <contour>
      <point x="506" y="-104"/>
      <point x="672" y="29"/>
      <point x="672" y="262" type="curve" smooth="yes"/>
      <point x="672" y="420"/>
      <point x="592" y="572"/>
      <point x="409" y="573" type="curve" smooth="yes"/>
      <point x="287" y="574"/>
      <point x="201" y="489"/>
      <point x="201" y="384" type="curve" smooth="yes"/>
      <point x="201" y="300"/>
      <point x="257" y="249"/>
      <point x="335" y="249" type="curve" smooth="yes"/>
      <point x="407" y="249"/>
      <point x="459" y="301"/>
      <point x="459" y="373" type="curve" smooth="yes"/>
      <point x="459" y="441"/>
      <point x="410" y="491"/>
      <point x="342" y="491" type="curve" smooth="yes"/>
      <point x="279" y="491"/>
      <point x="234" y="444"/>
      <point x="234" y="379" type="curve"/>
      <point x="288" y="377" type="line"/>
      <point x="289" y="402"/>
      <point x="307" y="420"/>
      <point x="332" y="420" type="curve" smooth="yes"/>
      <point x="357" y="420"/>
      <point x="375" y="402"/>
      <point x="375" y="376" type="curve" smooth="yes"/>
      <point x="375" y="348"/>
      <point x="357" y="328"/>
      <point x="332" y="328" type="curve" smooth="yes"/>
      <point x="306" y="328"/>
      <point x="288" y="349"/>
      <point x="288" y="377" type="curve" smooth="yes"/>
      <point x="288" y="438"/>
      <point x="348" y="482"/>
      <point x="411" y="482" type="curve" smooth="yes"/>
      <point x="521" y="482"/>
      <point x="566" y="369"/>
      <point x="566" y="262" type="curve" smooth="yes"/>
      <point x="566" y="89"/>
      <point x="445" y="0"/>
      <point x="299" y="0" type="curve" smooth="yes"/>
      <point x="186" y="0"/>
      <point x="138" y="33"/>
      <point x="138" y="78" type="curve" smooth="yes"/>
      <point x="138" y="110"/>
      <point x="165" y="123"/>
      <point x="220" y="123" type="curve" smooth="yes"/>
      <point x="796" y="123" type="line"/>
      <point x="796" y="221" type="line"/>
      <point x="213" y="221" type="line" smooth="yes"/>
      <point x="94" y="221"/>
      <point x="30" y="166"/>
      <point x="30" y="76" type="curve" smooth="yes"/>
      <point x="30" y="-28"/>
      <point x="122" y="-104"/>
      <point x="296" y="-104" type="curve" smooth="yes"/>
    </contour>
    <contour>
      <point x="845" y="-85" type="line"/>
      <point x="845" y="559" type="line"/>
      <point x="738" y="559" type="line"/>
      <point x="738" y="-85" type="line"/>
    </contour>
  </outline>
</glyph>
<glyph name="tml_A" format="1">
  <advance width="905"/>
  <unicode hex="0B85"/>
  <outline>
    <contour>
<<<<<<< HEAD
      <point x="39" y="64" type="curve" smooth="yes"/>
      <point x="38" y="166"/>
      <point x="100" y="229"/>
      <point x="222" y="229" type="curve" smooth="yes"/>
      <point x="705" y="229" type="line"/>
      <point x="705" y="131" type="line"/>
      <point x="219" y="131" type="line" smooth="yes"/>
      <point x="171" y="131"/>
      <point x="147" y="99"/>
      <point x="147" y="61" type="curve" smooth="yes"/>
      <point x="147" y="-7"/>
      <point x="213" y="-46"/>
      <point x="287" y="-46" type="curve" smooth="yes"/>
      <point x="432" y="-46"/>
      <point x="489" y="50"/>
      <point x="490" y="195" type="curve" smooth="yes"/>
      <point x="491" y="337"/>
      <point x="454" y="485"/>
      <point x="351" y="484" type="curve" smooth="yes"/>
      <point x="323" y="484"/>
      <point x="303" y="459"/>
      <point x="303" y="430" type="curve" smooth="yes"/>
      <point x="303" y="396"/>
      <point x="323" y="369"/>
      <point x="352" y="369" type="curve" smooth="yes"/>
      <point x="376" y="369"/>
      <point x="399" y="387"/>
      <point x="399" y="427" type="curve" smooth="yes"/>
      <point x="399" y="468"/>
      <point x="373" y="484"/>
      <point x="352" y="484" type="curve"/>
      <point x="447" y="490" type="line"/>
      <point x="460" y="463"/>
      <point x="465" y="435"/>
      <point x="465" y="412" type="curve" smooth="yes"/>
      <point x="465" y="332"/>
      <point x="422.143" y="276"/>
      <point x="345" y="276" type="curve" smooth="yes"/>
      <point x="264" y="275"/>
      <point x="204" y="335"/>
      <point x="203" y="424" type="curve" smooth="yes"/>
      <point x="202" y="520"/>
      <point x="266" y="581"/>
      <point x="352" y="580" type="curve" smooth="yes"/>
      <point x="534" y="579"/>
      <point x="595" y="377"/>
      <point x="596" y="199" type="curve" smooth="yes"/>
      <point x="597" y="-7"/>
      <point x="491" y="-144"/>
      <point x="287" y="-144" type="curve" smooth="yes"/>
      <point x="134" y="-144"/>
      <point x="40" y="-49"/>
=======
      <point x="738" y="-85" type="line"/>
      <point x="738" y="559" type="line"/>
      <point x="845" y="559" type="line"/>
      <point x="845" y="-85" type="line"/>
>>>>>>> remotes/origin/tamil-dev
    </contour>
    <contour>
      <point x="288" y="349"/>
      <point x="306" y="328"/>
      <point x="332" y="328" type="curve" smooth="yes"/>
      <point x="357" y="328"/>
      <point x="375" y="348"/>
      <point x="375" y="376" type="curve" smooth="yes"/>
      <point x="375" y="402"/>
      <point x="357" y="420"/>
      <point x="332" y="420" type="curve" smooth="yes"/>
      <point x="307" y="420"/>
      <point x="289" y="402"/>
      <point x="288" y="377" type="curve"/>
      <point x="234" y="379" type="line"/>
      <point x="234" y="444"/>
      <point x="279" y="491"/>
      <point x="342" y="491" type="curve" smooth="yes"/>
      <point x="410" y="491"/>
      <point x="459" y="441"/>
      <point x="459" y="373" type="curve" smooth="yes"/>
      <point x="459" y="301"/>
      <point x="407" y="249"/>
      <point x="335" y="249" type="curve" smooth="yes"/>
      <point x="257" y="249"/>
      <point x="201" y="300"/>
      <point x="201" y="384" type="curve" smooth="yes"/>
      <point x="201" y="489"/>
      <point x="287" y="574"/>
      <point x="409" y="573" type="curve" smooth="yes"/>
      <point x="592" y="572"/>
      <point x="672" y="420"/>
      <point x="672" y="262" type="curve" smooth="yes"/>
      <point x="672" y="29"/>
      <point x="506" y="-104"/>
      <point x="296" y="-104" type="curve" smooth="yes"/>
      <point x="122" y="-104"/>
      <point x="30" y="-28"/>
      <point x="30" y="76" type="curve" smooth="yes"/>
      <point x="30" y="166"/>
      <point x="94" y="221"/>
      <point x="213" y="221" type="curve" smooth="yes"/>
      <point x="796" y="221" type="line"/>
      <point x="796" y="123" type="line"/>
      <point x="220" y="123" type="line" smooth="yes"/>
      <point x="165" y="123"/>
      <point x="138" y="110"/>
      <point x="138" y="78" type="curve" smooth="yes"/>
      <point x="138" y="33"/>
      <point x="186" y="0"/>
      <point x="299" y="0" type="curve" smooth="yes"/>
      <point x="445" y="0"/>
      <point x="566" y="89"/>
      <point x="566" y="262" type="curve" smooth="yes"/>
      <point x="566" y="369"/>
      <point x="521" y="482"/>
      <point x="411" y="482" type="curve" smooth="yes"/>
      <point x="348" y="482"/>
      <point x="288" y="438"/>
      <point x="288" y="377" type="curve" smooth="yes"/>
    </contour>
  </outline>
</glyph>
<glyph name="tml_Aa" format="1">
  <advance width="1075"/>
  <unicode hex="0B86"/>
  <outline>
    <contour>
      <point x="495" y="-139" type="curve"/>
      <point x="592" y="-122" type="line"/>
      <point x="609" y="-234"/>
      <point x="656" y="-284"/>
      <point x="760" y="-285" type="curve" smooth="yes"/>
      <point x="884" y="-286"/>
      <point x="922" y="-179"/>
      <point x="922" y="-75" type="curve" smooth="yes"/>
      <point x="922" y="6"/>
      <point x="904" y="76"/>
      <point x="843" y="76" type="curve" smooth="yes"/>
      <point x="783" y="76"/>
      <point x="760" y="44"/>
      <point x="759" y="-15" type="curve"/>
      <point x="682" y="-51" type="line"/>
      <point x="680" y="80"/>
      <point x="746" y="174"/>
      <point x="843" y="174" type="curve" smooth="yes"/>
      <point x="974" y="174"/>
      <point x="1030" y="51"/>
      <point x="1030" y="-75" type="curve" smooth="yes"/>
      <point x="1030" y="-255"/>
      <point x="928" y="-383"/>
      <point x="760" y="-383" type="curve" smooth="yes"/>
      <point x="659" y="-383"/>
      <point x="517" y="-344"/>
    </contour>
    <component base="tml_A"/>
  </outline>
</glyph>
<glyph name="tml_I" format="1">
  <advance width="1041"/>
  <unicode hex="0B87"/>
  <outline>
    <contour>
      <point x="628" y="393"/>
      <point x="581" y="480"/>
      <point x="503" y="480" type="curve" smooth="yes"/>
      <point x="440" y="480"/>
      <point x="380" y="438"/>
      <point x="380" y="377" type="curve" smooth="yes"/>
      <point x="380" y="349"/>
      <point x="398" y="328"/>
      <point x="424" y="328" type="curve" smooth="yes"/>
      <point x="449" y="328"/>
      <point x="467" y="348"/>
      <point x="467" y="376" type="curve" smooth="yes"/>
      <point x="467" y="402"/>
      <point x="449" y="420"/>
      <point x="424" y="420" type="curve" smooth="yes"/>
      <point x="399" y="420"/>
      <point x="381" y="402"/>
      <point x="380" y="377" type="curve"/>
      <point x="326" y="379" type="line"/>
      <point x="326" y="444"/>
      <point x="371" y="491"/>
      <point x="434" y="491" type="curve" smooth="yes"/>
      <point x="502" y="491"/>
      <point x="551" y="441"/>
      <point x="551" y="373" type="curve" smooth="yes"/>
      <point x="551" y="301"/>
      <point x="499" y="249"/>
      <point x="427" y="249" type="curve" smooth="yes"/>
      <point x="349" y="249"/>
      <point x="293" y="300"/>
      <point x="293" y="384" type="curve" smooth="yes"/>
      <point x="293" y="489"/>
      <point x="379" y="573"/>
      <point x="501" y="573" type="curve" smooth="yes"/>
      <point x="638" y="573"/>
      <point x="734" y="468"/>
      <point x="734" y="310" type="curve" smooth="yes"/>
      <point x="723" y="8"/>
      <point x="431" y="-210"/>
      <point x="218" y="-210" type="curve" smooth="yes"/>
      <point x="109" y="-210"/>
      <point x="30" y="-146"/>
      <point x="30" y="-57" type="curve" smooth="yes"/>
      <point x="30" y="141"/>
      <point x="260" y="216"/>
      <point x="424" y="216" type="curve" smooth="yes"/>
      <point x="591" y="216"/>
      <point x="815" y="139"/>
      <point x="815" y="-60" type="curve" smooth="yes"/>
      <point x="815" y="-147"/>
      <point x="730" y="-210"/>
      <point x="612" y="-210" type="curve" smooth="yes"/>
      <point x="382" y="-210"/>
      <point x="103" y="28"/>
      <point x="103" y="357" type="curve" smooth="yes"/>
      <point x="103" y="610"/>
      <point x="272" y="754"/>
      <point x="514" y="754" type="curve" smooth="yes"/>
      <point x="823" y="754"/>
      <point x="972" y="587"/>
      <point x="971" y="239" type="curve" smooth="yes"/>
      <point x="970" y="0" type="line"/>
      <point x="857" y="0" type="line"/>
      <point x="857" y="223" type="line" smooth="yes"/>
      <point x="857" y="539"/>
      <point x="731" y="647"/>
      <point x="511" y="647" type="curve" smooth="yes"/>
      <point x="343" y="647"/>
      <point x="218" y="545"/>
      <point x="218" y="357" type="curve" smooth="yes"/>
      <point x="218" y="91"/>
      <point x="445" y="-112"/>
      <point x="605" y="-112" type="curve" smooth="yes"/>
      <point x="659" y="-112"/>
      <point x="698" y="-79"/>
      <point x="698" y="-43" type="curve" smooth="yes"/>
      <point x="698" y="33"/>
      <point x="581" y="112"/>
      <point x="425" y="112" type="curve" smooth="yes"/>
      <point x="261" y="112"/>
      <point x="145" y="41"/>
      <point x="145" y="-47" type="curve" smooth="yes"/>
      <point x="145" y="-79"/>
      <point x="179" y="-112"/>
      <point x="227" y="-112" type="curve" smooth="yes"/>
      <point x="383" y="-112"/>
      <point x="627" y="71"/>
      <point x="628" y="310" type="curve" smooth="yes"/>
    </contour>
  </outline>
</glyph>
<glyph name="tml_Ii" format="1">
  <advance width="690"/>
  <unicode hex="0B88"/>
  <outline>
    <contour>
      <point x="60" y="1" type="line"/>
      <point x="60" y="560" type="line"/>
      <point x="630" y="559" type="line"/>
      <point x="630" y="461" type="line"/>
      <point x="458" y="461" type="line"/>
      <point x="458" y="1" type="line"/>
      <point x="351" y="1" type="line"/>
      <point x="351" y="462" type="line"/>
      <point x="167" y="462" type="line"/>
      <point x="167" y="1" type="line"/>
    </contour>
    <contour>
      <point x="195" y="255" type="curve" smooth="yes"/>
      <point x="195" y="285"/>
      <point x="221" y="314"/>
      <point x="253" y="314" type="curve" smooth="yes"/>
      <point x="283" y="314"/>
      <point x="311" y="285"/>
      <point x="311" y="255" type="curve" smooth="yes"/>
      <point x="311" y="225"/>
      <point x="283" y="197"/>
      <point x="253" y="197" type="curve" smooth="yes"/>
      <point x="221" y="197"/>
      <point x="195" y="225"/>
    </contour>
    <contour>
      <point x="493" y="255" type="curve" smooth="yes"/>
      <point x="493" y="285"/>
      <point x="521" y="314"/>
      <point x="551" y="314" type="curve" smooth="yes"/>
      <point x="583" y="314"/>
      <point x="609" y="285"/>
      <point x="609" y="255" type="curve" smooth="yes"/>
      <point x="609" y="225"/>
      <point x="583" y="197"/>
      <point x="551" y="197" type="curve" smooth="yes"/>
      <point x="521" y="197"/>
      <point x="493" y="225"/>
    </contour>
  </outline>
</glyph>
<glyph name="tml_U" format="1">
  <advance width="828"/>
  <unicode hex="0B89"/>
  <outline>
    <contour>
      <point x="786" y="96" type="line"/>
      <point x="786" y="0" type="line"/>
      <point x="181" y="0" type="line" smooth="yes"/>
      <point x="104" y="0"/>
      <point x="48" y="45"/>
      <point x="48" y="108" type="curve" smooth="yes"/>
      <point x="48" y="175"/>
      <point x="98" y="224"/>
      <point x="171" y="224" type="curve" smooth="yes"/>
      <point x="211" y="224" type="line" smooth="yes"/>
      <point x="335" y="224"/>
      <point x="377" y="302"/>
      <point x="377" y="376" type="curve" smooth="yes"/>
      <point x="377" y="447"/>
      <point x="333" y="512"/>
      <point x="253" y="512" type="curve" smooth="yes"/>
      <point x="161" y="512"/>
      <point x="139" y="425"/>
      <point x="139" y="386" type="curve" smooth="yes"/>
      <point x="139" y="355"/>
      <point x="153" y="333"/>
      <point x="183" y="333" type="curve" smooth="yes"/>
      <point x="216" y="333"/>
      <point x="225" y="367"/>
      <point x="225" y="387" type="curve" smooth="yes"/>
      <point x="225" y="419"/>
      <point x="207" y="438"/>
      <point x="183" y="438" type="curve" smooth="yes"/>
      <point x="155" y="438"/>
      <point x="140" y="413"/>
      <point x="139" y="385" type="curve"/>
      <point x="85" y="397" type="line"/>
      <point x="85" y="436"/>
      <point x="124" y="509"/>
      <point x="193" y="509" type="curve" smooth="yes"/>
      <point x="239" y="509"/>
      <point x="316" y="481"/>
      <point x="316" y="381" type="curve" smooth="yes"/>
      <point x="316" y="303"/>
      <point x="264" y="247"/>
      <point x="186" y="247" type="curve" smooth="yes"/>
      <point x="102" y="247"/>
      <point x="42" y="313"/>
      <point x="42" y="402" type="curve" smooth="yes"/>
      <point x="42" y="516"/>
      <point x="134" y="596"/>
      <point x="257" y="597" type="curve" smooth="yes"/>
      <point x="390" y="598"/>
      <point x="485" y="506"/>
      <point x="485" y="376" type="curve" smooth="yes"/>
      <point x="485" y="250"/>
      <point x="397" y="135"/>
      <point x="241" y="132" type="curve" smooth="yes"/>
      <point x="185" y="131" type="line" smooth="yes"/>
      <point x="163" y="131"/>
      <point x="154" y="125"/>
      <point x="154" y="113" type="curve" smooth="yes"/>
      <point x="154" y="101"/>
      <point x="163" y="95"/>
      <point x="186" y="95" type="curve" smooth="yes"/>
    </contour>
  </outline>
</glyph>
<glyph name="tml_E" format="1">
  <advance width="646"/>
  <unicode hex="0B8E"/>
  <outline>
    <contour>
      <point x="209" y="-24" type="curve" smooth="yes"/>
      <point x="104" y="-24"/>
      <point x="42" y="90"/>
      <point x="42" y="245" type="curve" smooth="yes"/>
      <point x="42" y="442"/>
      <point x="133" y="560"/>
      <point x="289" y="560" type="curve" smooth="yes"/>
      <point x="636" y="560" type="line"/>
      <point x="636" y="462" type="line"/>
      <point x="533" y="461" type="line"/>
      <point x="533" y="0" type="line"/>
      <point x="426" y="0" type="line"/>
      <point x="426" y="461" type="line"/>
      <point x="283" y="461" type="line" smooth="yes"/>
      <point x="184" y="461"/>
      <point x="144" y="370"/>
      <point x="144" y="255" type="curve" smooth="yes"/>
      <point x="144" y="158"/>
      <point x="161" y="74"/>
      <point x="209" y="74" type="curve" smooth="yes"/>
      <point x="255" y="74"/>
      <point x="264" y="139"/>
      <point x="264" y="178" type="curve" smooth="yes"/>
      <point x="264" y="246"/>
      <point x="236" y="281"/>
      <point x="210" y="281" type="curve" smooth="yes"/>
      <point x="167" y="281"/>
      <point x="147" y="235"/>
      <point x="150" y="167" type="curve"/>
      <point x="94" y="196" type="line"/>
      <point x="94" y="269"/>
      <point x="137" y="362"/>
      <point x="221" y="362" type="curve" smooth="yes"/>
      <point x="294" y="362"/>
      <point x="360" y="297"/>
      <point x="360" y="174" type="curve" smooth="yes"/>
      <point x="360" y="53"/>
      <point x="303" y="-24"/>
    </contour>
  </outline>
</glyph>
<glyph name="tml_Ee" format="1">
  <advance width="645"/>
  <unicode hex="0B8F"/>
  <outline>
    <contour>
      <point x="306" y="8" type="move" name="tml_virama"/>
    </contour>
    <contour>
      <point x="25" y="251" type="curve" smooth="yes"/>
      <point x="25" y="448"/>
      <point x="118" y="564"/>
      <point x="274" y="565" type="curve" smooth="yes"/>
      <point x="274" y="467" type="line" smooth="yes"/>
      <point x="174" y="467"/>
      <point x="127" y="376"/>
      <point x="127" y="262" type="curve" smooth="yes"/>
      <point x="127" y="165"/>
      <point x="144" y="80"/>
      <point x="192" y="80" type="curve" smooth="yes"/>
      <point x="238" y="80"/>
      <point x="246" y="145"/>
      <point x="246" y="184" type="curve" smooth="yes"/>
      <point x="246" y="245"/>
      <point x="218" y="277"/>
      <point x="192" y="277" type="curve" smooth="yes"/>
      <point x="153" y="277"/>
      <point x="124" y="227"/>
      <point x="136" y="153" type="curve"/>
      <point x="49" y="223" type="line"/>
      <point x="71" y="273"/>
      <point x="101" y="378"/>
      <point x="197" y="378" type="curve" smooth="yes"/>
      <point x="266" y="378"/>
      <point x="348" y="322"/>
      <point x="348" y="181" type="curve" smooth="yes"/>
      <point x="348" y="60"/>
      <point x="290" y="-18"/>
      <point x="192" y="-18" type="curve" smooth="yes"/>
      <point x="87" y="-18"/>
      <point x="25" y="96"/>
    </contour>
    <contour>
      <point x="182" y="-158" type="line"/>
      <point x="410" y="56" type="line"/>
      <point x="518" y="6" type="line"/>
      <point x="257" y="-235" type="line"/>
    </contour>
    <contour>
      <point x="266" y="467" type="line"/>
      <point x="268" y="565" type="line"/>
      <point x="620" y="565" type="line"/>
      <point x="620" y="467" type="line"/>
      <point x="518" y="467" type="line"/>
      <point x="518" y="6" type="line"/>
      <point x="410" y="6" type="line"/>
      <point x="410" y="467" type="line"/>
    </contour>
  </outline>
</glyph>
<glyph name="tml_Ai" format="1">
  <advance width="773"/>
  <unicode hex="0B90"/>
  <outline>
    <contour>
      <point x="145" y="-155"/>
      <point x="45" y="-99"/>
      <point x="45" y="21" type="curve" smooth="yes"/>
      <point x="45" y="202"/>
      <point x="245" y="229"/>
      <point x="380" y="240" type="curve" smooth="yes"/>
      <point x="497" y="250"/>
      <point x="626" y="277"/>
      <point x="626" y="395" type="curve" smooth="yes"/>
      <point x="626" y="445"/>
      <point x="597" y="485"/>
      <point x="557" y="485" type="curve" smooth="yes"/>
      <point x="511" y="485"/>
      <point x="458" y="431"/>
      <point x="457" y="299" type="curve"/>
      <point x="356" y="299" type="line"/>
      <point x="359" y="479"/>
      <point x="432" y="581"/>
      <point x="562" y="581" type="curve" smooth="yes"/>
      <point x="670" y="581"/>
      <point x="731" y="509"/>
      <point x="731" y="402" type="curve" smooth="yes"/>
      <point x="731" y="182"/>
      <point x="534" y="151"/>
      <point x="381" y="141" type="curve" smooth="yes"/>
      <point x="234" y="131"/>
      <point x="158" y="89"/>
      <point x="158" y="27" type="curve" smooth="yes"/>
      <point x="158" y="-18"/>
      <point x="194" y="-49"/>
      <point x="240" y="-49" type="curve" smooth="yes"/>
      <point x="293" y="-49"/>
      <point x="349" y="-18"/>
      <point x="349" y="74" type="curve"/>
      <point x="462" y="74" type="line"/>
      <point x="462" y="12"/>
      <point x="484" y="-57"/>
      <point x="553" y="-54" type="curve" smooth="yes"/>
      <point x="598" y="-52"/>
      <point x="626" y="0"/>
      <point x="606" y="65" type="curve"/>
      <point x="709" y="81" type="line"/>
      <point x="709" y="95"/>
      <point x="775" y="-153"/>
      <point x="554" y="-153" type="curve" smooth="yes"/>
      <point x="426" y="-153"/>
      <point x="410" y="-57"/>
      <point x="410" y="-57" type="curve" smooth="yes"/>
      <point x="410" y="-57"/>
      <point x="393" y="-155"/>
      <point x="236" y="-155" type="curve" smooth="yes"/>
    </contour>
    <contour>
      <point x="356" y="299" type="line"/>
      <point x="358" y="374"/>
      <point x="334" y="488"/>
      <point x="237" y="488" type="curve" smooth="yes"/>
      <point x="186" y="488"/>
      <point x="129" y="460"/>
      <point x="129" y="371" type="curve" smooth="yes"/>
      <point x="129" y="336"/>
      <point x="148" y="317"/>
      <point x="167" y="317" type="curve" smooth="yes"/>
      <point x="193" y="317"/>
      <point x="206" y="344"/>
      <point x="206" y="370" type="curve" smooth="yes"/>
      <point x="206" y="407"/>
      <point x="186" y="422"/>
      <point x="166" y="422" type="curve" smooth="yes"/>
      <point x="148" y="422"/>
      <point x="129" y="406"/>
      <point x="129" y="370" type="curve"/>
      <point x="69" y="412" type="line" smooth="yes"/>
      <point x="69" y="412"/>
      <point x="93" y="494"/>
      <point x="171" y="495" type="curve" smooth="yes"/>
      <point x="207" y="495"/>
      <point x="284" y="467"/>
      <point x="284" y="362" type="curve" smooth="yes"/>
      <point x="284" y="273"/>
      <point x="226" y="234"/>
      <point x="164" y="234" type="curve" smooth="yes"/>
      <point x="83" y="234"/>
      <point x="41" y="294"/>
      <point x="42" y="384" type="curve" smooth="yes"/>
      <point x="43" y="513"/>
      <point x="125" y="583"/>
      <point x="240" y="582" type="curve" smooth="yes"/>
      <point x="409" y="581"/>
      <point x="455" y="447"/>
      <point x="456" y="299" type="curve"/>
    </contour>
  </outline>
</glyph>
<glyph name="tml_O" format="1">
  <advance width="686"/>
  <unicode hex="0B92"/>
  <outline>
    <contour>
      <point x="574" y="152"/>
      <point x="477" y="152" type="curve" smooth="yes"/>
      <point x="390" y="152"/>
      <point x="338" y="230"/>
      <point x="338" y="299" type="curve"/>
      <point x="437" y="299" type="line"/>
      <point x="437" y="269"/>
      <point x="445" y="243"/>
      <point x="478" y="243" type="curve" smooth="yes"/>
      <point x="515" y="243"/>
      <point x="542" y="286"/>
      <point x="542" y="345" type="curve" smooth="yes"/>
      <point x="542" y="442"/>
      <point x="459" y="512"/>
      <point x="355" y="512" type="curve" smooth="yes"/>
      <point x="212" y="512"/>
      <point x="133" y="423"/>
      <point x="133" y="300" type="curve" smooth="yes"/>
      <point x="133" y="260"/>
      <point x="145" y="231"/>
      <point x="175" y="231" type="curve" smooth="yes"/>
      <point x="207" y="231"/>
      <point x="220" y="255"/>
      <point x="220" y="289" type="curve" smooth="yes"/>
      <point x="220" y="320"/>
      <point x="208" y="343"/>
      <point x="177" y="343" type="curve" smooth="yes"/>
      <point x="147" y="343"/>
      <point x="134" y="321"/>
      <point x="133" y="290" type="curve"/>
      <point x="75" y="296" type="line"/>
      <point x="75" y="369"/>
      <point x="119" y="422"/>
      <point x="193" y="422" type="curve" smooth="yes"/>
      <point x="263" y="422"/>
      <point x="304" y="364"/>
      <point x="304" y="285" type="curve" smooth="yes"/>
      <point x="304" y="204"/>
      <point x="257" y="146"/>
      <point x="177" y="146" type="curve" smooth="yes"/>
      <point x="93" y="146"/>
      <point x="42" y="214"/>
      <point x="42" y="307" type="curve" smooth="yes"/>
      <point x="42" y="483"/>
      <point x="159" y="610"/>
      <point x="355" y="610" type="curve" smooth="yes"/>
      <point x="518" y="610"/>
      <point x="644" y="501"/>
      <point x="644" y="350" type="curve" smooth="yes"/>
      <point x="644" y="235"/>
    </contour>
    <contour>
      <point x="443" y="-164"/>
      <point x="333" y="-164" type="curve" smooth="yes"/>
      <point x="226" y="-164"/>
      <point x="149" y="-85"/>
      <point x="149" y="23" type="curve"/>
      <point x="248" y="23" type="line"/>
      <point x="248" y="-27"/>
      <point x="286" y="-63"/>
      <point x="339" y="-63" type="curve" smooth="yes"/>
      <point x="409" y="-63"/>
      <point x="429" y="-10"/>
      <point x="436" y="62" type="curve"/>
      <point x="462" y="14" type="line"/>
      <point x="388" y="14"/>
      <point x="338" y="73"/>
      <point x="338" y="160" type="curve" smooth="yes"/>
      <point x="338" y="299" type="line"/>
      <point x="435" y="299" type="line"/>
      <point x="435" y="159" type="line" smooth="yes"/>
      <point x="435" y="109"/>
      <point x="452" y="98"/>
      <point x="487" y="98" type="curve" smooth="yes"/>
      <point x="608" y="98" type="line"/>
      <point x="608" y="12" type="line"/>
      <point x="492" y="12" type="line"/>
      <point x="529" y="15" type="line"/>
      <point x="516" y="-89"/>
    </contour>
  </outline>
</glyph>
<glyph name="tml_Oo" format="1">
  <advance width="686"/>
  <unicode hex="0B93"/>
  <outline>
    <contour>
      <point x="177" y="146" type="curve" smooth="yes"/>
      <point x="93" y="146"/>
      <point x="42" y="214"/>
      <point x="42" y="307" type="curve" smooth="yes"/>
      <point x="42" y="483"/>
      <point x="159" y="610"/>
      <point x="355" y="610" type="curve" smooth="yes"/>
      <point x="518" y="610"/>
      <point x="644" y="501"/>
      <point x="644" y="350" type="curve" smooth="yes"/>
      <point x="644" y="235"/>
      <point x="574" y="152"/>
      <point x="477" y="152" type="curve" smooth="yes"/>
      <point x="390" y="152"/>
      <point x="338" y="230"/>
      <point x="338" y="299" type="curve"/>
      <point x="437" y="299" type="line"/>
      <point x="437" y="269"/>
      <point x="445" y="243"/>
      <point x="478" y="243" type="curve" smooth="yes"/>
      <point x="515" y="243"/>
      <point x="542" y="286"/>
      <point x="542" y="345" type="curve" smooth="yes"/>
      <point x="542" y="442"/>
      <point x="459" y="512"/>
      <point x="355" y="512" type="curve" smooth="yes"/>
      <point x="212" y="512"/>
      <point x="133" y="423"/>
      <point x="133" y="300" type="curve" smooth="yes"/>
      <point x="133" y="260"/>
      <point x="145" y="231"/>
      <point x="175" y="231" type="curve" smooth="yes"/>
      <point x="207" y="231"/>
      <point x="220" y="255"/>
      <point x="220" y="289" type="curve" smooth="yes"/>
      <point x="220" y="320"/>
      <point x="208" y="343"/>
      <point x="177" y="343" type="curve" smooth="yes"/>
      <point x="147" y="343"/>
      <point x="134" y="321"/>
      <point x="133" y="290" type="curve"/>
      <point x="75" y="296" type="line"/>
      <point x="75" y="369"/>
      <point x="119" y="422"/>
      <point x="193" y="422" type="curve" smooth="yes"/>
      <point x="263" y="422"/>
      <point x="304" y="364"/>
      <point x="304" y="285" type="curve" smooth="yes"/>
      <point x="304" y="204"/>
      <point x="257" y="146"/>
    </contour>
    <contour>
      <point x="333" y="-164" type="curve" smooth="yes"/>
      <point x="226" y="-164"/>
      <point x="129" y="-100"/>
      <point x="129" y="8" type="curve" smooth="yes"/>
      <point x="129" y="74"/>
      <point x="178" y="121"/>
      <point x="246" y="121" type="curve" smooth="yes"/>
      <point x="313" y="121"/>
      <point x="361" y="77"/>
      <point x="361" y="17" type="curve" smooth="yes"/>
      <point x="361" y="-68"/>
      <point x="287" y="-107"/>
      <point x="264" y="-120" type="curve"/>
      <point x="227" y="-62" type="line"/>
      <point x="253" y="-46"/>
      <point x="279" y="-34"/>
      <point x="279" y="9" type="curve" smooth="yes"/>
      <point x="279" y="28"/>
      <point x="268" y="41"/>
      <point x="254" y="41" type="curve" smooth="yes"/>
      <point x="239" y="41"/>
      <point x="228" y="24"/>
      <point x="228" y="5" type="curve" smooth="yes"/>
      <point x="228" y="-37"/>
      <point x="263" y="-73"/>
      <point x="327" y="-73" type="curve" smooth="yes"/>
      <point x="397" y="-73"/>
      <point x="429" y="-10"/>
      <point x="436" y="62" type="curve"/>
      <point x="462" y="14" type="line"/>
      <point x="388" y="14"/>
      <point x="338" y="73"/>
      <point x="338" y="160" type="curve" smooth="yes"/>
      <point x="338" y="299" type="line"/>
      <point x="435" y="299" type="line"/>
      <point x="435" y="159" type="line" smooth="yes"/>
      <point x="435" y="109"/>
      <point x="452" y="98"/>
      <point x="487" y="98" type="curve" smooth="yes"/>
      <point x="608" y="98" type="line"/>
      <point x="608" y="12" type="line"/>
      <point x="492" y="12" type="line"/>
      <point x="529" y="15" type="line"/>
      <point x="516" y="-89"/>
      <point x="443" y="-164"/>
    </contour>
  </outline>
</glyph>
<glyph name="tml_Ka" format="1">
  <advance width="665"/>
  <unicode hex="0B95"/>
  <outline>
    <contour>
      <point x="455" y="560" type="move" name="MatraI.alt2"/>
    </contour>
    <contour>
      <point x="475" y="560" type="move" name="MatraIi"/>
    </contour>
    <contour>
      <point x="132" y="275" type="move" name="MatraI.stylalt1"/>
    </contour>
    <contour>
      <point x="380" y="0" type="move" name="virama"/>
    </contour>
    <contour>
      <point x="136" y="280" type="move" name="MatraIi.stylalt1"/>
    </contour>
    <contour>
      <point x="450" y="560" type="move" name="MatraI.alt1"/>
    </contour>
    <contour>
      <point x="42" y="271"/>
      <point x="104" y="341"/>
      <point x="222" y="341" type="curve" smooth="yes"/>
      <point x="453" y="341" type="line" smooth="yes"/>
      <point x="547" y="341"/>
      <point x="623" y="306"/>
      <point x="623" y="167" type="curve" smooth="yes"/>
      <point x="623" y="17"/>
      <point x="540" y="0"/>
      <point x="458" y="0" type="curve" smooth="yes"/>
      <point x="437" y="0" type="line"/>
      <point x="437" y="93" type="line"/>
      <point x="453" y="93" type="line" smooth="yes"/>
      <point x="497" y="93"/>
      <point x="525" y="123"/>
      <point x="525" y="168" type="curve" smooth="yes"/>
      <point x="525" y="225"/>
      <point x="491" y="242"/>
      <point x="450" y="242" type="curve" smooth="yes"/>
      <point x="224" y="244" type="line" smooth="yes"/>
      <point x="171" y="244"/>
      <point x="142" y="212"/>
      <point x="142" y="167" type="curve" smooth="yes"/>
      <point x="142" y="124"/>
      <point x="176" y="89"/>
      <point x="227" y="89" type="curve" smooth="yes"/>
      <point x="282" y="89"/>
      <point x="320" y="130"/>
      <point x="320" y="207" type="curve" smooth="yes"/>
      <point x="320" y="289" type="line"/>
      <point x="330" y="301" type="line"/>
      <point x="330" y="461" type="line"/>
      <point x="235" y="461" type="line"/>
      <point x="235" y="309" type="line"/>
      <point x="151" y="309" type="line"/>
      <point x="151" y="560" type="line"/>
      <point x="530" y="560" type="line"/>
      <point x="530" y="461" type="line"/>
      <point x="427" y="461" type="line"/>
      <point x="427" y="207" type="line" smooth="yes"/>
      <point x="427" y="103"/>
      <point x="387" y="-9"/>
      <point x="229" y="-9" type="curve" smooth="yes"/>
      <point x="94" y="-9"/>
      <point x="42" y="75"/>
      <point x="42" y="172" type="curve" smooth="yes"/>
    </contour>
  </outline>
</glyph>
<glyph name="tml_Nga" format="1">
  <advance width="810"/>
  <unicode hex="0B99"/>
  <outline>
    <contour>
      <point x="693" y="560" type="move" name="MatraIi"/>
    </contour>
    <contour>
      <point x="380" y="0" type="move" name="virama"/>
    </contour>
    <contour>
      <point x="641" y="33" type="move" name="MatraU.alt1"/>
    </contour>
    <contour>
      <point x="669" y="560" type="move" name="MatraI.alt4"/>
    </contour>
    <contour>
      <point x="60" y="0" type="line"/>
      <point x="60" y="560" type="line"/>
      <point x="470" y="560" type="line"/>
      <point x="470" y="462" type="line"/>
      <point x="368" y="462" type="line"/>
      <point x="368" y="164" type="line"/>
      <point x="260" y="164" type="line"/>
      <point x="260" y="462" type="line"/>
      <point x="167" y="462" type="line"/>
      <point x="167" y="0" type="line"/>
    </contour>
    <contour>
      <point x="258" y="98" type="line"/>
      <point x="727" y="97" type="line"/>
      <point x="727" y="0" type="line"/>
      <point x="258" y="0" type="line"/>
    </contour>
    <contour>
      <point x="328" y="98" type="line"/>
      <point x="445" y="98"/>
      <point x="473" y="187"/>
      <point x="473" y="240" type="curve" smooth="yes"/>
      <point x="473" y="283"/>
      <point x="454" y="317"/>
      <point x="417" y="317" type="curve" smooth="yes"/>
      <point x="378" y="317"/>
      <point x="368" y="279"/>
      <point x="368" y="254" type="curve"/>
      <point x="319" y="285" type="line"/>
      <point x="319" y="358"/>
      <point x="370" y="408"/>
      <point x="443" y="408" type="curve" smooth="yes"/>
      <point x="521" y="408"/>
      <point x="578" y="352"/>
      <point x="578" y="257" type="curve" smooth="yes"/>
      <point x="578" y="136"/>
      <point x="484" y="22"/>
      <point x="337" y="22" type="curve"/>
    </contour>
    <contour>
      <point x="643" y="560" type="line"/>
      <point x="750" y="560" type="line"/>
      <point x="750" y="0" type="line"/>
      <point x="643" y="0" type="line"/>
    </contour>
  </outline>
</glyph>
<glyph name="tml_Ca" format="1">
  <advance width="558"/>
  <unicode hex="0B9A"/>
  <outline>
    <contour>
      <point x="2" y="0" type="move" name="Anchor3"/>
    </contour>
    <contour>
      <point x="114" y="0" type="move" name="Anchor1"/>
    </contour>
    <contour>
      <point x="325" y="0" type="move" name="Anchor0"/>
    </contour>
    <contour>
      <point x="30" y="175" type="curve" smooth="yes"/>
      <point x="29" y="268"/>
      <point x="84" y="341"/>
      <point x="172" y="341" type="curve" smooth="yes"/>
      <point x="511" y="341" type="line" smooth="yes"/>
      <point x="511" y="242" type="line"/>
      <point x="191" y="244" type="line" smooth="yes"/>
      <point x="150" y="244"/>
      <point x="130" y="214"/>
      <point x="130" y="175" type="curve" smooth="yes"/>
      <point x="130" y="123.026"/>
      <point x="161" y="96"/>
      <point x="212" y="96" type="curve" smooth="yes"/>
      <point x="277" y="96"/>
      <point x="308" y="140.194"/>
      <point x="308" y="207" type="curve" smooth="yes"/>
      <point x="308" y="464" type="line"/>
      <point x="240" y="464" type="line"/>
      <point x="240" y="309" type="line"/>
      <point x="139" y="309" type="line"/>
      <point x="139" y="560" type="line"/>
      <point x="518" y="560" type="line"/>
      <point x="518" y="464" type="line"/>
      <point x="415" y="464" type="line"/>
      <point x="415" y="207" type="line" smooth="yes"/>
      <point x="415" y="100"/>
      <point x="375" y="1"/>
      <point x="212" y="1" type="curve" smooth="yes"/>
      <point x="82" y="1"/>
      <point x="31" y="75"/>
    </contour>
  </outline>
</glyph>
<glyph name="tml_Ja" format="1">
  <advance width="757"/>
  <unicode hex="0B9C"/>
  <outline>
    <contour>
      <point x="410" y="-155"/>
      <point x="456" y="33"/>
      <point x="552" y="33" type="curve" smooth="yes"/>
      <point x="579" y="33"/>
      <point x="599" y="16"/>
      <point x="599" y="-7" type="curve" smooth="yes"/>
      <point x="599" y="-31"/>
      <point x="579" y="-48"/>
      <point x="551" y="-48" type="curve" smooth="yes"/>
      <point x="465" y="-48" type="line"/>
      <point x="464" y="-154" type="line"/>
      <point x="554" y="-154" type="line" smooth="yes"/>
      <point x="645" y="-154"/>
      <point x="716" y="-94"/>
      <point x="716" y="-11" type="curve" smooth="yes"/>
      <point x="716" y="78"/>
      <point x="650" y="143"/>
      <point x="559" y="143" type="curve" smooth="yes"/>
      <point x="381" y="143"/>
      <point x="340" y="-39"/>
      <point x="221" y="-39" type="curve" smooth="yes"/>
      <point x="180" y="-39"/>
      <point x="141" y="-18"/>
      <point x="141" y="30" type="curve" smooth="yes"/>
      <point x="141" y="119"/>
      <point x="271" y="135"/>
      <point x="344" y="141" type="curve" smooth="yes"/>
      <point x="492" y="154"/>
      <point x="707" y="179"/>
      <point x="707" y="396" type="curve" smooth="yes"/>
      <point x="707" y="520"/>
      <point x="637" y="581"/>
      <point x="537" y="581" type="curve" smooth="yes"/>
      <point x="399" y="581"/>
      <point x="346" y="465"/>
      <point x="342" y="299" type="curve"/>
      <point x="447" y="299" type="line"/>
      <point x="447" y="321"/>
      <point x="447" y="340"/>
      <point x="447" y="354" type="curve" smooth="yes"/>
      <point x="447" y="435"/>
      <point x="487" y="475"/>
      <point x="534" y="475" type="curve" smooth="yes"/>
      <point x="575" y="475"/>
      <point x="592" y="444"/>
      <point x="592" y="397" type="curve" smooth="yes"/>
      <point x="592" y="275"/>
      <point x="477" y="262"/>
      <point x="356" y="250" type="curve" smooth="yes"/>
      <point x="217" y="236"/>
      <point x="21" y="202"/>
      <point x="21" y="24" type="curve" smooth="yes"/>
      <point x="21" y="-99"/>
      <point x="115" y="-155"/>
      <point x="219" y="-155" type="curve" smooth="yes"/>
    </contour>
    <contour>
      <point x="203" y="234"/>
      <point x="260" y="273"/>
      <point x="260" y="363" type="curve" smooth="yes"/>
      <point x="260" y="467"/>
      <point x="184" y="495"/>
      <point x="143" y="495" type="curve" smooth="yes"/>
      <point x="73" y="495"/>
      <point x="45" y="412"/>
      <point x="45" y="412" type="curve" smooth="yes"/>
      <point x="105" y="370" type="line"/>
      <point x="105" y="406"/>
      <point x="124" y="422"/>
      <point x="143" y="422" type="curve" smooth="yes"/>
      <point x="162" y="422"/>
      <point x="182" y="406"/>
      <point x="182" y="372" type="curve" smooth="yes"/>
      <point x="182" y="344"/>
      <point x="169" y="317"/>
      <point x="143" y="317" type="curve" smooth="yes"/>
      <point x="124" y="317"/>
      <point x="105" y="332"/>
      <point x="105" y="377" type="curve" smooth="yes"/>
      <point x="105" y="441"/>
      <point x="145" y="488"/>
      <point x="213" y="488" type="curve" smooth="yes"/>
      <point x="290" y="488"/>
      <point x="337" y="416"/>
      <point x="337" y="299" type="curve"/>
      <point x="439" y="299" type="line"/>
      <point x="439" y="435"/>
      <point x="375" y="579"/>
      <point x="216" y="582" type="curve" smooth="yes"/>
      <point x="108" y="584"/>
      <point x="19" y="518"/>
      <point x="18" y="384" type="curve" smooth="yes"/>
      <point x="18" y="289"/>
      <point x="62" y="234"/>
      <point x="139" y="234" type="curve" smooth="yes"/>
    </contour>
  </outline>
</glyph>
<glyph name="tml_Nya" format="1">
  <advance width="998"/>
  <unicode hex="0B9E"/>
  <outline>
    <contour>
      <point x="251" y="245" type="curve" smooth="yes"/>
      <point x="251" y="442"/>
      <point x="344" y="560"/>
      <point x="500" y="560" type="curve" smooth="yes"/>
      <point x="498" y="462" type="line" smooth="yes"/>
      <point x="399" y="462"/>
      <point x="353" y="370"/>
      <point x="353" y="255" type="curve" smooth="yes"/>
      <point x="353" y="158"/>
      <point x="370" y="74"/>
      <point x="418" y="74" type="curve" smooth="yes"/>
      <point x="464" y="74"/>
      <point x="473" y="139"/>
      <point x="473" y="178" type="curve" smooth="yes"/>
      <point x="473" y="246"/>
      <point x="445" y="281"/>
      <point x="419" y="281" type="curve" smooth="yes"/>
      <point x="376" y="281"/>
      <point x="356" y="235"/>
      <point x="359" y="167" type="curve"/>
      <point x="303" y="196" type="line"/>
      <point x="303" y="269"/>
      <point x="346" y="362"/>
      <point x="430" y="362" type="curve" smooth="yes"/>
      <point x="503" y="362"/>
      <point x="569" y="297"/>
      <point x="569" y="174" type="curve" smooth="yes"/>
      <point x="569" y="53"/>
      <point x="512" y="-24"/>
      <point x="418" y="-24" type="curve" smooth="yes"/>
      <point x="313" y="-24"/>
      <point x="251" y="90"/>
    </contour>
    <contour>
      <point x="490" y="462" type="line"/>
      <point x="498" y="560" type="line"/>
      <point x="835" y="560" type="line"/>
      <point x="835" y="462" type="line"/>
      <point x="732" y="462" type="line"/>
      <point x="732" y="1" type="line"/>
      <point x="625" y="1" type="line"/>
      <point x="625" y="462" type="line"/>
    </contour>
    <contour>
      <point x="538" y="-275" type="curve" smooth="yes"/>
      <point x="232" y="-274"/>
      <point x="40" y="-84"/>
      <point x="39" y="227" type="curve" smooth="yes"/>
      <point x="39" y="368"/>
      <point x="89" y="477"/>
      <point x="147" y="572" type="curve"/>
      <point x="236" y="527" type="line"/>
      <point x="180" y="434"/>
      <point x="143" y="350"/>
      <point x="143" y="227" type="curve" smooth="yes"/>
      <point x="143" y="-17"/>
      <point x="299" y="-176"/>
      <point x="539" y="-175" type="curve" smooth="yes"/>
      <point x="766" y="-174"/>
      <point x="847" y="-54"/>
      <point x="847" y="134" type="curve" smooth="yes"/>
      <point x="847" y="213"/>
      <point x="824" y="267"/>
      <point x="783" y="267" type="curve" smooth="yes"/>
      <point x="741" y="267"/>
      <point x="732" y="229"/>
      <point x="732" y="204" type="curve"/>
      <point x="683" y="235" type="line" smooth="yes"/>
      <point x="683" y="308"/>
      <point x="731" y="358"/>
      <point x="795" y="358" type="curve" smooth="yes"/>
      <point x="889" y="358"/>
      <point x="953" y="281"/>
      <point x="953" y="132" type="curve" smooth="yes"/>
      <point x="953" y="-116"/>
      <point x="835" y="-276"/>
    </contour>
    <contour>
      <point x="879" y="-7" type="move" name="Anchor1"/>
    </contour>
    <contour>
      <point x="432" y="2" type="move" name="tml_virama"/>
    </contour>
    <contour>
      <point x="892" y="0" type="move" name="Anchor4"/>
    </contour>
    <contour>
      <point x="951" y="-7" type="move" name="Anchor0"/>
    </contour>
  </outline>
</glyph>
<glyph name="tml_Tta" format="1">
  <advance width="637"/>
  <unicode hex="0B9F"/>
  <outline>
    <contour>
      <point x="360" y="0" type="move" name="virama"/>
    </contour>
    <contour>
      <point x="60" y="1" type="line"/>
      <point x="60" y="560" type="line"/>
      <point x="167" y="560" type="line"/>
      <point x="167" y="99" type="line"/>
      <point x="577" y="99" type="line"/>
      <point x="577" y="1" type="line"/>
    </contour>
  </outline>
</glyph>
<glyph name="tml_Nna" format="1">
  <advance width="1307"/>
  <unicode hex="0BA3"/>
  <outline>
    <contour>
      <point x="201" y="-24" type="curve" smooth="yes"/>
      <point x="92" y="-24"/>
      <point x="30" y="91"/>
      <point x="30" y="236" type="curve" smooth="yes"/>
      <point x="30" y="483"/>
      <point x="212" y="570"/>
      <point x="341" y="570" type="curve" smooth="yes"/>
      <point x="449" y="570"/>
      <point x="688" y="510"/>
      <point x="688" y="200" type="curve" smooth="yes"/>
      <point x="688" y="52"/>
      <point x="620" y="-23"/>
      <point x="528" y="-23" type="curve" smooth="yes"/>
      <point x="434" y="-23"/>
      <point x="370" y="57"/>
      <point x="370" y="206" type="curve" smooth="yes"/>
      <point x="370" y="401"/>
      <point x="471" y="572"/>
      <point x="689" y="572" type="curve" smooth="yes"/>
      <point x="851" y="572"/>
      <point x="1026" y="475"/>
      <point x="1026" y="207" type="curve" smooth="yes"/>
      <point x="1026" y="57"/>
      <point x="972" y="-23"/>
      <point x="869" y="-23" type="curve" smooth="yes"/>
      <point x="768" y="-23"/>
      <point x="709" y="55"/>
      <point x="709" y="215" type="curve" smooth="yes"/>
      <point x="709" y="410"/>
      <point x="815" y="561"/>
      <point x="1000" y="561" type="curve" smooth="yes"/>
      <point x="1277" y="561" type="line"/>
      <point x="1277" y="461" type="line"/>
      <point x="1174" y="461" type="line"/>
      <point x="1174" y="1" type="line"/>
      <point x="1066" y="1" type="line"/>
      <point x="1066" y="461" type="line"/>
      <point x="1001" y="461" type="line" smooth="yes"/>
      <point x="882" y="461"/>
      <point x="814" y="359"/>
      <point x="814" y="208" type="curve" smooth="yes"/>
      <point x="814" y="133"/>
      <point x="831" y="65"/>
      <point x="867" y="65" type="curve" smooth="yes"/>
      <point x="905" y="65"/>
      <point x="920" y="137"/>
      <point x="920" y="209" type="curve" smooth="yes"/>
      <point x="920" y="424"/>
      <point x="785" y="474"/>
      <point x="689" y="474" type="curve" smooth="yes"/>
      <point x="524" y="474"/>
      <point x="475" y="327"/>
      <point x="475" y="199" type="curve" smooth="yes"/>
      <point x="475" y="123"/>
      <point x="492" y="65"/>
      <point x="528" y="65" type="curve" smooth="yes"/>
      <point x="567" y="65"/>
      <point x="580" y="124"/>
      <point x="580" y="194" type="curve" smooth="yes"/>
      <point x="580" y="397"/>
      <point x="455" y="476"/>
      <point x="332" y="474" type="curve" smooth="yes"/>
      <point x="258" y="473"/>
      <point x="132" y="418"/>
      <point x="132" y="233" type="curve" smooth="yes"/>
      <point x="132" y="165"/>
      <point x="149" y="64"/>
      <point x="199" y="64" type="curve" smooth="yes"/>
      <point x="242" y="64"/>
      <point x="252" y="139"/>
      <point x="252" y="179" type="curve" smooth="yes"/>
      <point x="252" y="238"/>
      <point x="230" y="281"/>
      <point x="195" y="281" type="curve" smooth="yes"/>
      <point x="158" y="281"/>
      <point x="134" y="234"/>
      <point x="138" y="167" type="curve"/>
      <point x="82" y="196" type="line"/>
      <point x="82" y="269"/>
      <point x="124" y="362"/>
      <point x="210" y="362" type="curve" smooth="yes"/>
      <point x="282" y="362"/>
      <point x="348" y="298"/>
      <point x="348" y="171" type="curve" smooth="yes"/>
      <point x="348" y="50"/>
      <point x="288" y="-24"/>
    </contour>
    <contour>
      <point x="1247" y="561" type="move" name="MatraIi"/>
    </contour>
    <contour>
      <point x="30" y="244" type="move" name="MatraAi.alt"/>
    </contour>
    <contour>
      <point x="700" y="0" type="move" name="virama"/>
    </contour>
    <contour>
      <point x="1202" y="561" type="move" name="MatraI.alt2"/>
    </contour>
  </outline>
</glyph>
<glyph name="tml_Ta" format="1">
  <advance width="638"/>
  <unicode hex="0BA4"/>
  <outline>
    <contour>
      <point x="30" y="175" type="curve" smooth="yes"/>
      <point x="29" y="268"/>
      <point x="84" y="341"/>
      <point x="172" y="341" type="curve" smooth="yes"/>
      <point x="432" y="341" type="line" smooth="yes"/>
      <point x="438" y="242" type="line" smooth="yes"/>
      <point x="191" y="244" type="line" smooth="yes"/>
      <point x="150" y="244"/>
      <point x="130" y="214"/>
      <point x="130" y="175" type="curve" smooth="yes"/>
      <point x="130" y="125"/>
      <point x="163" y="99"/>
      <point x="217" y="99" type="curve" smooth="yes"/>
      <point x="279" y="99"/>
      <point x="308" y="142"/>
      <point x="308" y="207" type="curve" smooth="yes"/>
      <point x="308" y="464" type="line"/>
      <point x="239" y="464" type="line"/>
      <point x="239" y="309" type="line"/>
      <point x="139" y="309" type="line"/>
      <point x="139" y="560" type="line"/>
      <point x="518" y="560" type="line"/>
      <point x="518" y="464" type="line"/>
      <point x="415" y="464" type="line"/>
      <point x="415" y="207" type="line" smooth="yes"/>
      <point x="415" y="100"/>
      <point x="374" y="0"/>
      <point x="212" y="1" type="curve" smooth="yes"/>
      <point x="81" y="1"/>
      <point x="31" y="77"/>
    </contour>
    <contour>
      <point x="431" y="341" type="line"/>
      <point x="517" y="340"/>
      <point x="603" y="293"/>
      <point x="603" y="116" type="curve" smooth="yes"/>
      <point x="603" y="-64"/>
      <point x="527" y="-155"/>
      <point x="304" y="-158" type="curve" smooth="yes"/>
      <point x="235" y="-159"/>
      <point x="213" y="-172"/>
      <point x="211" y="-236" type="curve"/>
      <point x="101" y="-236" type="line"/>
      <point x="102" y="-161"/>
      <point x="126" y="-62"/>
      <point x="298" y="-61" type="curve" smooth="yes"/>
      <point x="462" y="-60"/>
      <point x="496" y="-4"/>
      <point x="496" y="117" type="curve" smooth="yes"/>
      <point x="496" y="209"/>
      <point x="465" y="240"/>
      <point x="417" y="242" type="curve"/>
    </contour>
    <contour>
      <point x="14" y="-7" type="move" name="Anchor3"/>
    </contour>
    <contour>
      <point x="194" y="0" type="move" name="_Anchor2"/>
    </contour>
    <contour>
      <point x="478" y="1" type="move" name="Anchor1"/>
    </contour>
    <contour>
      <point x="309" y="1" type="move" name="Anchor0"/>
    </contour>
  </outline>
</glyph>
<glyph name="tml_Na" format="1">
  <advance width="649"/>
  <unicode hex="0BA8"/>
  <outline>
    <contour>
      <point x="414" y="0" type="move" name="Anchor1"/>
    </contour>
    <contour>
      <point x="214" y="0" type="move" name="Anchor0"/>
    </contour>
    <contour>
      <point x="182" y="0" type="move" name="_Anchor2"/>
    </contour>
    <contour>
      <point x="44" y="1" type="line"/>
      <point x="44" y="560" type="line"/>
      <point x="483" y="560" type="line"/>
      <point x="483" y="462" type="line"/>
      <point x="380" y="462" type="line"/>
      <point x="380" y="1" type="line"/>
      <point x="272" y="1" type="line"/>
      <point x="272" y="462" type="line"/>
      <point x="151" y="462" type="line"/>
      <point x="151" y="1" type="line"/>
    </contour>
    <contour>
      <point x="114" y="-277" type="line"/>
      <point x="115" y="-178"/>
      <point x="117" y="-49"/>
      <point x="341" y="-48" type="curve" smooth="yes"/>
      <point x="486" y="-47"/>
      <point x="502" y="5"/>
      <point x="502" y="116" type="curve" smooth="yes"/>
      <point x="502" y="180"/>
      <point x="485" y="243"/>
      <point x="440" y="243" type="curve" smooth="yes"/>
      <point x="403" y="243"/>
      <point x="380" y="216"/>
      <point x="380" y="166" type="curve" smooth="yes"/>
      <point x="380" y="148"/>
      <point x="380" y="130"/>
      <point x="380" y="110" type="curve"/>
      <point x="309" y="95" type="line"/>
      <point x="311" y="245"/>
      <point x="336" y="346"/>
      <point x="447" y="344" type="curve" smooth="yes"/>
      <point x="566" y="342"/>
      <point x="609" y="233"/>
      <point x="609" y="121" type="curve" smooth="yes"/>
      <point x="609" y="-76"/>
      <point x="535" y="-145"/>
      <point x="359" y="-146" type="curve" smooth="yes"/>
      <point x="235" y="-147"/>
      <point x="225" y="-169"/>
      <point x="225" y="-277" type="curve"/>
    </contour>
  </outline>
</glyph>
<glyph name="tml_Nnna" format="1">
  <advance width="939"/>
  <unicode hex="0BA9"/>
  <outline>
    <contour>
      <point x="589" y="0" type="move" name="Anchor1"/>
    </contour>
    <contour>
      <point x="534" y="0" type="move" name="Anchor0"/>
    </contour>
    <contour>
      <point x="17" y="246" type="curve" smooth="yes"/>
      <point x="17" y="450"/>
      <point x="132" y="571"/>
      <point x="327" y="572" type="curve" smooth="yes"/>
      <point x="327" y="474" type="line" smooth="yes"/>
      <point x="178" y="474"/>
      <point x="119" y="378"/>
      <point x="119" y="256" type="curve" smooth="yes"/>
      <point x="119" y="159"/>
      <point x="136" y="75"/>
      <point x="184" y="75" type="curve" smooth="yes"/>
      <point x="230" y="75"/>
      <point x="239" y="139"/>
      <point x="239" y="178" type="curve" smooth="yes"/>
      <point x="239" y="239"/>
      <point x="211" y="272"/>
      <point x="185" y="272" type="curve" smooth="yes"/>
      <point x="145" y="272"/>
      <point x="117" y="222"/>
      <point x="129" y="148" type="curve"/>
      <point x="42" y="217" type="line"/>
      <point x="64" y="267"/>
      <point x="94" y="373"/>
      <point x="191" y="373" type="curve" smooth="yes"/>
      <point x="260" y="373"/>
      <point x="341" y="316"/>
      <point x="341" y="175" type="curve" smooth="yes"/>
      <point x="341" y="54"/>
      <point x="282" y="-23"/>
      <point x="184" y="-23" type="curve" smooth="yes"/>
      <point x="79" y="-23"/>
      <point x="17" y="91"/>
    </contour>
    <contour>
      <point x="327" y="474" type="line"/>
      <point x="327" y="572" type="line"/>
      <point x="349" y="572" type="line"/>
      <point x="349" y="474" type="line"/>
    </contour>
    <contour>
      <point x="347" y="474" type="curve" smooth="yes"/>
      <point x="347" y="572" type="line" smooth="yes"/>
      <point x="502" y="572"/>
      <point x="666" y="470"/>
      <point x="666" y="214" type="curve" smooth="yes"/>
      <point x="666" y="53"/>
      <point x="623" y="-23"/>
      <point x="518" y="-23" type="curve" smooth="yes"/>
      <point x="416" y="-23"/>
      <point x="366" y="55"/>
      <point x="366" y="214" type="curve" smooth="yes"/>
      <point x="366" y="425"/>
      <point x="448" y="560"/>
      <point x="640" y="561" type="curve"/>
      <point x="925" y="561" type="line"/>
      <point x="925" y="463" type="line"/>
      <point x="823" y="463" type="line"/>
      <point x="823" y="1" type="line"/>
      <point x="715" y="1" type="line"/>
      <point x="715" y="463" type="line"/>
      <point x="641" y="463" type="line"/>
      <point x="520" y="463"/>
      <point x="474" y="368"/>
      <point x="474" y="214" type="curve" smooth="yes"/>
      <point x="474" y="142"/>
      <point x="489" y="75"/>
      <point x="518" y="75" type="curve" smooth="yes"/>
      <point x="546" y="75"/>
      <point x="558" y="134"/>
      <point x="558" y="213" type="curve" smooth="yes"/>
      <point x="558" y="414"/>
      <point x="440" y="474"/>
    </contour>
  </outline>
</glyph>
<glyph name="tml_Pa" format="1">
  <advance width="510"/>
  <unicode hex="0BAA"/>
  <outline>
    <contour>
      <point x="30" y="1" type="line"/>
      <point x="30" y="560" type="line"/>
      <point x="137" y="560" type="line"/>
      <point x="137" y="99" type="line"/>
      <point x="372" y="99" type="line"/>
      <point x="372" y="560" type="line"/>
      <point x="480" y="560" type="line"/>
      <point x="480" y="1" type="line"/>
    </contour>
    <contour>
      <point x="221" y="0" type="move" name="Anchor0"/>
    </contour>
    <contour>
      <point x="390" y="0" type="move" name="Anchor1"/>
    </contour>
    <contour>
      <point x="710" y="0" type="move" name="Anchor4"/>
    </contour>
  </outline>
</glyph>
<glyph name="tml_Ma" format="1">
  <advance width="647"/>
  <unicode hex="0BAE"/>
  <outline>
    <contour>
<<<<<<< HEAD
      <point x="303" y="0" type="move" name="Anchor1"/>
    </contour>
    <contour>
      <point x="389" y="0" type="move" name="Anchor0"/>
    </contour>
    <contour>
      <point x="297" y="0" type="move" name="tml_virama"/>
    </contour>
    <contour>
      <point x="46" y="0" type="line"/>
      <point x="46" y="559" type="line"/>
      <point x="153" y="559" type="line"/>
      <point x="153" y="98" type="line"/>
      <point x="372" y="98" type="line"/>
      <point x="388" y="0" type="line"/>
    </contour>
    <contour>
      <point x="261" y="68" type="line" smooth="yes"/>
      <point x="261" y="432" type="line"/>
      <point x="261" y="523.565"/>
      <point x="301.424" y="575.271"/>
      <point x="394" y="576" type="curve" smooth="yes"/>
      <point x="540.818" y="577.154"/>
      <point x="591.24" y="425.844"/>
      <point x="592" y="299" type="curve" smooth="yes"/>
      <point x="593.106" y="114.308"/>
      <point x="525.617" y="0"/>
      <point x="384" y="0" type="curve"/>
      <point x="365" y="98" type="line"/>
      <point x="484.879" y="96.8895"/>
      <point x="494" y="184.619"/>
      <point x="494" y="299" type="curve" smooth="yes"/>
      <point x="494" y="380.657"/>
      <point x="468.203" y="487"/>
      <point x="405" y="487" type="curve" smooth="yes"/>
      <point x="380.739" y="487"/>
      <point x="369" y="465.647"/>
      <point x="369" y="432" type="curve"/>
      <point x="369" y="68" type="line"/>
    </contour>
=======
      <point x="30" y="0" type="line"/>
      <point x="30" y="559" type="line"/>
      <point x="137" y="559" type="line"/>
      <point x="137" y="98" type="line"/>
      <point x="376" y="98" type="line"/>
      <point x="392" y="0" type="line"/>
    </contour>
    <contour>
      <point x="265" y="68" type="line" smooth="yes"/>
      <point x="265" y="442" type="line"/>
      <point x="265" y="534"/>
      <point x="305" y="575"/>
      <point x="398" y="576" type="curve" smooth="yes"/>
      <point x="561" y="577"/>
      <point x="616" y="426"/>
      <point x="617" y="299" type="curve" smooth="yes"/>
      <point x="618" y="114"/>
      <point x="544" y="0"/>
      <point x="388" y="0" type="curve"/>
      <point x="369" y="98" type="line"/>
      <point x="509" y="97"/>
      <point x="520" y="215"/>
      <point x="520" y="299" type="curve" smooth="yes"/>
      <point x="520" y="381"/>
      <point x="487" y="487"/>
      <point x="409" y="487" type="curve" smooth="yes"/>
      <point x="382" y="487"/>
      <point x="373" y="467"/>
      <point x="373" y="432" type="curve"/>
      <point x="373" y="68" type="line"/>
    </contour>
    <contour>
      <point x="373" y="0" type="move" name="Anchor0"/>
    </contour>
    <contour>
      <point x="287" y="0" type="move" name="Anchor1"/>
    </contour>
    <contour>
      <point x="281" y="0" type="move" name="tml_virama"/>
    </contour>
>>>>>>> remotes/origin/tamil-dev
  </outline>
</glyph>
<glyph name="tml_Ya" format="1">
  <advance width="720"/>
  <unicode hex="0BAF"/>
  <outline>
    <contour>
      <point x="623" y="560" type="move" name="MatraIi"/>
    </contour>
    <contour>
      <point x="554" y="529" type="move" name="MatraI.alt3"/>
    </contour>
    <contour>
      <point x="342" y="0" type="move" name="virama"/>
    </contour>
    <contour>
      <point x="551" y="33" type="move" name="MatraU.alt1"/>
    </contour>
    <contour>
      <point x="194" y="-17" type="curve" smooth="yes"/>
      <point x="106" y="-17"/>
      <point x="42" y="33"/>
      <point x="42" y="132" type="curve" smooth="yes"/>
      <point x="42" y="560" type="line"/>
      <point x="149" y="560" type="line"/>
      <point x="149" y="167" type="line" smooth="yes"/>
      <point x="149" y="107"/>
      <point x="181" y="83"/>
      <point x="215" y="83" type="curve" smooth="yes"/>
      <point x="258" y="83"/>
      <point x="283" y="121"/>
      <point x="283" y="178" type="curve"/>
      <point x="339" y="159" type="line"/>
      <point x="334" y="68"/>
      <point x="299" y="-17"/>
    </contour>
    <contour>
      <point x="323" y="0" type="line"/>
      <point x="283" y="147" type="line"/>
      <point x="283" y="560" type="line"/>
      <point x="390" y="560" type="line"/>
      <point x="390" y="99" type="line"/>
      <point x="553" y="99" type="line"/>
      <point x="553" y="560" type="line"/>
      <point x="660" y="560" type="line"/>
      <point x="660" y="0" type="line"/>
    </contour>
  </outline>
</glyph>
<glyph name="tml_Ra" format="1">
  <advance width="498"/>
  <unicode hex="0BB0"/>
  <outline>
    <contour>
      <point x="87" y="-6" type="move" name="Anchor1"/>
    </contour>
    <contour>
      <point x="228" y="0" type="move" name="Anchor0"/>
    </contour>
    <contour>
      <point x="49" y="0" type="line"/>
      <point x="49" y="560" type="line"/>
      <point x="488" y="560" type="line"/>
      <point x="488" y="462" type="line"/>
      <point x="385" y="462" type="line"/>
      <point x="385" y="0" type="line"/>
      <point x="349" y="-0"/>
      <point x="313" y="0"/>
      <point x="277" y="0" type="curve"/>
      <point x="277" y="462" type="line"/>
      <point x="156" y="462" type="line"/>
      <point x="156" y="0" type="line"/>
    </contour>
    <contour>
      <point x="57" y="-174" type="line"/>
      <point x="278" y="33" type="line"/>
      <point x="385" y="0" type="line"/>
      <point x="123" y="-241" type="line"/>
    </contour>
  </outline>
</glyph>
<glyph name="tml_Rra" format="1">
  <advance width="709"/>
  <unicode hex="0BB1"/>
  <outline>
    <contour>
      <point x="201" y="0" type="move" name="Anchor1"/>
    </contour>
    <contour>
      <point x="332" y="0" type="move" name="Anchor0"/>
    </contour>
    <contour>
      <point x="152" y="378" type="line" smooth="yes"/>
      <point x="152" y="0" type="line" smooth="yes"/>
      <point x="44" y="0" type="line"/>
      <point x="44" y="383" type="line"/>
    </contour>
    <contour>
      <point x="391" y="399" type="curve" smooth="yes"/>
      <point x="391" y="0" type="line" smooth="yes"/>
      <point x="283" y="0" type="line"/>
      <point x="283" y="383" type="line" smooth="yes"/>
      <point x="283" y="451"/>
      <point x="264" y="476"/>
      <point x="223" y="476" type="curve" smooth="yes"/>
      <point x="181" y="476"/>
      <point x="152" y="437"/>
      <point x="152" y="369" type="curve" smooth="yes"/>
      <point x="44" y="363" type="line"/>
      <point x="45" y="471"/>
      <point x="83" y="574"/>
      <point x="223" y="574" type="curve" smooth="yes"/>
      <point x="343" y="574"/>
      <point x="391" y="504"/>
    </contour>
    <contour>
      <point x="274" y="-187" type="curve" smooth="yes"/>
      <point x="156" y="-188"/>
      <point x="167" y="-241"/>
      <point x="165" y="-310" type="curve"/>
      <point x="51" y="-310" type="line"/>
      <point x="52" y="-211"/>
      <point x="72" y="-81"/>
      <point x="272" y="-80" type="curve" smooth="yes"/>
      <point x="545" y="-79"/>
      <point x="551" y="48"/>
      <point x="551" y="261" type="curve" smooth="yes"/>
      <point x="551" y="357"/>
      <point x="541" y="476"/>
      <point x="459" y="476" type="curve" smooth="yes"/>
      <point x="404" y="476"/>
      <point x="391" y="435"/>
      <point x="391" y="318" type="curve" smooth="yes"/>
      <point x="304" y="281" type="line"/>
      <point x="275" y="458"/>
      <point x="337" y="573"/>
      <point x="459" y="573" type="curve" smooth="yes"/>
      <point x="630" y="573"/>
      <point x="657" y="391"/>
      <point x="657" y="261" type="curve" smooth="yes"/>
      <point x="657" y="-15"/>
      <point x="618" y="-184"/>
    </contour>
  </outline>
</glyph>
<glyph name="tml_La" format="1">
  <advance width="786"/>
  <unicode hex="0BB2"/>
  <outline>
    <contour>
      <point x="422" y="0" type="move" name="virama"/>
    </contour>
    <contour>
      <point x="44" y="244" type="move" name="MatraAi.alt"/>
    </contour>
    <contour>
      <point x="636" y="584" type="move" name="MatraIi.alt2"/>
    </contour>
    <contour>
      <point x="618" y="573" type="move" name="MatraI.alt5"/>
    </contour>
    <contour>
      <point x="209" y="-23" type="curve" smooth="yes"/>
      <point x="104" y="-23"/>
      <point x="42" y="90"/>
      <point x="42" y="245" type="curve" smooth="yes"/>
      <point x="42" y="448"/>
      <point x="134" y="572"/>
      <point x="292" y="573" type="curve" smooth="yes"/>
      <point x="427" y="574"/>
      <point x="513" y="463"/>
      <point x="513" y="332" type="curve" smooth="yes"/>
      <point x="513" y="290"/>
      <point x="504" y="229"/>
      <point x="504" y="181" type="curve" smooth="yes"/>
      <point x="504" y="121"/>
      <point x="522" y="75"/>
      <point x="570" y="75" type="curve" smooth="yes"/>
      <point x="631" y="75"/>
      <point x="638" y="161"/>
      <point x="638" y="256" type="curve" smooth="yes"/>
      <point x="638" y="445"/>
      <point x="549" y="530"/>
      <point x="549" y="530" type="curve" smooth="yes"/>
      <point x="636" y="584" type="line" smooth="yes"/>
      <point x="691" y="525"/>
      <point x="744" y="401"/>
      <point x="744" y="255" type="curve" smooth="yes"/>
      <point x="744" y="151"/>
      <point x="726" y="-23"/>
      <point x="570" y="-23" type="curve" smooth="yes"/>
      <point x="425" y="-23"/>
      <point x="403" y="79"/>
      <point x="403" y="190" type="curve" smooth="yes"/>
      <point x="403" y="240"/>
      <point x="409" y="293"/>
      <point x="409" y="335" type="curve" smooth="yes"/>
      <point x="408" y="425"/>
      <point x="344" y="476"/>
      <point x="292" y="476" type="curve" smooth="yes"/>
      <point x="192" y="476"/>
      <point x="143" y="377"/>
      <point x="143" y="256" type="curve" smooth="yes"/>
      <point x="143" y="159"/>
      <point x="161" y="75"/>
      <point x="209" y="75" type="curve" smooth="yes"/>
      <point x="255" y="75"/>
      <point x="264" y="139"/>
      <point x="264" y="178" type="curve" smooth="yes"/>
      <point x="264" y="245"/>
      <point x="235" y="282"/>
      <point x="209" y="282" type="curve" smooth="yes"/>
      <point x="170" y="282"/>
      <point x="141" y="228"/>
      <point x="153" y="148" type="curve"/>
      <point x="93" y="197" type="line"/>
      <point x="93" y="268"/>
      <point x="138" y="362"/>
      <point x="221" y="362" type="curve" smooth="yes"/>
      <point x="285" y="362"/>
      <point x="360" y="308"/>
      <point x="360" y="175" type="curve" smooth="yes"/>
      <point x="360" y="54"/>
      <point x="304" y="-23"/>
    </contour>
  </outline>
</glyph>
<glyph name="tml_Lla" format="1">
  <advance width="885"/>
  <unicode hex="0BB3"/>
  <outline>
    <contour>
      <point x="40" y="245" type="curve" smooth="yes"/>
      <point x="40" y="450"/>
      <point x="129" y="573"/>
      <point x="279" y="573" type="curve" smooth="yes"/>
      <point x="409" y="573"/>
      <point x="500" y="436"/>
      <point x="500" y="235" type="curve" smooth="yes"/>
      <point x="419" y="257" type="line" smooth="yes"/>
      <point x="419" y="388"/>
      <point x="364" y="476"/>
      <point x="279" y="476" type="curve" smooth="yes"/>
      <point x="186" y="476"/>
      <point x="142" y="378"/>
      <point x="142" y="255" type="curve" smooth="yes"/>
      <point x="142" y="158"/>
      <point x="159" y="74"/>
      <point x="207" y="74" type="curve" smooth="yes"/>
      <point x="253" y="74"/>
      <point x="262" y="139"/>
      <point x="262" y="178" type="curve" smooth="yes"/>
      <point x="262" y="246"/>
      <point x="234" y="281"/>
      <point x="208" y="281" type="curve" smooth="yes"/>
      <point x="165" y="281"/>
      <point x="145" y="235"/>
      <point x="148" y="167" type="curve"/>
      <point x="89" y="196" type="line"/>
      <point x="89" y="259"/>
      <point x="132" y="362"/>
      <point x="217" y="362" type="curve" smooth="yes"/>
      <point x="292" y="362"/>
      <point x="360" y="297"/>
      <point x="360" y="174" type="curve" smooth="yes"/>
      <point x="360" y="53"/>
      <point x="303" y="-24"/>
      <point x="207" y="-24" type="curve" smooth="yes"/>
      <point x="102" y="-24"/>
      <point x="40" y="90"/>
    </contour>
    <contour>
      <point x="419" y="1" type="line"/>
      <point x="419" y="560" type="line"/>
      <point x="858" y="560" type="line"/>
      <point x="858" y="462" type="line"/>
      <point x="755" y="462" type="line"/>
      <point x="755" y="1" type="line"/>
      <point x="648" y="1" type="line"/>
      <point x="648" y="462" type="line"/>
      <point x="527" y="462" type="line"/>
      <point x="527" y="1" type="line"/>
    </contour>
    <contour>
      <point x="503" y="0" type="move" name="Anchor1"/>
    </contour>
    <contour>
      <point x="482" y="0" type="move" name="Anchor0"/>
    </contour>
  </outline>
</glyph>
<glyph name="tml_Llla" format="1">
  <advance width="671"/>
  <unicode hex="0BB4"/>
  <outline>
    <contour>
      <point x="505.671" y="552" type="move" name="MatraIi.alt1"/>
    </contour>
    <contour>
      <point x="500.671" y="554" type="move" name="MatraI.alt6"/>
    </contour>
    <contour>
      <point x="291.671" y="0" type="move" name="virama"/>
    </contour>
    <contour>
      <point x="250.671" y="-293" type="curve" smooth="yes"/>
      <point x="129.671" y="-293"/>
      <point x="45.6709" y="-206"/>
      <point x="45.6709" y="-83" type="curve"/>
      <point x="158.671" y="-82" type="line"/>
      <point x="158.671" y="-133"/>
      <point x="175.671" y="-190"/>
      <point x="257.671" y="-190" type="curve" smooth="yes"/>
      <point x="324.671" y="-190"/>
      <point x="349.671" y="-133"/>
      <point x="349.671" y="-133" type="curve" smooth="yes"/>
      <point x="349.671" y="-133"/>
      <point x="393.671" y="-178"/>
      <point x="396.671" y="-175" type="curve"/>
      <point x="349.671" y="-175"/>
      <point x="276.671" y="-136"/>
      <point x="276.671" y="8" type="curve" smooth="yes"/>
      <point x="276.671" y="429" type="line" smooth="yes"/>
      <point x="276.671" y="518"/>
      <point x="312.671" y="573"/>
      <point x="409.671" y="573" type="curve" smooth="yes"/>
      <point x="570.671" y="573"/>
      <point x="624.671" y="432"/>
      <point x="628.671" y="299" type="curve" smooth="yes"/>
      <point x="634.671" y="128"/>
      <point x="558.671" y="0"/>
      <point x="399.671" y="0" type="curve" smooth="yes"/>
      <point x="41.6709" y="0" type="line"/>
      <point x="41.6709" y="559" type="line"/>
      <point x="148.671" y="559" type="line"/>
      <point x="148.671" y="98" type="line"/>
      <point x="380.671" y="98" type="line" smooth="yes"/>
      <point x="510.671" y="95"/>
      <point x="530.671" y="182"/>
      <point x="530.671" y="275" type="curve" smooth="yes"/>
      <point x="530.671" y="414"/>
      <point x="485.671" y="484"/>
      <point x="425.671" y="484" type="curve" smooth="yes"/>
      <point x="396.671" y="484"/>
      <point x="384.671" y="467"/>
      <point x="384.671" y="429" type="curve" smooth="yes"/>
      <point x="384.671" y="-2" type="line" smooth="yes"/>
      <point x="384.671" y="-57"/>
      <point x="403.671" y="-89"/>
      <point x="468.671" y="-89" type="curve" smooth="yes"/>
      <point x="557.671" y="-89" type="line"/>
      <point x="557.671" y="-179" type="line"/>
      <point x="424.671" y="-179" type="line"/>
      <point x="424.671" y="-179"/>
      <point x="451.671" y="-163"/>
      <point x="451.671" y="-166" type="curve" smooth="yes"/>
      <point x="451.671" y="-197"/>
      <point x="377.671" y="-293"/>
    </contour>
  </outline>
</glyph>
<glyph name="tml_Va" format="1">
  <advance width="770"/>
  <unicode hex="0BB5"/>
  <outline>
    <contour>
      <point x="966" y="0" type="move" name="Anchor4"/>
    </contour>
    <contour>
      <point x="625" y="0" type="move" name="Anchor1"/>
    </contour>
    <contour>
      <point x="413" y="0" type="move" name="Anchor0"/>
    </contour>
    <contour>
      <point x="40" y="246" type="curve" smooth="yes"/>
      <point x="40" y="453"/>
      <point x="133" y="576"/>
      <point x="289" y="577" type="curve" smooth="yes"/>
      <point x="427" y="578"/>
      <point x="524" y="449"/>
      <point x="524" y="265" type="curve" smooth="yes"/>
      <point x="524" y="120.425"/>
      <point x="479" y="62"/>
      <point x="479" y="62" type="curve"/>
      <point x="389" y="84" type="line"/>
      <point x="406" y="123.558"/>
      <point x="419" y="173.006"/>
      <point x="419" y="263" type="curve" smooth="yes"/>
      <point x="419" y="393"/>
      <point x="368" y="480"/>
      <point x="289" y="480" type="curve" smooth="yes"/>
      <point x="189" y="480"/>
      <point x="141" y="380"/>
      <point x="141" y="256" type="curve" smooth="yes"/>
      <point x="141" y="159"/>
      <point x="159" y="75"/>
      <point x="207" y="75" type="curve" smooth="yes"/>
      <point x="253" y="75"/>
      <point x="262" y="139"/>
      <point x="262" y="178" type="curve" smooth="yes"/>
      <point x="262" y="239"/>
      <point x="233" y="272"/>
      <point x="207" y="272" type="curve" smooth="yes"/>
      <point x="168" y="272"/>
      <point x="138" y="222"/>
      <point x="150" y="148" type="curve"/>
      <point x="64" y="217" type="line"/>
      <point x="86" y="267"/>
      <point x="116" y="373"/>
      <point x="212" y="373" type="curve" smooth="yes"/>
      <point x="281" y="373"/>
      <point x="363" y="316"/>
      <point x="363" y="175" type="curve" smooth="yes"/>
      <point x="363" y="54"/>
      <point x="305" y="-23"/>
      <point x="207" y="-23" type="curve" smooth="yes"/>
      <point x="102" y="-23"/>
      <point x="40" y="91"/>
    </contour>
    <contour>
      <point x="389" y="84" type="line"/>
      <point x="496" y="101" type="line"/>
      <point x="603" y="101" type="line"/>
      <point x="603" y="559" type="line"/>
      <point x="710" y="559" type="line"/>
      <point x="710" y="1" type="line"/>
      <point x="390" y="1" type="line"/>
    </contour>
  </outline>
</glyph>
<glyph name="tml_Sha" format="1">
  <advance width="807"/>
  <unicode hex="0BB6"/>
  <outline>
    <contour>
      <point x="681" y="1" type="move" name="Anchor1"/>
    </contour>
    <contour>
      <point x="569" y="0" type="move" name="Anchor0"/>
    </contour>
    <contour>
      <point x="385" y="1" type="move" name="tml_virama"/>
    </contour>
    <contour>
      <point x="50" y="560" type="line"/>
      <point x="157" y="560" type="line"/>
      <point x="157" y="153" type="line" smooth="yes"/>
      <point x="157" y="108"/>
      <point x="175" y="83"/>
      <point x="212" y="83" type="curve" smooth="yes"/>
      <point x="246" y="83"/>
      <point x="270" y="105"/>
      <point x="270" y="153" type="curve" smooth="yes"/>
      <point x="270" y="560" type="line"/>
      <point x="377" y="560" type="line"/>
      <point x="377" y="153" type="line" smooth="yes"/>
      <point x="377" y="41"/>
      <point x="319" y="-17"/>
      <point x="210" y="-17" type="curve" smooth="yes"/>
      <point x="106" y="-17"/>
      <point x="50" y="46"/>
      <point x="50" y="153" type="curve" smooth="yes"/>
    </contour>
    <contour>
      <point x="270" y="462" type="line"/>
      <point x="270" y="560" type="line"/>
      <point x="562" y="560" type="line"/>
      <point x="571" y="462" type="line"/>
    </contour>
    <contour>
      <point x="445" y="143" type="curve" smooth="yes"/>
      <point x="445" y="545" type="line" smooth="yes"/>
      <point x="557" y="545" type="line"/>
      <point x="557" y="143" type="line" smooth="yes"/>
      <point x="557" y="95.3582"/>
      <point x="581" y="86"/>
      <point x="598" y="86" type="curve" smooth="yes"/>
      <point x="643.246" y="86"/>
      <point x="665" y="156"/>
      <point x="665" y="284" type="curve" smooth="yes"/>
      <point x="665" y="427"/>
      <point x="628.053" y="463"/>
      <point x="566" y="462" type="curve"/>
      <point x="557" y="560" type="line"/>
      <point x="679.155" y="560"/>
      <point x="766.954" y="521"/>
      <point x="766" y="284" type="curve" smooth="yes"/>
      <point x="765.196" y="95.9989"/>
      <point x="705.46" y="-15"/>
      <point x="595" y="-15" type="curve" smooth="yes"/>
      <point x="523.75" y="-15"/>
      <point x="445" y="15.0952"/>
    </contour>
  </outline>
</glyph>
<glyph name="tml_Ssa" format="1">
  <advance width="1057"/>
  <unicode hex="0BB7"/>
  <outline>
    <contour>
      <point x="575" y="-4" type="move" name="Anchor1"/>
    </contour>
    <contour>
      <point x="644" y="-4" type="move" name="Anchor0"/>
    </contour>
    <contour>
      <point x="465" y="0" type="move" name="tml_virama"/>
    </contour>
    <contour>
      <point x="40" y="245" type="curve" smooth="yes"/>
      <point x="40" y="448"/>
      <point x="133" y="570"/>
      <point x="289" y="570" type="curve" smooth="yes"/>
      <point x="424.051" y="570"/>
      <point x="518" y="451.692"/>
      <point x="518" y="279" type="curve" smooth="yes"/>
      <point x="518" y="144.437"/>
      <point x="466" y="59"/>
      <point x="466" y="59" type="curve"/>
      <point x="388" y="81" type="line"/>
      <point x="406" y="121"/>
      <point x="419" y="172"/>
      <point x="419" y="263" type="curve" smooth="yes"/>
      <point x="419" y="389"/>
      <point x="368" y="473"/>
      <point x="289" y="473" type="curve" smooth="yes"/>
      <point x="189" y="473"/>
      <point x="142" y="376"/>
      <point x="142" y="255" type="curve" smooth="yes"/>
      <point x="142" y="158"/>
      <point x="159" y="74"/>
      <point x="207" y="74" type="curve" smooth="yes"/>
      <point x="253" y="74"/>
      <point x="262" y="139"/>
      <point x="262" y="178" type="curve" smooth="yes"/>
      <point x="262" y="245.559"/>
      <point x="234" y="281"/>
      <point x="208" y="281" type="curve" smooth="yes"/>
      <point x="165.143" y="281"/>
      <point x="145.143" y="235.032"/>
      <point x="148" y="167" type="curve"/>
      <point x="64" y="216" type="line"/>
      <point x="64" y="271.619"/>
      <point x="124.336" y="362"/>
      <point x="209" y="362" type="curve" smooth="yes"/>
      <point x="290.093" y="362"/>
      <point x="364" y="296.688"/>
      <point x="364" y="174" type="curve" smooth="yes"/>
      <point x="364" y="53"/>
      <point x="305" y="-24"/>
      <point x="207" y="-24" type="curve" smooth="yes"/>
      <point x="102" y="-24"/>
      <point x="40" y="90"/>
    </contour>
    <contour>
      <point x="388" y="0" type="line"/>
      <point x="388" y="81" type="line"/>
      <point x="484" y="99" type="line"/>
      <point x="900" y="99" type="line"/>
      <point x="900" y="473" type="line"/>
      <point x="1007" y="473" type="line"/>
      <point x="1007" y="0" type="line"/>
    </contour>
    <contour>
      <point x="537" y="410" type="curve" smooth="yes"/>
      <point x="536" y="514"/>
      <point x="603" y="570"/>
      <point x="678" y="570" type="curve" smooth="yes"/>
      <point x="801" y="570"/>
      <point x="821" y="480"/>
      <point x="820" y="415" type="curve"/>
      <point x="713" y="394" type="line"/>
      <point x="712" y="446"/>
      <point x="706" y="473"/>
      <point x="680" y="472" type="curve" smooth="yes"/>
      <point x="659" y="472"/>
      <point x="640.104" y="449.002"/>
      <point x="640" y="406" type="curve" smooth="yes"/>
      <point x="639.884" y="357.99"/>
      <point x="652" y="256"/>
      <point x="770" y="256" type="curve" smooth="yes"/>
      <point x="876.167" y="256"/>
      <point x="898.917" y="308.426"/>
      <point x="900" y="379" type="curve" smooth="yes"/>
      <point x="955" y="376" type="line" smooth="yes"/>
      <point x="955" y="271.382"/>
      <point x="916.232" y="163"/>
      <point x="766" y="163" type="curve" smooth="yes"/>
      <point x="648" y="163"/>
      <point x="538.636" y="239.848"/>
    </contour>
    <contour>
      <point x="713" y="-146" type="line"/>
      <point x="713" y="398" type="line"/>
      <point x="820" y="418" type="line"/>
      <point x="820" y="-146" type="line"/>
    </contour>
  </outline>
</glyph>
<glyph name="tml_Sa" format="1">
  <advance width="1024"/>
  <unicode hex="0BB8"/>
  <outline>
    <contour>
      <point x="984" y="151"/>
      <point x="966" y="-23"/>
      <point x="810" y="-23" type="curve" smooth="yes"/>
      <point x="665" y="-23"/>
      <point x="654" y="74"/>
      <point x="654" y="180" type="curve" smooth="yes"/>
      <point x="654" y="385" type="line" smooth="yes"/>
      <point x="653" y="445"/>
      <point x="625" y="477"/>
      <point x="592" y="477" type="curve" smooth="yes"/>
      <point x="546" y="477"/>
      <point x="523" y="404"/>
      <point x="523" y="338" type="curve"/>
      <point x="451" y="358" type="line"/>
      <point x="451" y="461"/>
      <point x="485" y="574"/>
      <point x="592" y="574" type="curve" smooth="yes"/>
      <point x="716" y="574"/>
      <point x="756" y="487"/>
      <point x="756" y="382" type="curve" smooth="yes"/>
      <point x="756" y="171" type="line" smooth="yes"/>
      <point x="756" y="116"/>
      <point x="758" y="75"/>
      <point x="810" y="75" type="curve" smooth="yes"/>
      <point x="871" y="75"/>
      <point x="878" y="161"/>
      <point x="878" y="256" type="curve" smooth="yes"/>
      <point x="878" y="445"/>
      <point x="789" y="530"/>
      <point x="789" y="530" type="curve"/>
      <point x="876" y="584" type="line"/>
      <point x="931" y="525"/>
      <point x="984" y="401"/>
      <point x="984" y="255" type="curve" smooth="yes"/>
    </contour>
    <contour>
      <point x="50" y="245" type="curve" smooth="yes"/>
      <point x="50" y="450"/>
      <point x="139" y="573"/>
      <point x="302" y="573" type="curve" smooth="yes"/>
      <point x="407" y="573"/>
      <point x="524" y="492"/>
      <point x="524" y="340" type="curve" smooth="yes"/>
      <point x="524" y="322"/>
      <point x="524" y="41"/>
      <point x="524" y="0" type="curve"/>
      <point x="423" y="1" type="line"/>
      <point x="423" y="35"/>
      <point x="423" y="328"/>
      <point x="423" y="339" type="curve" smooth="yes"/>
      <point x="423" y="427"/>
      <point x="367" y="476"/>
      <point x="302" y="476" type="curve" smooth="yes"/>
      <point x="196" y="476"/>
      <point x="152" y="378"/>
      <point x="152" y="255" type="curve" smooth="yes"/>
      <point x="152" y="158"/>
      <point x="169" y="74"/>
      <point x="217" y="74" type="curve" smooth="yes"/>
      <point x="263" y="74"/>
      <point x="272" y="139"/>
      <point x="272" y="178" type="curve" smooth="yes"/>
      <point x="272" y="246"/>
      <point x="244" y="281"/>
      <point x="218" y="281" type="curve" smooth="yes"/>
      <point x="175" y="281"/>
      <point x="155" y="235"/>
      <point x="158" y="167" type="curve"/>
      <point x="99" y="196" type="line"/>
      <point x="99" y="259"/>
      <point x="142" y="362"/>
      <point x="227" y="362" type="curve" smooth="yes"/>
      <point x="302" y="362"/>
      <point x="370" y="297"/>
      <point x="370" y="174" type="curve" smooth="yes"/>
      <point x="370" y="53"/>
      <point x="313" y="-24"/>
      <point x="217" y="-24" type="curve" smooth="yes"/>
      <point x="112" y="-24"/>
      <point x="50" y="90"/>
    </contour>
    <contour>
      <point x="1120" y="0" type="move" name="Anchor2"/>
    </contour>
    <contour>
      <point x="538" y="0" type="move" name="Anchor0"/>
    </contour>
    <contour>
      <point x="465" y="0" type="move" name="tml_virama"/>
    </contour>
  </outline>
</glyph>
<glyph name="tml_MatraAa" format="1">
  <advance width="484"/>
  <unicode hex="0BBE"/>
  <outline>
    <contour>
      <point x="100" y="0" type="move" name="Anchor1"/>
    </contour>
    <contour>
      <point x="251" y="0" type="move" name="Anchor0"/>
    </contour>
    <contour>
      <point x="49" y="1" type="line"/>
      <point x="49" y="560" type="line"/>
      <point x="488" y="560" type="line"/>
      <point x="488" y="462" type="line"/>
      <point x="385" y="462" type="line"/>
      <point x="385" y="1" type="line"/>
      <point x="277" y="1" type="line"/>
      <point x="277" y="462" type="line"/>
      <point x="156" y="462" type="line"/>
      <point x="156" y="1" type="line"/>
    </contour>
  </outline>
</glyph>
<glyph name="tml_MatraIi" format="1">
  <advance width="419"/>
  <unicode hex="0BC0"/>
  <outline>
    <contour>
      <point x="205" y="0" type="move" name="_Anchor1"/>
    </contour>
    <contour>
      <point x="18" y="666" type="curve" smooth="yes"/>
      <point x="18.3135" y="833.059"/>
      <point x="138.246" y="902.638"/>
      <point x="251" y="902" type="curve" smooth="yes"/>
      <point x="353.021" y="901.423"/>
      <point x="401" y="829.815"/>
      <point x="401" y="738" type="curve" smooth="yes"/>
      <point x="401" y="615.784"/>
      <point x="331" y="590.179"/>
      <point x="277" y="590.179" type="curve" smooth="yes"/>
      <point x="208.999" y="590.179"/>
      <point x="152.671" y="628.895"/>
      <point x="152.196" y="728" type="curve" smooth="yes"/>
      <point x="151.864" y="797.399"/>
      <point x="203" y="855"/>
      <point x="240" y="881" type="curve"/>
      <point x="276" y="806" type="line"/>
      <point x="250" y="806"/>
      <point x="234.017" y="767.833"/>
      <point x="234" y="736" type="curve" smooth="yes"/>
      <point x="233.973" y="683.753"/>
      <point x="252.643" y="663.718"/>
      <point x="278" y="663.718" type="curve" smooth="yes"/>
      <point x="304" y="663.718"/>
      <point x="317" y="693.185"/>
      <point x="317" y="738" type="curve" smooth="yes"/>
      <point x="317" y="764"/>
      <point x="310.667" y="805.967"/>
      <point x="275" y="806" type="curve" smooth="yes"/>
      <point x="178.753" y="806.09"/>
      <point x="121.673" y="762.704"/>
      <point x="122" y="665" type="curve" smooth="yes"/>
      <point x="122.217" y="600.278"/>
      <point x="153.195" y="561.195"/>
      <point x="197" y="560" type="curve" smooth="yes"/>
      <point x="197" y="467" type="line" smooth="yes"/>
      <point x="130.444" y="467"/>
      <point x="17.7236" y="518.885"/>
    </contour>
  </outline>
</glyph>
<glyph name="tml_MatraU" format="1">
  <advance width="388"/>
  <unicode hex="0BC1"/>
  <outline>
    <contour>
      <point x="303" y="211"/>
      <point x="358" y="272"/>
      <point x="358" y="385" type="curve" smooth="yes"/>
      <point x="358" y="529"/>
      <point x="268" y="560"/>
      <point x="197" y="560" type="curve" smooth="yes"/>
      <point x="-161" y="560" type="line"/>
      <point x="-161" y="462" type="line"/>
      <point x="205" y="462" type="line" smooth="yes"/>
      <point x="219" y="462"/>
      <point x="248" y="448"/>
      <point x="248" y="385" type="curve" smooth="yes"/>
      <point x="248" y="348"/>
      <point x="238" y="307"/>
      <point x="206" y="307" type="curve" smooth="yes"/>
      <point x="173" y="307"/>
      <point x="162" y="350"/>
      <point x="162" y="383" type="curve" smooth="yes"/>
      <point x="162" y="419"/>
      <point x="175" y="462"/>
      <point x="207" y="462" type="curve"/>
      <point x="212" y="522" type="line"/>
      <point x="122" y="522"/>
      <point x="63" y="472"/>
      <point x="63" y="373" type="curve" smooth="yes"/>
      <point x="63" y="282"/>
      <point x="112" y="211"/>
      <point x="211" y="211" type="curve" smooth="yes"/>
    </contour>
  </outline>
</glyph>
<glyph name="tml_MatraUu" format="1">
  <advance width="549"/>
  <unicode hex="0BC2"/>
  <outline>
    <contour>
      <point x="175" y="550" type="line"/>
      <point x="222" y="550"/>
      <point x="348" y="526"/>
      <point x="348" y="385" type="curve" smooth="yes"/>
      <point x="348" y="276"/>
      <point x="291" y="218"/>
      <point x="199" y="218" type="curve" smooth="yes"/>
      <point x="94" y="218"/>
      <point x="43" y="293"/>
      <point x="43" y="397" type="curve" smooth="yes"/>
      <point x="43" y="538"/>
      <point x="138" y="645"/>
      <point x="281" y="645" type="curve" smooth="yes"/>
      <point x="439" y="645"/>
      <point x="504" y="523"/>
      <point x="504" y="414" type="curve" smooth="yes"/>
      <point x="504" y="296"/>
      <point x="445" y="196"/>
      <point x="445" y="196" type="curve"/>
      <point x="363" y="230" type="line"/>
      <point x="363" y="230"/>
      <point x="414" y="315"/>
      <point x="414" y="402" type="curve" smooth="yes"/>
      <point x="414" y="491"/>
      <point x="360" y="562"/>
      <point x="284" y="562" type="curve" smooth="yes"/>
      <point x="197" y="562"/>
      <point x="143" y="470"/>
      <point x="143" y="392" type="curve" smooth="yes"/>
      <point x="143" y="351"/>
      <point x="164" y="316"/>
      <point x="200" y="316" type="curve" smooth="yes"/>
      <point x="226" y="316"/>
      <point x="241" y="344"/>
      <point x="241" y="385" type="curve" smooth="yes"/>
      <point x="241" y="433"/>
      <point x="218" y="462"/>
      <point x="162" y="462" type="curve" smooth="yes"/>
      <point x="-181" y="462" type="line"/>
      <point x="-181" y="560" type="line"/>
      <point x="134" y="560" type="line"/>
    </contour>
    <contour>
      <point x="-181" y="560" type="move" name="_MatraUu"/>
    </contour>
  </outline>
</glyph>
<glyph name="tml_MatraE" format="1">
  <advance width="611"/>
  <unicode hex="0BC6"/>
  <outline>
    <contour>
      <point x="48" y="304" type="curve" smooth="yes"/>
      <point x="48" y="626.422"/>
      <point x="197.001" y="804.852"/>
      <point x="336" y="806" type="curve" smooth="yes"/>
      <point x="473.999" y="807.072"/>
      <point x="546.332" y="718.998"/>
      <point x="547" y="539" type="curve" smooth="yes"/>
      <point x="549" y="0" type="line" smooth="yes"/>
      <point x="441" y="0" type="line" smooth="yes"/>
      <point x="440" y="539" type="line" smooth="yes"/>
      <point x="439.807" y="643"/>
      <point x="413" y="698"/>
      <point x="332" y="698" type="curve" smooth="yes"/>
      <point x="236.661" y="698"/>
      <point x="149" y="523"/>
      <point x="149" y="320" type="curve" smooth="yes"/>
      <point x="149" y="270.388"/>
      <point x="163" y="218.696"/>
      <point x="163" y="170" type="curve" smooth="yes"/>
      <point x="163" y="139.31"/>
      <point x="174.132" y="69"/>
      <point x="218" y="69" type="curve" smooth="yes"/>
      <point x="264" y="69"/>
      <point x="272" y="134"/>
      <point x="272" y="173" type="curve" smooth="yes"/>
      <point x="272" y="241.215"/>
      <point x="244.491" y="277"/>
      <point x="218" y="277" type="curve" smooth="yes"/>
      <point x="181.001" y="277"/>
      <point x="163" y="238.011"/>
      <point x="163" y="171" type="curve"/>
      <point x="104" y="192" type="line"/>
      <point x="104" y="274"/>
      <point x="147.275" y="357"/>
      <point x="228" y="357" type="curve" smooth="yes"/>
      <point x="293.32" y="357"/>
      <point x="370" y="303.843"/>
      <point x="370" y="170" type="curve" smooth="yes"/>
      <point x="370" y="49"/>
      <point x="313.487" y="-29"/>
      <point x="218" y="-29" type="curve" smooth="yes"/>
      <point x="89.76" y="-29"/>
      <point x="48" y="120.416"/>
    </contour>
  </outline>
</glyph>
<glyph name="tml_MatraEe" format="1">
  <advance width="488"/>
  <unicode hex="0BC7"/>
  <outline>
    <contour>
      <point x="294" y="69" type="curve" smooth="yes"/>
      <point x="337" y="69"/>
      <point x="344" y="133"/>
      <point x="344" y="168" type="curve" smooth="yes"/>
      <point x="344" y="238"/>
      <point x="322" y="271"/>
      <point x="294" y="271" type="curve" smooth="yes"/>
      <point x="268" y="271"/>
      <point x="247" y="227"/>
      <point x="247" y="168" type="curve" smooth="yes"/>
      <point x="247" y="141"/>
      <point x="256" y="70"/>
      <point x="293" y="70" type="curve"/>
      <point x="228" y="12" type="line"/>
      <point x="177" y="72"/>
      <point x="158" y="115"/>
      <point x="158" y="154" type="curve" smooth="yes"/>
      <point x="158" y="303"/>
      <point x="224" y="367"/>
      <point x="300" y="367" type="curve" smooth="yes"/>
      <point x="369" y="367"/>
      <point x="448" y="309"/>
      <point x="448" y="168" type="curve" smooth="yes"/>
      <point x="448" y="47"/>
      <point x="389" y="-29"/>
      <point x="290" y="-29" type="curve" smooth="yes"/>
      <point x="58" y="-29"/>
      <point x="30" y="211"/>
      <point x="30" y="378" type="curve" smooth="yes"/>
      <point x="30" y="623"/>
      <point x="126" y="807"/>
      <point x="289" y="807" type="curve" smooth="yes"/>
      <point x="387" y="807"/>
      <point x="448" y="728"/>
      <point x="448" y="607" type="curve" smooth="yes"/>
      <point x="448" y="466"/>
      <point x="366" y="411"/>
      <point x="297" y="411" type="curve" smooth="yes"/>
      <point x="214" y="411"/>
      <point x="161" y="502"/>
      <point x="161" y="608" type="curve" smooth="yes"/>
      <point x="161" y="655"/>
      <point x="188" y="733"/>
      <point x="198" y="761" type="curve"/>
      <point x="292" y="709" type="line"/>
      <point x="292" y="709"/>
      <point x="244" y="701"/>
      <point x="244" y="607" type="curve" smooth="yes"/>
      <point x="244" y="544"/>
      <point x="274" y="511"/>
      <point x="296" y="511" type="curve" smooth="yes"/>
      <point x="322" y="511"/>
      <point x="348" y="543"/>
      <point x="348" y="604" type="curve" smooth="yes"/>
      <point x="348" y="643"/>
      <point x="340" y="708"/>
      <point x="294" y="708" type="curve" smooth="yes"/>
      <point x="217" y="708"/>
      <point x="132" y="520"/>
      <point x="132" y="378" type="curve" smooth="yes"/>
      <point x="132" y="255"/>
      <point x="135" y="69"/>
    </contour>
  </outline>
</glyph>
<glyph name="tml_MatraAi" format="1">
  <advance width="996"/>
  <unicode hex="0BC8"/>
<<<<<<< HEAD
=======
  <outline>
    <contour>
      <point x="887" y="0"/>
      <point x="956" y="94"/>
      <point x="956" y="247" type="curve" smooth="yes"/>
      <point x="956" y="495"/>
      <point x="831" y="572"/>
      <point x="689" y="572" type="curve" smooth="yes"/>
      <point x="471" y="572"/>
      <point x="370" y="401"/>
      <point x="370" y="206" type="curve" smooth="yes"/>
      <point x="370" y="57"/>
      <point x="434" y="-23"/>
      <point x="528" y="-23" type="curve" smooth="yes"/>
      <point x="620" y="-23"/>
      <point x="688" y="52"/>
      <point x="688" y="200" type="curve" smooth="yes"/>
      <point x="688" y="510"/>
      <point x="449" y="570"/>
      <point x="341" y="570" type="curve" smooth="yes"/>
      <point x="212" y="570"/>
      <point x="30" y="483"/>
      <point x="30" y="236" type="curve" smooth="yes"/>
      <point x="30" y="91"/>
      <point x="92" y="-24"/>
      <point x="201" y="-24" type="curve" smooth="yes"/>
      <point x="288" y="-24"/>
      <point x="348" y="50"/>
      <point x="348" y="171" type="curve" smooth="yes"/>
      <point x="348" y="298"/>
      <point x="282" y="362"/>
      <point x="210" y="362" type="curve" smooth="yes"/>
      <point x="124" y="362"/>
      <point x="82" y="269"/>
      <point x="82" y="196" type="curve"/>
      <point x="135" y="167" type="line"/>
      <point x="131" y="234"/>
      <point x="158" y="281"/>
      <point x="195" y="281" type="curve" smooth="yes"/>
      <point x="230" y="281"/>
      <point x="252" y="238"/>
      <point x="252" y="179" type="curve" smooth="yes"/>
      <point x="252" y="139"/>
      <point x="242" y="64"/>
      <point x="199" y="64" type="curve" smooth="yes"/>
      <point x="140" y="64"/>
      <point x="132" y="165"/>
      <point x="132" y="233" type="curve" smooth="yes"/>
      <point x="132" y="418"/>
      <point x="258" y="473"/>
      <point x="332" y="474" type="curve" smooth="yes"/>
      <point x="455" y="476"/>
      <point x="580" y="397"/>
      <point x="580" y="194" type="curve" smooth="yes"/>
      <point x="580" y="124"/>
      <point x="567" y="65"/>
      <point x="528" y="65" type="curve" smooth="yes"/>
      <point x="492" y="65"/>
      <point x="475" y="123"/>
      <point x="475" y="199" type="curve" smooth="yes"/>
      <point x="475" y="327"/>
      <point x="524" y="474"/>
      <point x="689" y="474" type="curve" smooth="yes"/>
      <point x="785" y="474"/>
      <point x="848" y="394"/>
      <point x="848" y="249" type="curve" smooth="yes"/>
      <point x="848" y="177"/>
      <point x="814" y="92"/>
      <point x="746" y="86" type="curve"/>
      <point x="760" y="-16" type="line"/>
    </contour>
  </outline>
>>>>>>> remotes/origin/tamil-dev
</glyph>
<glyph name="tml_Virama" format="1">
  <advance width="0"/>
  <unicode hex="0BCD"/>
  <outline>
    <contour>
      <point x="0" y="0" type="move" name="_virama"/>
    </contour>
    <contour>
      <point x="-40" y="636"/>
      <point x="-74" y="670"/>
      <point x="-74" y="710" type="curve" smooth="yes"/>
      <point x="-74" y="750"/>
      <point x="-40" y="784"/>
      <point x="0" y="784" type="curve" smooth="yes"/>
      <point x="40" y="784"/>
      <point x="74" y="750"/>
      <point x="74" y="710" type="curve" smooth="yes"/>
      <point x="74" y="670"/>
      <point x="40" y="636"/>
      <point x="0" y="636" type="curve" smooth="yes"/>
    </contour>
  </outline>
</glyph>
<glyph name="tml_Om" format="1">
  <advance width="683"/>
  <unicode hex="0BD0"/>
  <outline>
    <contour>
      <point x="573" y="152"/>
      <point x="643" y="235"/>
      <point x="643" y="350" type="curve" smooth="yes"/>
      <point x="643" y="501"/>
      <point x="517" y="610"/>
      <point x="354" y="610" type="curve" smooth="yes"/>
      <point x="158" y="610"/>
      <point x="41" y="483"/>
      <point x="41" y="307" type="curve" smooth="yes"/>
      <point x="41" y="214"/>
      <point x="92" y="146"/>
      <point x="176" y="146" type="curve" smooth="yes"/>
      <point x="256" y="146"/>
      <point x="303" y="204"/>
      <point x="303" y="285" type="curve" smooth="yes"/>
      <point x="303" y="364"/>
      <point x="262" y="422"/>
      <point x="192" y="422" type="curve" smooth="yes"/>
      <point x="118" y="422"/>
      <point x="74" y="369"/>
      <point x="74" y="296" type="curve"/>
      <point x="132" y="290" type="line"/>
      <point x="133" y="321"/>
      <point x="146" y="343"/>
      <point x="176" y="343" type="curve" smooth="yes"/>
      <point x="207" y="343"/>
      <point x="219" y="320"/>
      <point x="219" y="289" type="curve" smooth="yes"/>
      <point x="219" y="255"/>
      <point x="206" y="231"/>
      <point x="174" y="231" type="curve" smooth="yes"/>
      <point x="144" y="231"/>
      <point x="132" y="260"/>
      <point x="132" y="300" type="curve" smooth="yes"/>
      <point x="132" y="423"/>
      <point x="211" y="512"/>
      <point x="354" y="512" type="curve" smooth="yes"/>
      <point x="458" y="512"/>
      <point x="541" y="442"/>
      <point x="541" y="345" type="curve" smooth="yes"/>
      <point x="541" y="286"/>
      <point x="514" y="243"/>
      <point x="477" y="243" type="curve" smooth="yes"/>
      <point x="444" y="243"/>
      <point x="436" y="269"/>
      <point x="436" y="299" type="curve"/>
      <point x="337" y="299" type="line"/>
      <point x="337" y="230"/>
      <point x="389" y="152"/>
      <point x="476" y="152" type="curve" smooth="yes"/>
    </contour>
    <contour>
      <point x="442" y="-164"/>
      <point x="515" y="-89"/>
      <point x="528" y="15" type="curve"/>
      <point x="491" y="12" type="line"/>
      <point x="607" y="12" type="line"/>
      <point x="607" y="98" type="line"/>
      <point x="486" y="98" type="line" smooth="yes"/>
      <point x="451" y="98"/>
      <point x="434" y="109"/>
      <point x="434" y="159" type="curve" smooth="yes"/>
      <point x="434" y="299" type="line"/>
      <point x="337" y="299" type="line"/>
      <point x="337" y="160" type="line" smooth="yes"/>
      <point x="337" y="73"/>
      <point x="387" y="14"/>
      <point x="461" y="14" type="curve"/>
      <point x="435" y="62" type="line"/>
      <point x="428" y="-10"/>
      <point x="408" y="-63"/>
      <point x="338" y="-63" type="curve" smooth="yes"/>
      <point x="285" y="-63"/>
      <point x="247" y="-27"/>
      <point x="247" y="23" type="curve"/>
      <point x="148" y="23" type="line"/>
      <point x="148" y="-85"/>
      <point x="225" y="-164"/>
      <point x="332" y="-164" type="curve" smooth="yes"/>
    </contour>
    <contour>
      <point x="309" y="-41" type="line"/>
      <point x="309" y="27" type="line"/>
      <point x="325" y="27" type="line"/>
      <point x="325" y="-26" type="line"/>
      <point x="350" y="-26" type="line"/>
      <point x="352" y="-41" type="line"/>
    </contour>
    <contour>
      <point x="337" y="-30" type="line"/>
      <point x="337" y="12" type="line" smooth="yes"/>
      <point x="337" y="23"/>
      <point x="342" y="29"/>
      <point x="353" y="29" type="curve" smooth="yes"/>
      <point x="372" y="29"/>
      <point x="381" y="12"/>
      <point x="381" y="-3" type="curve" smooth="yes"/>
      <point x="381" y="-24"/>
      <point x="369" y="-41"/>
      <point x="352" y="-41" type="curve"/>
      <point x="349" y="-26" type="line"/>
      <point x="362" y="-26"/>
      <point x="366" y="-13"/>
      <point x="366" y="-3" type="curve" smooth="yes"/>
      <point x="366" y="5"/>
      <point x="363" y="14"/>
      <point x="356" y="14" type="curve" smooth="yes"/>
      <point x="353" y="14"/>
      <point x="352" y="11"/>
      <point x="352" y="7" type="curve" smooth="yes"/>
      <point x="352" y="-30" type="line"/>
    </contour>
    <contour>
      <point x="345" y="35"/>
      <point x="350" y="39"/>
      <point x="350" y="45" type="curve" smooth="yes"/>
      <point x="350" y="51"/>
      <point x="345" y="56"/>
      <point x="339" y="56" type="curve" smooth="yes"/>
      <point x="333" y="56"/>
      <point x="329" y="51"/>
      <point x="329" y="45" type="curve" smooth="yes"/>
      <point x="329" y="39"/>
      <point x="333" y="35"/>
      <point x="339" y="35" type="curve" smooth="yes"/>
    </contour>
  </outline>
</glyph>
<glyph name="tml_Zero" format="1">
  <advance width="498"/>
  <unicode hex="0BE6"/>
  <outline>
    <contour>
      <point x="246" y="-5" type="curve" smooth="yes"/>
      <point x="379" y="-5"/>
      <point x="456" y="95"/>
      <point x="456" y="203" type="curve" smooth="yes"/>
      <point x="456" y="314"/>
      <point x="374" y="409"/>
      <point x="249" y="409" type="curve" smooth="yes"/>
      <point x="134" y="409"/>
      <point x="42" y="328"/>
      <point x="42" y="199" type="curve" smooth="yes"/>
      <point x="42" y="72"/>
      <point x="130" y="-5"/>
    </contour>
    <contour>
      <point x="250" y="89" type="curve" smooth="yes"/>
      <point x="170" y="89"/>
      <point x="131" y="149"/>
      <point x="131" y="201" type="curve" smooth="yes"/>
      <point x="131" y="260"/>
      <point x="181" y="312"/>
      <point x="251" y="312" type="curve" smooth="yes"/>
      <point x="320" y="312"/>
      <point x="366" y="262"/>
      <point x="366" y="201" type="curve" smooth="yes"/>
      <point x="366" y="147"/>
      <point x="329" y="89"/>
    </contour>
  </outline>
</glyph>
<glyph name="tml_Two" format="1">
  <advance width="644"/>
  <unicode hex="0BE8"/>
  <outline>
    <contour>
      <point x="176" y="1" type="line"/>
      <point x="81" y="-1"/>
      <point x="35" y="42"/>
      <point x="36" y="113" type="curve" smooth="yes"/>
      <point x="36" y="181"/>
      <point x="105" y="217"/>
      <point x="164" y="217" type="curve" smooth="yes"/>
      <point x="224" y="217" type="line"/>
      <point x="308" y="219"/>
      <point x="357" y="302"/>
      <point x="357" y="376" type="curve" smooth="yes"/>
      <point x="357" y="447"/>
      <point x="310" y="522"/>
      <point x="227" y="522" type="curve" smooth="yes"/>
      <point x="138" y="522"/>
      <point x="117" y="424"/>
      <point x="117" y="385" type="curve" smooth="yes"/>
      <point x="117" y="352"/>
      <point x="135" y="323"/>
      <point x="163" y="323" type="curve" smooth="yes"/>
      <point x="201" y="323"/>
      <point x="209" y="363"/>
      <point x="209" y="388" type="curve" smooth="yes"/>
      <point x="209" y="416"/>
      <point x="192" y="445"/>
      <point x="161" y="445" type="curve" smooth="yes"/>
      <point x="134" y="445"/>
      <point x="117" y="414"/>
      <point x="117" y="385" type="curve"/>
      <point x="63" y="397" type="line"/>
      <point x="63" y="436"/>
      <point x="102" y="506"/>
      <point x="171" y="506" type="curve" smooth="yes"/>
      <point x="212" y="506"/>
      <point x="288" y="478"/>
      <point x="288" y="385" type="curve" smooth="yes"/>
      <point x="288" y="301"/>
      <point x="242" y="247"/>
      <point x="164" y="247" type="curve" smooth="yes"/>
      <point x="80" y="247"/>
      <point x="30" y="313"/>
      <point x="30" y="402" type="curve" smooth="yes"/>
      <point x="30" y="519"/>
      <point x="116" y="596"/>
      <point x="235" y="597" type="curve" smooth="yes"/>
      <point x="370" y="598"/>
      <point x="446" y="498"/>
      <point x="446" y="372" type="curve" smooth="yes"/>
      <point x="445" y="242"/>
      <point x="370" y="138"/>
      <point x="217" y="135" type="curve"/>
      <point x="148" y="134" type="line" smooth="yes"/>
      <point x="138" y="134"/>
      <point x="129" y="128"/>
      <point x="129" y="116" type="curve" smooth="yes"/>
      <point x="129" y="102"/>
      <point x="144" y="99"/>
      <point x="159" y="99" type="curve"/>
    </contour>
    <contour>
      <point x="634" y="99" type="line"/>
      <point x="634" y="1" type="line"/>
      <point x="167" y="1" type="line"/>
      <point x="153" y="99" type="line"/>
    </contour>
  </outline>
</glyph>
<glyph name="tml_Three" format="1">
  <advance width="767"/>
  <unicode hex="0BE9"/>
  <outline>
    <contour>
      <point x="60" y="0" type="line"/>
      <point x="60" y="560" type="line"/>
      <point x="470" y="560" type="line"/>
      <point x="470" y="462" type="line"/>
      <point x="368" y="462" type="line"/>
      <point x="368" y="164" type="line"/>
      <point x="260" y="164" type="line"/>
      <point x="260" y="462" type="line"/>
      <point x="167" y="462" type="line"/>
      <point x="167" y="0" type="line"/>
    </contour>
    <contour>
      <point x="258" y="98" type="line"/>
      <point x="727" y="97" type="line"/>
      <point x="727" y="-2" type="line"/>
      <point x="258" y="-1" type="line"/>
    </contour>
    <contour>
      <point x="328" y="98" type="line"/>
      <point x="445" y="98"/>
      <point x="473" y="187"/>
      <point x="473" y="240" type="curve" smooth="yes"/>
      <point x="473" y="283"/>
      <point x="454" y="317"/>
      <point x="417" y="317" type="curve" smooth="yes"/>
      <point x="378" y="317"/>
      <point x="368" y="279"/>
      <point x="368" y="254" type="curve"/>
      <point x="319" y="285" type="line"/>
      <point x="319" y="358"/>
      <point x="370" y="408"/>
      <point x="443" y="408" type="curve" smooth="yes"/>
      <point x="521" y="408"/>
      <point x="578" y="352"/>
      <point x="578" y="257" type="curve" smooth="yes"/>
      <point x="578" y="136"/>
      <point x="484" y="22"/>
      <point x="337" y="22" type="curve"/>
    </contour>
  </outline>
</glyph>
<glyph name="tml_Four" format="1">
  <advance width="731"/>
  <unicode hex="0BEA"/>
  <outline>
    <contour>
      <point x="598" y="341" type="line"/>
      <point x="598" y="560" type="line"/>
      <point x="689" y="560" type="line"/>
      <point x="689" y="243" type="line"/>
      <point x="471" y="243" type="line"/>
      <point x="471" y="341" type="line"/>
    </contour>
    <component base="tml_Ca" xOffset="12"/>
  </outline>
</glyph>
<glyph name="tml_Five" format="1">
  <advance width="1175"/>
  <unicode hex="0BEB"/>
  <outline>
    <contour>
      <point x="339" y="0" type="line"/>
      <point x="339" y="560" type="line"/>
      <point x="808" y="560" type="line"/>
      <point x="808" y="462" type="line"/>
      <point x="705" y="462" type="line"/>
      <point x="705" y="0" type="line"/>
      <point x="597" y="0" type="line"/>
      <point x="597" y="462" type="line"/>
      <point x="446" y="462" type="line"/>
      <point x="446" y="0" type="line"/>
    </contour>
    <contour>
      <point x="914" y="799"/>
      <point x="1115" y="601"/>
      <point x="1115" y="316" type="curve" smooth="yes"/>
      <point x="1115" y="-1" type="line"/>
      <point x="1003" y="-1" type="line"/>
      <point x="1003" y="281" type="line" smooth="yes"/>
      <point x="1003" y="557"/>
      <point x="812" y="694"/>
      <point x="579" y="694" type="curve" smooth="yes"/>
      <point x="366" y="694"/>
      <point x="161" y="569"/>
      <point x="161" y="244" type="curve" smooth="yes"/>
      <point x="161" y="20"/>
      <point x="292" y="-161"/>
      <point x="531" y="-160" type="curve" smooth="yes"/>
      <point x="739" y="-159"/>
      <point x="824" y="-54"/>
      <point x="824" y="134" type="curve" smooth="yes"/>
      <point x="824" y="213"/>
      <point x="797" y="267"/>
      <point x="756" y="267" type="curve" smooth="yes"/>
      <point x="714" y="267"/>
      <point x="705" y="229"/>
      <point x="705" y="204" type="curve"/>
      <point x="656" y="235" type="line" smooth="yes"/>
      <point x="656" y="308"/>
      <point x="704" y="358"/>
      <point x="768" y="358" type="curve" smooth="yes"/>
      <point x="862" y="358"/>
      <point x="926" y="280"/>
      <point x="926" y="131" type="curve" smooth="yes"/>
      <point x="926" y="-117"/>
      <point x="798" y="-266"/>
      <point x="520" y="-265" type="curve" smooth="yes"/>
      <point x="225" y="-264"/>
      <point x="42" y="-47"/>
      <point x="42" y="247" type="curve" smooth="yes"/>
      <point x="42" y="568"/>
      <point x="247" y="803"/>
      <point x="573" y="801" type="curve" smooth="yes"/>
    </contour>
  </outline>
</glyph>
<glyph name="tml_Six" format="1">
  <advance width="921"/>
  <unicode hex="0BEC"/>
  <outline>
    <contour>
      <point x="229" y="-13" type="curve" smooth="yes"/>
      <point x="94" y="-13"/>
      <point x="42" y="75"/>
      <point x="42" y="172" type="curve" smooth="yes"/>
      <point x="42" y="271"/>
      <point x="106" y="341"/>
      <point x="224" y="341" type="curve" smooth="yes"/>
      <point x="450" y="341" type="line" smooth="yes"/>
      <point x="548" y="341"/>
      <point x="587" y="240"/>
      <point x="587" y="204" type="curve"/>
      <point x="490" y="180" type="line"/>
      <point x="490" y="212"/>
      <point x="481" y="244"/>
      <point x="450" y="244" type="curve" smooth="yes"/>
      <point x="224" y="244" type="line" smooth="yes"/>
      <point x="171" y="244"/>
      <point x="142" y="212"/>
      <point x="142" y="167" type="curve" smooth="yes"/>
      <point x="142" y="124"/>
      <point x="178" y="85"/>
      <point x="229" y="85" type="curve" smooth="yes"/>
      <point x="294" y="85"/>
      <point x="320" y="140"/>
      <point x="320" y="207" type="curve" smooth="yes"/>
      <point x="320" y="289" type="line"/>
      <point x="330" y="301" type="line"/>
      <point x="330" y="461" type="line"/>
      <point x="235" y="461" type="line"/>
      <point x="235" y="309" type="line"/>
      <point x="151" y="309" type="line"/>
      <point x="151" y="560" type="line"/>
      <point x="530" y="560" type="line"/>
      <point x="530" y="461" type="line"/>
      <point x="427" y="461" type="line"/>
      <point x="427" y="207" type="line" smooth="yes"/>
      <point x="427" y="103"/>
      <point x="387" y="-13"/>
    </contour>
    <contour>
      <point x="490" y="0" type="line"/>
      <point x="490" y="183" type="line" smooth="yes"/>
      <point x="490" y="265"/>
      <point x="541" y="341"/>
      <point x="662" y="341" type="curve" smooth="yes"/>
      <point x="879" y="341" type="line"/>
      <point x="879" y="244" type="line"/>
      <point x="779" y="244" type="line"/>
      <point x="779" y="0" type="line"/>
      <point x="682" y="0" type="line"/>
      <point x="682" y="245" type="line"/>
      <point x="636" y="245"/>
      <point x="587" y="234"/>
      <point x="587" y="164" type="curve" smooth="yes"/>
      <point x="587" y="0" type="line"/>
    </contour>
  </outline>
</glyph>
<glyph name="tml_Seven" format="1">
  <advance width="593"/>
  <unicode hex="0BED"/>
  <outline>
    <contour>
      <point x="209" y="-24" type="curve" smooth="yes"/>
      <point x="104" y="-24"/>
      <point x="42" y="90"/>
      <point x="42" y="245" type="curve" smooth="yes"/>
      <point x="42" y="442"/>
      <point x="135" y="560"/>
      <point x="291" y="560" type="curve"/>
      <point x="533" y="560" type="line"/>
      <point x="533" y="1" type="line"/>
      <point x="426" y="1" type="line"/>
      <point x="426" y="462" type="line"/>
      <point x="289" y="462" type="line"/>
      <point x="190" y="462"/>
      <point x="144" y="370"/>
      <point x="144" y="255" type="curve" smooth="yes"/>
      <point x="144" y="158"/>
      <point x="161" y="74"/>
      <point x="209" y="74" type="curve" smooth="yes"/>
      <point x="255" y="74"/>
      <point x="264" y="139"/>
      <point x="264" y="178" type="curve" smooth="yes"/>
      <point x="264" y="246"/>
      <point x="236" y="281"/>
      <point x="210" y="281" type="curve" smooth="yes"/>
      <point x="167" y="281"/>
      <point x="147" y="235"/>
      <point x="150" y="167" type="curve"/>
      <point x="94" y="196" type="line"/>
      <point x="94" y="269"/>
      <point x="137" y="362"/>
      <point x="221" y="362" type="curve" smooth="yes"/>
      <point x="294" y="362"/>
      <point x="360" y="297"/>
      <point x="360" y="174" type="curve" smooth="yes"/>
      <point x="360" y="53"/>
      <point x="303" y="-24"/>
    </contour>
  </outline>
</glyph>
<glyph name="tml_Nine" format="1">
  <advance width="969"/>
  <unicode hex="0BEF"/>
  <outline>
    <contour>
      <point x="535" y="341" type="line"/>
      <point x="712" y="351"/>
      <point x="752" y="223"/>
      <point x="752" y="144" type="curve" smooth="yes"/>
      <point x="752" y="50"/>
      <point x="697" y="-1"/>
      <point x="622" y="-1" type="curve" smooth="yes"/>
      <point x="551" y="-1"/>
      <point x="493" y="50"/>
      <point x="493" y="139" type="curve" smooth="yes"/>
      <point x="493" y="302"/>
      <point x="616" y="360"/>
      <point x="720" y="360" type="curve" smooth="yes"/>
      <point x="843" y="360"/>
      <point x="927" y="280"/>
      <point x="927" y="165" type="curve" smooth="yes"/>
      <point x="927" y="80"/>
      <point x="885" y="15"/>
      <point x="849" y="-14" type="curve"/>
      <point x="784" y="46" type="line"/>
      <point x="817" y="81"/>
      <point x="838" y="120"/>
      <point x="838" y="171" type="curve" smooth="yes"/>
      <point x="838" y="233"/>
      <point x="780" y="279"/>
      <point x="720" y="279" type="curve" smooth="yes"/>
      <point x="634" y="279"/>
      <point x="579" y="223"/>
      <point x="579" y="147" type="curve" smooth="yes"/>
      <point x="579" y="121"/>
      <point x="595" y="77"/>
      <point x="624" y="77" type="curve" smooth="yes"/>
      <point x="653" y="77"/>
      <point x="665" y="112"/>
      <point x="665" y="138" type="curve" smooth="yes"/>
      <point x="665" y="214"/>
      <point x="620" y="242"/>
      <point x="570" y="244" type="curve"/>
      <point x="442" y="244" type="line"/>
      <point x="429" y="341" type="line"/>
    </contour>
    <component base="tml_Ca" xOffset="12"/>
  </outline>
</glyph>
<glyph name="tml_Hundred" format="1">
  <advance width="768"/>
  <unicode hex="0BF1"/>
<<<<<<< HEAD
=======
  <outline>
    <contour>
      <point x="94" y="578"/>
      <point x="182" y="578" type="curve" smooth="yes"/>
      <point x="287" y="578"/>
      <point x="322" y="493"/>
      <point x="327" y="402" type="curve"/>
      <point x="271" y="383" type="line"/>
      <point x="271" y="440"/>
      <point x="246" y="478"/>
      <point x="203" y="478" type="curve" smooth="yes"/>
      <point x="169" y="478"/>
      <point x="137" y="454"/>
      <point x="137" y="394" type="curve" smooth="yes"/>
      <point x="137" y="1" type="line"/>
      <point x="30" y="1" type="line"/>
      <point x="30" y="429" type="line" smooth="yes"/>
      <point x="30" y="528"/>
    </contour>
    <contour>
      <point x="738" y="559" type="line"/>
      <point x="738" y="460" type="line"/>
      <point x="638" y="461" type="line"/>
      <point x="638" y="1" type="line"/>
      <point x="531" y="1" type="line"/>
      <point x="531" y="462" type="line"/>
      <point x="378" y="462" type="line"/>
      <point x="378" y="1" type="line"/>
      <point x="271" y="1" type="line"/>
      <point x="271" y="414" type="line"/>
      <point x="311" y="560" type="line"/>
      <point x="638" y="560" type="line"/>
    </contour>
  </outline>
>>>>>>> remotes/origin/tamil-dev
</glyph>
<glyph name="tml_Thousand" format="1">
  <advance width="925"/>
  <unicode hex="0BF2"/>
  <outline>
    <contour>
      <point x="586" y="-237" type="line"/>
      <point x="586" y="-221"/>
      <point x="577" y="-170"/>
      <point x="649" y="-170" type="curve"/>
      <point x="701" y="-170" type="line"/>
      <point x="830" y="-170"/>
      <point x="885" y="-75"/>
      <point x="885" y="21" type="curve" smooth="yes"/>
      <point x="885" y="208"/>
      <point x="730" y="205"/>
      <point x="671" y="205" type="curve"/>
      <point x="558" y="205" type="line"/>
      <point x="474" y="205"/>
      <point x="433" y="126"/>
      <point x="433" y="73" type="curve" smooth="yes"/>
      <point x="433" y="23"/>
      <point x="468" y="-51"/>
      <point x="575" y="-51" type="curve"/>
      <point x="691" y="-52"/>
      <point x="720" y="25"/>
      <point x="720" y="96" type="curve"/>
      <point x="721" y="246" type="line"/>
      <point x="622" y="246" type="line"/>
      <point x="622" y="102" type="line"/>
      <point x="622" y="62"/>
      <point x="614" y="36"/>
      <point x="574" y="36" type="curve" smooth="yes"/>
      <point x="546" y="36"/>
      <point x="527" y="52"/>
      <point x="527" y="73" type="curve" smooth="yes"/>
      <point x="527" y="99"/>
      <point x="539" y="118"/>
      <point x="574" y="118" type="curve" smooth="yes"/>
      <point x="680" y="118" type="line" smooth="yes"/>
      <point x="752" y="118"/>
      <point x="789" y="90"/>
      <point x="789" y="19" type="curve" smooth="yes"/>
      <point x="789" y="-26"/>
      <point x="767" y="-80"/>
      <point x="687" y="-81" type="curve"/>
      <point x="631" y="-81" type="line"/>
      <point x="490" y="-83"/>
      <point x="481" y="-191"/>
      <point x="481" y="-237" type="curve"/>
    </contour>
    <contour>
      <point x="811" y="244" type="line"/>
      <point x="811" y="341" type="line"/>
      <point x="486" y="341" type="line"/>
      <point x="486" y="244" type="line"/>
    </contour>
    <component base="tml_Ca"/>
  </outline>
</glyph>
<glyph name="tml_Day" format="1">
  <advance width="621"/>
  <unicode hex="0BF3"/>
  <outline>
    <contour>
      <point x="408" y="2" type="move" name="tml_virama"/>
    </contour>
    <contour>
      <point x="25" y="245" type="curve" smooth="yes"/>
      <point x="25" y="448"/>
      <point x="118" y="570"/>
      <point x="274" y="570" type="curve" smooth="yes"/>
      <point x="411.41" y="570"/>
      <point x="508.469" y="451.686"/>
      <point x="507" y="279" type="curve" smooth="yes"/>
      <point x="506.007" y="162.216"/>
      <point x="477.916" y="101.29"/>
      <point x="459" y="59" type="curve"/>
      <point x="374" y="84" type="line"/>
      <point x="391.419" y="123.341"/>
      <point x="404" y="173.5"/>
      <point x="404" y="263" type="curve" smooth="yes"/>
      <point x="404" y="389"/>
      <point x="352.215" y="473"/>
      <point x="272" y="473" type="curve" smooth="yes"/>
      <point x="173.361" y="473"/>
      <point x="127" y="376"/>
      <point x="127" y="255" type="curve" smooth="yes"/>
      <point x="127" y="158"/>
      <point x="144" y="74"/>
      <point x="192" y="74" type="curve" smooth="yes"/>
      <point x="238" y="74"/>
      <point x="247" y="139"/>
      <point x="247" y="178" type="curve" smooth="yes"/>
      <point x="247" y="245.559"/>
      <point x="219" y="281"/>
      <point x="193" y="281" type="curve" smooth="yes"/>
      <point x="150.143" y="281"/>
      <point x="130.143" y="235.032"/>
      <point x="133" y="167" type="curve"/>
      <point x="77" y="196" type="line"/>
      <point x="77" y="269.238"/>
      <point x="119.686" y="362"/>
      <point x="204" y="362" type="curve" smooth="yes"/>
      <point x="276.722" y="362"/>
      <point x="343" y="296.688"/>
      <point x="343" y="174" type="curve" smooth="yes"/>
      <point x="343" y="53"/>
      <point x="286.255" y="-24"/>
      <point x="192" y="-24" type="curve" smooth="yes"/>
      <point x="87" y="-24"/>
      <point x="25" y="90"/>
    </contour>
    <contour>
      <point x="374" y="84" type="line"/>
      <point x="474" y="99" type="line"/>
      <point x="597" y="99" type="line"/>
      <point x="597" y="1" type="line"/>
      <point x="375" y="1" type="line"/>
    </contour>
  </outline>
</glyph>
<glyph name="tml_Month" format="1">
  <advance width="1021"/>
  <unicode hex="0BF4"/>
  <outline>
    <contour>
      <point x="346" y="686"/>
      <point x="436" y="800"/>
      <point x="590" y="800" type="curve" smooth="yes"/>
      <point x="717" y="800"/>
      <point x="783" y="724"/>
      <point x="783" y="640" type="curve" smooth="yes"/>
      <point x="783" y="567"/>
      <point x="730" y="532"/>
      <point x="672" y="532" type="curve" smooth="yes"/>
      <point x="613" y="532"/>
      <point x="561" y="567"/>
      <point x="561" y="640" type="curve" smooth="yes"/>
      <point x="561" y="730"/>
      <point x="639" y="800"/>
      <point x="753" y="800" type="curve" smooth="yes"/>
      <point x="853" y="800"/>
      <point x="944" y="740"/>
      <point x="925" y="644" type="curve"/>
      <point x="1051" y="644" type="line"/>
      <point x="1051" y="557" type="line"/>
      <point x="833" y="557" type="line"/>
      <point x="833" y="616" type="line"/>
      <point x="865" y="645"/>
      <point x="840" y="719"/>
      <point x="767" y="719" type="curve" smooth="yes"/>
      <point x="696" y="719"/>
      <point x="639" y="699"/>
      <point x="639" y="642" type="curve" smooth="yes"/>
      <point x="639" y="616"/>
      <point x="654" y="605"/>
      <point x="672" y="605" type="curve" smooth="yes"/>
      <point x="689" y="605"/>
      <point x="705" y="615"/>
      <point x="705" y="642" type="curve" smooth="yes"/>
      <point x="705" y="699"/>
      <point x="633" y="721"/>
      <point x="586" y="721" type="curve" smooth="yes"/>
      <point x="523" y="721"/>
      <point x="440" y="681"/>
      <point x="480" y="550" type="curve"/>
      <point x="398" y="532" type="line"/>
    </contour>
    <component base="tml_Ma" xOffset="30"/>
  </outline>
</glyph>
<glyph name="tml_Year" format="1">
  <advance width="1791"/>
  <unicode hex="0BF5"/>
  <outline>
    <contour>
      <point x="317" y="-24"/>
      <point x="255" y="90"/>
      <point x="255" y="245" type="curve" smooth="yes"/>
      <point x="255" y="448"/>
      <point x="348" y="573"/>
      <point x="504" y="573" type="curve" smooth="yes"/>
      <point x="641" y="573"/>
      <point x="739" y="455"/>
      <point x="737" y="280" type="curve" smooth="yes"/>
      <point x="736" y="185"/>
      <point x="714" y="101"/>
      <point x="695" y="59" type="curve"/>
      <point x="604" y="84" type="line"/>
      <point x="621" y="123"/>
      <point x="634" y="174"/>
      <point x="634" y="263" type="curve" smooth="yes"/>
      <point x="634" y="389"/>
      <point x="582" y="476"/>
      <point x="502" y="476" type="curve" smooth="yes"/>
      <point x="403" y="476"/>
      <point x="357" y="376"/>
      <point x="357" y="255" type="curve" smooth="yes"/>
      <point x="357" y="158"/>
      <point x="374" y="74"/>
      <point x="422" y="74" type="curve" smooth="yes"/>
      <point x="468" y="74"/>
      <point x="477" y="139"/>
      <point x="477" y="178" type="curve" smooth="yes"/>
      <point x="477" y="246"/>
      <point x="449" y="281"/>
      <point x="423" y="281" type="curve" smooth="yes"/>
      <point x="380" y="281"/>
      <point x="360" y="235"/>
      <point x="363" y="167" type="curve"/>
      <point x="307" y="196" type="line"/>
      <point x="307" y="269"/>
      <point x="350" y="362"/>
      <point x="434" y="362" type="curve" smooth="yes"/>
      <point x="507" y="362"/>
      <point x="573" y="297"/>
      <point x="573" y="174" type="curve" smooth="yes"/>
      <point x="573" y="53"/>
      <point x="516" y="-24"/>
      <point x="422" y="-24" type="curve" smooth="yes"/>
    </contour>
    <contour>
      <point x="604" y="84" type="line"/>
      <point x="709" y="101" type="line"/>
      <point x="818" y="101" type="line"/>
      <point x="818" y="559" type="line"/>
      <point x="925" y="559" type="line"/>
      <point x="925" y="1" type="line"/>
      <point x="604" y="1" type="line"/>
    </contour>
    <contour>
      <point x="1077" y="0" type="line"/>
      <point x="1077" y="462" type="line"/>
      <point x="819" y="462" type="line"/>
      <point x="819" y="560" type="line"/>
      <point x="1288" y="560" type="line"/>
      <point x="1288" y="462" type="line"/>
      <point x="1185" y="462" type="line"/>
      <point x="1185" y="0" type="line"/>
    </contour>
    <contour>
      <point x="798" y="-350" type="curve" smooth="yes"/>
      <point x="218" y="-350"/>
      <point x="42" y="-65"/>
      <point x="42" y="229" type="curve" smooth="yes"/>
      <point x="42" y="633"/>
      <point x="345" y="850"/>
      <point x="800" y="850" type="curve" smooth="yes"/>
      <point x="1256" y="850"/>
      <point x="1512" y="680"/>
      <point x="1544" y="411" type="curve" smooth="yes"/>
      <point x="1549" y="369"/>
      <point x="1572" y="357"/>
      <point x="1597" y="357" type="curve" smooth="yes"/>
      <point x="1617" y="357"/>
      <point x="1642" y="366"/>
      <point x="1642" y="417" type="curve" smooth="yes"/>
      <point x="1642" y="560" type="line"/>
      <point x="1749" y="560" type="line"/>
      <point x="1749" y="400" type="line" smooth="yes"/>
      <point x="1749" y="304"/>
      <point x="1686" y="250"/>
      <point x="1598" y="250" type="curve" smooth="yes"/>
      <point x="1516" y="250"/>
      <point x="1446" y="307"/>
      <point x="1437" y="399" type="curve" smooth="yes"/>
      <point x="1416" y="609"/>
      <point x="1138" y="743"/>
      <point x="800" y="743" type="curve" smooth="yes"/>
      <point x="438" y="743"/>
      <point x="149" y="590"/>
      <point x="149" y="234" type="curve" smooth="yes"/>
      <point x="149" y="10"/>
      <point x="284" y="-243"/>
      <point x="809" y="-243" type="curve" smooth="yes"/>
      <point x="1181" y="-243"/>
      <point x="1304" y="-34"/>
      <point x="1304" y="134" type="curve" smooth="yes"/>
      <point x="1304" y="213"/>
      <point x="1277" y="267"/>
      <point x="1236" y="267" type="curve" smooth="yes"/>
      <point x="1194" y="267"/>
      <point x="1185" y="229"/>
      <point x="1185" y="204" type="curve"/>
      <point x="1136" y="235" type="line" smooth="yes"/>
      <point x="1136" y="308"/>
      <point x="1184" y="358"/>
      <point x="1248" y="358" type="curve" smooth="yes"/>
      <point x="1342" y="358"/>
      <point x="1406" y="280"/>
      <point x="1406" y="131" type="curve" smooth="yes"/>
      <point x="1406" y="-96"/>
      <point x="1259" y="-350"/>
    </contour>
  </outline>
</glyph>
<glyph name="tml_Debit" format="1">
  <advance width="510"/>
  <unicode hex="0BF6"/>
  <outline>
    <contour>
      <point x="480" y="-228"/>
      <point x="374" y="-349"/>
      <point x="221" y="-349" type="curve" smooth="yes"/>
      <point x="74" y="-349"/>
      <point x="-19" y="-262"/>
      <point x="-19" y="-180" type="curve" smooth="yes"/>
      <point x="-19" y="-125"/>
      <point x="22" y="-64"/>
      <point x="120" y="-64" type="curve" smooth="yes"/>
      <point x="569" y="-62" type="line"/>
      <point x="569" y="560" type="line"/>
      <point x="676" y="560" type="line"/>
      <point x="676" y="-159" type="line"/>
      <point x="134" y="-158" type="line" smooth="yes"/>
      <point x="103" y="-158"/>
      <point x="88" y="-165"/>
      <point x="88" y="-190" type="curve" smooth="yes"/>
      <point x="88" y="-222"/>
      <point x="151" y="-252"/>
      <point x="221" y="-252" type="curve" smooth="yes"/>
      <point x="313" y="-252"/>
      <point x="375" y="-187"/>
      <point x="373" y="4" type="curve"/>
      <point x="480" y="4" type="line"/>
    </contour>
    <component base="tml_Pa"/>
  </outline>
</glyph>
<glyph name="tml_Above" format="1">
  <advance width="1277"/>
  <unicode hex="0BF8"/>
  <outline>
    <contour>
      <point x="31" y="596"/>
      <point x="193" y="756"/>
      <point x="378" y="756" type="curve" smooth="yes"/>
      <point x="561" y="756"/>
      <point x="681" y="586"/>
      <point x="681" y="339" type="curve" smooth="yes"/>
      <point x="681" y="140"/>
      <point x="624" y="-27"/>
      <point x="506" y="-27" type="curve" smooth="yes"/>
      <point x="425" y="-27"/>
      <point x="374" y="20"/>
      <point x="374" y="110" type="curve" smooth="yes"/>
      <point x="374" y="260"/>
      <point x="465" y="404"/>
      <point x="616" y="404" type="curve" smooth="yes"/>
      <point x="719" y="404"/>
      <point x="820" y="328"/>
      <point x="820" y="190" type="curve" smooth="yes"/>
      <point x="820" y="157"/>
      <point x="811" y="125"/>
      <point x="797" y="97" type="curve"/>
      <point x="1069" y="97" type="line" smooth="yes"/>
      <point x="1073" y="97"/>
      <point x="1080" y="100"/>
      <point x="1080" y="107" type="curve" smooth="yes"/>
      <point x="1080" y="114"/>
      <point x="1075" y="118"/>
      <point x="1070" y="121" type="curve" smooth="yes"/>
      <point x="902" y="228" type="line" smooth="yes"/>
      <point x="862" y="253"/>
      <point x="838" y="288"/>
      <point x="839" y="335" type="curve" smooth="yes"/>
      <point x="840" y="425"/>
      <point x="910" y="461"/>
      <point x="964" y="461" type="curve" smooth="yes"/>
      <point x="1063" y="461"/>
      <point x="1097" y="376"/>
      <point x="1079" y="296" type="curve" smooth="yes"/>
      <point x="981" y="-148" type="line"/>
      <point x="879" y="-148" type="line"/>
      <point x="979" y="300" type="line" smooth="yes"/>
      <point x="981" y="309"/>
      <point x="993" y="363"/>
      <point x="962" y="363" type="curve" smooth="yes"/>
      <point x="944" y="363"/>
      <point x="937" y="351"/>
      <point x="937" y="340" type="curve" smooth="yes"/>
      <point x="937" y="325"/>
      <point x="944" y="319"/>
      <point x="963" y="306" type="curve"/>
      <point x="1125" y="198" type="line"/>
      <point x="1177" y="167"/>
      <point x="1180" y="131"/>
      <point x="1180" y="103" type="curve" smooth="yes"/>
      <point x="1180" y="33"/>
      <point x="1127" y="0"/>
      <point x="1069" y="0" type="curve" smooth="yes"/>
      <point x="677" y="0" type="line"/>
      <point x="677" y="78" type="line"/>
      <point x="701" y="99"/>
      <point x="726" y="138"/>
      <point x="726" y="186" type="curve" smooth="yes"/>
      <point x="726" y="259"/>
      <point x="676" y="306"/>
      <point x="606" y="306" type="curve" smooth="yes"/>
      <point x="512" y="306"/>
      <point x="470" y="181"/>
      <point x="470" y="116" type="curve" smooth="yes"/>
      <point x="470" y="93"/>
      <point x="476" y="71"/>
      <point x="500" y="71" type="curve" smooth="yes"/>
      <point x="554" y="71"/>
      <point x="578" y="228"/>
      <point x="578" y="330" type="curve" smooth="yes"/>
      <point x="578" y="482"/>
      <point x="525" y="648"/>
      <point x="368" y="648" type="curve" smooth="yes"/>
      <point x="176" y="648"/>
      <point x="107" y="384"/>
      <point x="133" y="185" type="curve" smooth="yes"/>
      <point x="141" y="120"/>
      <point x="160" y="69"/>
      <point x="201" y="69" type="curve" smooth="yes"/>
      <point x="243" y="69"/>
      <point x="252" y="125"/>
      <point x="252" y="183" type="curve" smooth="yes"/>
      <point x="252" y="251"/>
      <point x="225" y="302"/>
      <point x="189" y="302" type="curve" smooth="yes"/>
      <point x="151" y="302"/>
      <point x="133" y="265"/>
      <point x="133" y="186" type="curve"/>
      <point x="74" y="232" type="line"/>
      <point x="74" y="294"/>
      <point x="110" y="402"/>
      <point x="206" y="402" type="curve" smooth="yes"/>
      <point x="301" y="402"/>
      <point x="350" y="305"/>
      <point x="350" y="175" type="curve" smooth="yes"/>
      <point x="350" y="50"/>
      <point x="293" y="-29"/>
      <point x="198" y="-29" type="curve" smooth="yes"/>
      <point x="72" y="-29"/>
      <point x="31" y="144"/>
      <point x="31" y="314" type="curve" smooth="yes"/>
    </contour>
  </outline>
</glyph>
<glyph name="tml_Rupee" format="1">
  <advance width="932"/>
  <unicode hex="0BF9"/>
  <outline>
    <contour>
      <point x="722" y="-267"/>
      <point x="882" y="-104"/>
      <point x="882" y="118" type="curve"/>
      <point x="882" y="118" type="line"/>
      <point x="882" y="252"/>
      <point x="834" y="358"/>
      <point x="725" y="358" type="curve" smooth="yes"/>
      <point x="625" y="358"/>
      <point x="594" y="268"/>
      <point x="590" y="220" type="curve"/>
      <point x="659" y="179" type="line"/>
      <point x="659" y="218"/>
      <point x="665" y="266"/>
      <point x="708" y="266" type="curve" smooth="yes"/>
      <point x="760" y="266"/>
      <point x="779" y="197"/>
      <point x="779" y="129" type="curve" smooth="yes"/>
      <point x="779" y="-56"/>
      <point x="657" y="-160"/>
      <point x="498" y="-160" type="curve" smooth="yes"/>
      <point x="251" y="-160"/>
      <point x="160" y="74"/>
      <point x="160" y="341" type="curve" smooth="yes"/>
      <point x="160" y="601"/>
      <point x="267" y="843"/>
      <point x="523" y="848" type="curve"/>
      <point x="591" y="850"/>
      <point x="652" y="844"/>
      <point x="689" y="815" type="curve" smooth="yes"/>
      <point x="713" y="796"/>
      <point x="754" y="771"/>
      <point x="754" y="729" type="curve" smooth="yes"/>
      <point x="754" y="701"/>
      <point x="736" y="680"/>
      <point x="710" y="680" type="curve" smooth="yes"/>
      <point x="685" y="680"/>
      <point x="667" y="700"/>
      <point x="667" y="727" type="curve" smooth="yes"/>
      <point x="667" y="754"/>
      <point x="685" y="772"/>
      <point x="710" y="772" type="curve" smooth="yes"/>
      <point x="735" y="772"/>
      <point x="753" y="754"/>
      <point x="754" y="729" type="curve"/>
      <point x="808" y="731" type="line"/>
      <point x="808" y="796"/>
      <point x="764" y="843"/>
      <point x="699" y="843" type="curve" smooth="yes"/>
      <point x="632" y="843"/>
      <point x="583" y="793"/>
      <point x="583" y="724" type="curve" smooth="yes"/>
      <point x="583" y="653"/>
      <point x="634" y="601"/>
      <point x="709" y="601" type="curve" smooth="yes"/>
      <point x="785" y="601"/>
      <point x="841" y="654"/>
      <point x="841" y="734" type="curve" smooth="yes"/>
      <point x="841" y="862"/>
      <point x="723" y="954"/>
      <point x="523" y="954" type="curve" smooth="yes"/>
      <point x="272" y="954"/>
      <point x="50" y="746"/>
      <point x="50" y="340" type="curve" smooth="yes"/>
      <point x="50" y="4"/>
      <point x="186" y="-267"/>
      <point x="490" y="-267" type="curve" smooth="yes"/>
    </contour>
    <contour>
      <point x="420" y="1" type="line"/>
      <point x="420" y="462" type="line"/>
      <point x="551" y="462" type="line"/>
      <point x="551" y="1" type="line"/>
      <point x="659" y="1" type="line"/>
      <point x="659" y="462" type="line"/>
      <point x="762" y="462" type="line"/>
      <point x="762" y="560" type="line"/>
      <point x="313" y="560" type="line"/>
      <point x="313" y="1" type="line"/>
    </contour>
  </outline>
</glyph>
<glyph name="tml_Number" format="1">
  <advance width="1087"/>
  <unicode hex="0BFA"/>
  <outline>
    <contour>
      <point x="357" y="537" type="line"/>
      <point x="321" y="627"/>
      <point x="366" y="755"/>
      <point x="510" y="755" type="curve" smooth="yes"/>
      <point x="677" y="755"/>
      <point x="860" y="620"/>
      <point x="860" y="375" type="curve" smooth="yes"/>
      <point x="860" y="288"/>
      <point x="835" y="204"/>
      <point x="736" y="204" type="curve" smooth="yes"/>
      <point x="654" y="204"/>
      <point x="607" y="274"/>
      <point x="607" y="376" type="curve" smooth="yes"/>
      <point x="607" y="482"/>
      <point x="692" y="574"/>
      <point x="798" y="574" type="curve" smooth="yes"/>
      <point x="912" y="574"/>
      <point x="1027" y="503"/>
      <point x="1029" y="325" type="curve" smooth="yes"/>
      <point x="1030" y="218"/>
      <point x="982" y="140"/>
      <point x="940" y="98" type="curve"/>
      <point x="1067" y="98" type="line"/>
      <point x="1067" y="0" type="line"/>
      <point x="802" y="0" type="line"/>
      <point x="801" y="83" type="line"/>
      <point x="860" y="130"/>
      <point x="928" y="204"/>
      <point x="928" y="315" type="curve" smooth="yes"/>
      <point x="928" y="443"/>
      <point x="865" y="471"/>
      <point x="798" y="471" type="curve" smooth="yes"/>
      <point x="728" y="471"/>
      <point x="699" y="419"/>
      <point x="699" y="363" type="curve" smooth="yes"/>
      <point x="699" y="314"/>
      <point x="715" y="295"/>
      <point x="736" y="295" type="curve" smooth="yes"/>
      <point x="756" y="295"/>
      <point x="771" y="311"/>
      <point x="771" y="355" type="curve" smooth="yes"/>
      <point x="771" y="540"/>
      <point x="663" y="659"/>
      <point x="516" y="657" type="curve" smooth="yes"/>
      <point x="459" y="656"/>
      <point x="406" y="621"/>
      <point x="440" y="537" type="curve"/>
    </contour>
    <contour>
      <point x="60" y="0" type="line"/>
      <point x="60" y="560" type="line"/>
      <point x="470" y="560" type="line"/>
      <point x="470" y="462" type="line"/>
      <point x="368" y="462" type="line"/>
      <point x="368" y="0" type="line"/>
      <point x="260" y="0" type="line"/>
      <point x="260" y="462" type="line"/>
      <point x="167" y="462" type="line"/>
      <point x="167" y="0" type="line"/>
    </contour>
    <contour>
      <point x="417" y="76" type="line"/>
      <point x="453" y="76"/>
      <point x="479" y="141"/>
      <point x="479" y="213" type="curve" smooth="yes"/>
      <point x="479" y="276"/>
      <point x="454" y="317"/>
      <point x="417" y="317" type="curve" smooth="yes"/>
      <point x="378" y="317"/>
      <point x="368" y="279"/>
      <point x="368" y="254" type="curve"/>
      <point x="319" y="285" type="line"/>
      <point x="319" y="358"/>
      <point x="370" y="408"/>
      <point x="443" y="408" type="curve" smooth="yes"/>
      <point x="521" y="408"/>
      <point x="576" y="327"/>
      <point x="576" y="232" type="curve" smooth="yes"/>
      <point x="576" y="121"/>
      <point x="531" y="0"/>
      <point x="417" y="0" type="curve"/>
    </contour>
  </outline>
</glyph>
<glyph name="dottedcircle" format="1">
  <advance width="761"/>
  <unicode hex="25CC"/>
  <outline>
    <contour>
      <point x="59" y="257" type="curve" smooth="yes"/>
      <point x="59" y="273.234"/>
      <point x="65.6262" y="287.982"/>
      <point x="76.3223" y="298.678" type="curve" smooth="yes"/>
      <point x="87.4313" y="309.787"/>
      <point x="102.413" y="315"/>
      <point x="117" y="315" type="curve" smooth="yes"/>
      <point x="131.587" y="315"/>
      <point x="146.569" y="309.787"/>
      <point x="157.678" y="298.678" type="curve" smooth="yes"/>
      <point x="169.576" y="286.779"/>
      <point x="174" y="271.232"/>
      <point x="174" y="257" type="curve" smooth="yes"/>
      <point x="174" y="242.413"/>
      <point x="168.787" y="227.431"/>
      <point x="157.678" y="216.322" type="curve" smooth="yes"/>
      <point x="146.569" y="205.213"/>
      <point x="131.587" y="200"/>
      <point x="117" y="200" type="curve" smooth="yes"/>
      <point x="102.413" y="200"/>
      <point x="87.4313" y="205.213"/>
      <point x="76.3223" y="216.322" type="curve" smooth="yes"/>
      <point x="66.4798" y="226.165"/>
      <point x="59" y="240.361"/>
    </contour>
    <contour>
      <point x="128" y="73" type="curve" smooth="yes"/>
      <point x="128" y="86.9022"/>
      <point x="131.706" y="103.061"/>
      <point x="144.322" y="115.678" type="curve" smooth="yes"/>
      <point x="154.165" y="125.52"/>
      <point x="168.361" y="133"/>
      <point x="185" y="133" type="curve" smooth="yes"/>
      <point x="201.234" y="133"/>
      <point x="215.982" y="126.374"/>
      <point x="226.678" y="115.678" type="curve" smooth="yes"/>
      <point x="239.294" y="103.061"/>
      <point x="243" y="86.9022"/>
      <point x="243" y="73" type="curve" smooth="yes"/>
      <point x="243" y="58.4126"/>
      <point x="237.787" y="43.4313"/>
      <point x="226.678" y="32.3223" type="curve" smooth="yes"/>
      <point x="214.779" y="20.424"/>
      <point x="199.232" y="16"/>
      <point x="185" y="16" type="curve" smooth="yes"/>
      <point x="170.413" y="16"/>
      <point x="155.431" y="21.2134"/>
      <point x="144.322" y="32.3223" type="curve" smooth="yes"/>
      <point x="133.213" y="43.4313"/>
      <point x="128" y="58.4126"/>
    </contour>
    <contour>
      <point x="128" y="442" type="curve" smooth="yes"/>
      <point x="128" y="456.587"/>
      <point x="133.213" y="471.569"/>
      <point x="144.322" y="482.678" type="curve" smooth="yes"/>
      <point x="155.018" y="493.374"/>
      <point x="169.766" y="500"/>
      <point x="186" y="500" type="curve" smooth="yes"/>
      <point x="200.587" y="500"/>
      <point x="215.569" y="494.787"/>
      <point x="226.678" y="483.678" type="curve" smooth="yes"/>
      <point x="236.665" y="473.69"/>
      <point x="244" y="459.01"/>
      <point x="244" y="442" type="curve" smooth="yes"/>
      <point x="244" y="424.99"/>
      <point x="236.665" y="410.31"/>
      <point x="226.678" y="400.322" type="curve" smooth="yes"/>
      <point x="215.569" y="389.213"/>
      <point x="200.587" y="384"/>
      <point x="186" y="384" type="curve" smooth="yes"/>
      <point x="171.768" y="384"/>
      <point x="156.221" y="388.424"/>
      <point x="144.322" y="400.322" type="curve" smooth="yes"/>
      <point x="132.424" y="412.221"/>
      <point x="128" y="427.768"/>
    </contour>
    <contour>
      <point x="313" y="1" type="curve" smooth="yes"/>
      <point x="313" y="18.0098"/>
      <point x="320.335" y="32.6905"/>
      <point x="330.322" y="42.6777" type="curve" smooth="yes"/>
      <point x="341.431" y="53.7866"/>
      <point x="356.413" y="59"/>
      <point x="371" y="59" type="curve" smooth="yes"/>
      <point x="385.232" y="59"/>
      <point x="400.779" y="54.576"/>
      <point x="412.678" y="42.6777" type="curve" smooth="yes"/>
      <point x="425.163" y="30.1922"/>
      <point x="428" y="13.9442"/>
      <point x="428" y="1" type="curve" smooth="yes"/>
      <point x="428" y="-11.3803"/>
      <point x="425.042" y="-27.3135"/>
      <point x="412.678" y="-39.6777" type="curve" smooth="yes"/>
      <point x="400.779" y="-51.576"/>
      <point x="385.232" y="-56"/>
      <point x="371" y="-56" type="curve" smooth="yes"/>
      <point x="356.413" y="-56"/>
      <point x="341.431" y="-50.7866"/>
      <point x="330.322" y="-39.6777" type="curve" smooth="yes"/>
      <point x="320.48" y="-29.8352"/>
      <point x="313" y="-15.6395"/>
    </contour>
    <contour>
      <point x="313" y="515" type="curve" smooth="yes"/>
      <point x="313" y="531.234"/>
      <point x="319.626" y="545.982"/>
      <point x="330.322" y="556.678" type="curve" smooth="yes"/>
      <point x="340.165" y="566.52"/>
      <point x="354.361" y="574"/>
      <point x="371" y="574" type="curve" smooth="yes"/>
      <point x="387.234" y="574"/>
      <point x="401.982" y="567.374"/>
      <point x="412.678" y="556.678" type="curve" smooth="yes"/>
      <point x="425.763" y="543.592"/>
      <point x="428" y="527.09"/>
      <point x="428" y="515" type="curve" smooth="yes"/>
      <point x="428" y="502.62"/>
      <point x="425.042" y="486.687"/>
      <point x="412.678" y="474.322" type="curve" smooth="yes"/>
      <point x="399.592" y="461.237"/>
      <point x="383.09" y="459"/>
      <point x="371" y="459" type="curve" smooth="yes"/>
      <point x="358.62" y="459"/>
      <point x="342.687" y="461.958"/>
      <point x="330.322" y="474.322" type="curve" smooth="yes"/>
      <point x="320.48" y="484.165"/>
      <point x="313" y="498.361"/>
    </contour>
    <contour>
      <point x="500" y="442" type="curve" smooth="yes"/>
      <point x="500" y="457.048"/>
      <point x="505.081" y="472.436"/>
      <point x="516.322" y="483.678" type="curve" smooth="yes"/>
      <point x="527.431" y="494.787"/>
      <point x="542.413" y="500"/>
      <point x="557" y="500" type="curve" smooth="yes"/>
      <point x="573.647" y="500"/>
      <point x="588.857" y="493.499"/>
      <point x="599.678" y="482.678" type="curve" smooth="yes"/>
      <point x="610.787" y="471.569"/>
      <point x="616" y="456.587"/>
      <point x="616" y="442" type="curve" smooth="yes"/>
      <point x="616" y="427.768"/>
      <point x="611.576" y="412.221"/>
      <point x="599.678" y="400.322" type="curve" smooth="yes"/>
      <point x="587.665" y="388.31"/>
      <point x="571.732" y="384"/>
      <point x="557" y="384" type="curve" smooth="yes"/>
      <point x="542.413" y="384"/>
      <point x="527.431" y="389.213"/>
      <point x="516.322" y="400.322" type="curve" smooth="yes"/>
      <point x="505.081" y="411.564"/>
      <point x="500" y="426.952"/>
    </contour>
    <contour>
      <point x="502" y="73" type="curve" smooth="yes"/>
      <point x="502" y="84.8238"/>
      <point x="503.581" y="101.937"/>
      <point x="517.322" y="115.678" type="curve" smooth="yes"/>
      <point x="528.018" y="126.374"/>
      <point x="542.766" y="133"/>
      <point x="559" y="133" type="curve" smooth="yes"/>
      <point x="575.639" y="133"/>
      <point x="589.835" y="125.52"/>
      <point x="599.678" y="115.678" type="curve" smooth="yes"/>
      <point x="612.294" y="103.061"/>
      <point x="616" y="86.9022"/>
      <point x="616" y="73" type="curve" smooth="yes"/>
      <point x="616" y="58.4126"/>
      <point x="610.787" y="43.4313"/>
      <point x="599.678" y="32.3223" type="curve" smooth="yes"/>
      <point x="588.569" y="21.2134"/>
      <point x="573.587" y="16"/>
      <point x="559" y="16" type="curve" smooth="yes"/>
      <point x="544.768" y="16"/>
      <point x="529.221" y="20.424"/>
      <point x="517.322" y="32.3223" type="curve" smooth="yes"/>
      <point x="504.958" y="44.6865"/>
      <point x="502" y="60.6197"/>
    </contour>
    <contour>
      <point x="570" y="257" type="curve" smooth="yes"/>
      <point x="570" y="269.09"/>
      <point x="572.237" y="285.592"/>
      <point x="585.322" y="298.678" type="curve" smooth="yes"/>
      <point x="596.431" y="309.787"/>
      <point x="611.413" y="315"/>
      <point x="626" y="315" type="curve" smooth="yes"/>
      <point x="641.048" y="315"/>
      <point x="656.436" y="309.919"/>
      <point x="667.678" y="298.678" type="curve" smooth="yes"/>
      <point x="678.374" y="287.982"/>
      <point x="685" y="273.234"/>
      <point x="685" y="257" type="curve" smooth="yes"/>
      <point x="685" y="240.361"/>
      <point x="677.52" y="226.165"/>
      <point x="667.678" y="216.322" type="curve" smooth="yes"/>
      <point x="656.436" y="205.081"/>
      <point x="641.048" y="200"/>
      <point x="626" y="200" type="curve" smooth="yes"/>
      <point x="611.413" y="200"/>
      <point x="596.431" y="205.213"/>
      <point x="585.322" y="216.322" type="curve" smooth="yes"/>
      <point x="572.958" y="228.687"/>
      <point x="570" y="244.62"/>
    </contour>
  </outline>
</glyph>
<glyph name="tml_A.001" format="1">
  <advance width="854"/>
  <outline>
    <contour>
      <point x="106" y="-31"/>
      <point x="160" y="-106"/>
      <point x="282" y="-106" type="curve" smooth="yes"/>
      <point x="434" y="-106"/>
      <point x="508" y="7"/>
      <point x="508" y="171" type="curve" smooth="yes"/>
      <point x="508" y="173"/>
      <point x="510" y="203"/>
      <point x="510" y="207" type="curve" smooth="yes"/>
      <point x="510" y="388"/>
      <point x="475" y="524"/>
      <point x="334" y="524" type="curve" smooth="yes"/>
      <point x="243" y="524"/>
      <point x="231" y="444"/>
      <point x="231" y="406" type="curve" smooth="yes"/>
      <point x="231" y="371"/>
      <point x="245" y="346"/>
      <point x="275" y="346" type="curve" smooth="yes"/>
      <point x="308" y="346"/>
      <point x="318" y="381"/>
      <point x="318" y="404" type="curve" smooth="yes"/>
      <point x="318" y="436"/>
      <point x="299" y="458"/>
      <point x="275" y="458" type="curve" smooth="yes"/>
      <point x="247" y="458"/>
      <point x="232" y="433"/>
      <point x="231" y="405" type="curve"/>
      <point x="177" y="417" type="line"/>
      <point x="177" y="456"/>
      <point x="216" y="529"/>
      <point x="285" y="529" type="curve" smooth="yes"/>
      <point x="331" y="529"/>
      <point x="402" y="501"/>
      <point x="402" y="401" type="curve" smooth="yes"/>
      <point x="402" y="323"/>
      <point x="356" y="267"/>
      <point x="278" y="267" type="curve" smooth="yes"/>
      <point x="194" y="267"/>
      <point x="144" y="333"/>
      <point x="144" y="422" type="curve" smooth="yes"/>
      <point x="144" y="540"/>
      <point x="232" y="622"/>
      <point x="352" y="621" type="curve" smooth="yes"/>
      <point x="579" y="619"/>
      <point x="619" y="399"/>
      <point x="619" y="220" type="curve" smooth="yes"/>
      <point x="619" y="215"/>
      <point x="617" y="174"/>
      <point x="617" y="161" type="curve" smooth="yes"/>
      <point x="615" y="-73"/>
      <point x="501" y="-210"/>
      <point x="276" y="-210" type="curve" smooth="yes"/>
      <point x="75" y="-210"/>
      <point x="-1" y="-100"/>
      <point x="-1" y="12" type="curve" smooth="yes"/>
      <point x="-1" y="197"/>
      <point x="147" y="229"/>
      <point x="222" y="229" type="curve" smooth="yes"/>
      <point x="715" y="229" type="line"/>
      <point x="715" y="131" type="line"/>
      <point x="219" y="131" type="line" smooth="yes"/>
      <point x="158" y="131"/>
      <point x="108" y="84"/>
      <point x="107" y="31" type="curve" smooth="yes"/>
    </contour>
    <contour>
      <point x="697" y="-115" type="line"/>
      <point x="697" y="562" type="line"/>
      <point x="804" y="562" type="line"/>
      <point x="804" y="-115" type="line"/>
    </contour>
  </outline>
</glyph>
<glyph name="tml_CU" format="1">
  <advance width="665"/>
  <outline>
    <contour>
      <point x="573" y="252" type="line"/>
      <point x="573" y="0" type="line"/>
      <point x="477" y="0" type="line"/>
      <point x="477" y="252" type="line"/>
    </contour>
    <contour>
      <point x="623" y="341" type="line"/>
      <point x="623" y="244" type="line"/>
      <point x="527" y="244" type="line"/>
      <point x="527" y="341" type="line"/>
    </contour>
    <component base="tml_Ca" xOffset="12"/>
  </outline>
</glyph>
<glyph name="tml_CUu" format="1">
  <advance width="974"/>
  <outline>
    <contour>
      <point x="825" y="-275"/>
      <point x="944" y="-116"/>
      <point x="944" y="12" type="curve" smooth="yes"/>
      <point x="944" y="108"/>
      <point x="895" y="179"/>
      <point x="826" y="179" type="curve" smooth="yes"/>
      <point x="762" y="179"/>
      <point x="714" y="129"/>
      <point x="714" y="56" type="curve" smooth="yes"/>
      <point x="763" y="25" type="line"/>
      <point x="763" y="49"/>
      <point x="763" y="88"/>
      <point x="799" y="88" type="curve" smooth="yes"/>
      <point x="824" y="88"/>
      <point x="842" y="54"/>
      <point x="842" y="15" type="curve" smooth="yes"/>
      <point x="842" y="-68"/>
      <point x="747" y="-169"/>
      <point x="519" y="-170" type="curve" smooth="yes"/>
      <point x="290" y="-171"/>
      <point x="134" y="-16"/>
      <point x="134" y="228" type="curve" smooth="yes"/>
      <point x="134" y="351"/>
      <point x="171" y="435"/>
      <point x="227" y="528" type="curve"/>
      <point x="138" y="573" type="line"/>
      <point x="80" y="478"/>
      <point x="29" y="369"/>
      <point x="30" y="228" type="curve" smooth="yes"/>
      <point x="31" y="-83"/>
      <point x="233" y="-273"/>
      <point x="518" y="-274" type="curve" smooth="yes"/>
    </contour>
    <contour>
      <point x="763" y="0" type="line" smooth="yes"/>
      <point x="763" y="252" type="line"/>
      <point x="667" y="252" type="line"/>
      <point x="667" y="0" type="line"/>
    </contour>
    <contour>
      <point x="813" y="244" type="line" smooth="yes"/>
      <point x="813" y="341" type="line"/>
      <point x="717" y="341" type="line"/>
      <point x="717" y="244" type="line"/>
    </contour>
    <component base="tml_Ca" xOffset="202"/>
  </outline>
</glyph>
<glyph name="tml_KSsU" format="1">
  <advance width="1810"/>
  <outline>
    <contour>
      <point x="1653" y="211" type="curve" smooth="yes"/>
      <point x="1554" y="211"/>
      <point x="1505" y="282"/>
      <point x="1505" y="373" type="curve" smooth="yes"/>
      <point x="1505" y="472"/>
      <point x="1564" y="522"/>
      <point x="1654" y="522" type="curve"/>
      <point x="1649" y="462" type="line"/>
      <point x="1617" y="462"/>
      <point x="1604" y="419"/>
      <point x="1604" y="383" type="curve" smooth="yes"/>
      <point x="1604" y="350"/>
      <point x="1615" y="307"/>
      <point x="1648" y="307" type="curve" smooth="yes"/>
      <point x="1680" y="307"/>
      <point x="1690" y="348"/>
      <point x="1690" y="385" type="curve" smooth="yes"/>
      <point x="1690" y="448"/>
      <point x="1661" y="462"/>
      <point x="1647" y="462" type="curve" smooth="yes"/>
      <point x="1459" y="462" type="line"/>
      <point x="1459" y="452" type="line"/>
      <point x="1352" y="452" type="line"/>
      <point x="1352" y="560" type="line"/>
      <point x="1609" y="560" type="line" smooth="yes"/>
      <point x="1690" y="560"/>
      <point x="1800" y="539"/>
      <point x="1800" y="385" type="curve" smooth="yes"/>
      <point x="1800" y="272"/>
      <point x="1745" y="211"/>
    </contour>
    <component base="tml_KSsa" xOffset="2"/>
  </outline>
</glyph>
<glyph name="tml_KSsUu" format="1">
  <advance width="1976"/>
  <outline>
    <contour>
      <point x="1907" y="196" type="curve"/>
      <point x="1825" y="230" type="line"/>
      <point x="1825" y="230"/>
      <point x="1876" y="315"/>
      <point x="1876" y="402" type="curve" smooth="yes"/>
      <point x="1876" y="491"/>
      <point x="1822" y="562"/>
      <point x="1746" y="562" type="curve" smooth="yes"/>
      <point x="1659" y="562"/>
      <point x="1605" y="470"/>
      <point x="1605" y="392" type="curve" smooth="yes"/>
      <point x="1605" y="351"/>
      <point x="1626" y="316"/>
      <point x="1662" y="316" type="curve" smooth="yes"/>
      <point x="1688" y="316"/>
      <point x="1703" y="344"/>
      <point x="1703" y="385" type="curve" smooth="yes"/>
      <point x="1703" y="433"/>
      <point x="1680" y="462"/>
      <point x="1624" y="462" type="curve" smooth="yes"/>
      <point x="1459" y="462" type="line"/>
      <point x="1459" y="452" type="line"/>
      <point x="1352" y="452" type="line"/>
      <point x="1352" y="560" type="line"/>
      <point x="1596" y="560" type="line"/>
      <point x="1637" y="550" type="line"/>
      <point x="1684" y="550"/>
      <point x="1810" y="526"/>
      <point x="1810" y="385" type="curve" smooth="yes"/>
      <point x="1810" y="276"/>
      <point x="1753" y="218"/>
      <point x="1661" y="218" type="curve" smooth="yes"/>
      <point x="1556" y="218"/>
      <point x="1505" y="293"/>
      <point x="1505" y="397" type="curve" smooth="yes"/>
      <point x="1505" y="538"/>
      <point x="1600" y="645"/>
      <point x="1743" y="645" type="curve" smooth="yes"/>
      <point x="1901" y="645"/>
      <point x="1966" y="523"/>
      <point x="1966" y="414" type="curve" smooth="yes"/>
      <point x="1966" y="296"/>
      <point x="1907" y="196"/>
    </contour>
    <component base="tml_KSsa" xOffset="2"/>
  </outline>
</glyph>
<glyph name="tml_KSsa" format="1">
  <advance width="1519"/>
  <outline>
    <contour>
      <point x="1217" y="552" type="move" name="MatraIi.alt1"/>
    </contour>
    <contour>
      <point x="1256" y="510" type="move" name="MatraI.alt8"/>
    </contour>
    <contour>
      <point x="768" y="0" type="move" name="virama"/>
    </contour>
    <contour>
      <point x="830" y="0" type="line"/>
      <point x="830" y="84" type="line"/>
      <point x="937" y="99" type="line"/>
      <point x="1352" y="99" type="line"/>
      <point x="1352" y="473" type="line"/>
      <point x="1459" y="473" type="line"/>
      <point x="1459" y="0" type="line"/>
    </contour>
    <contour>
      <point x="1274" y="-146" type="line"/>
      <point x="1167" y="-146" type="line"/>
      <point x="1167" y="428" type="line" smooth="yes"/>
      <point x="1167" y="450"/>
      <point x="1161" y="475"/>
      <point x="1136" y="475" type="curve" smooth="yes"/>
      <point x="1113" y="475"/>
      <point x="1094" y="452"/>
      <point x="1094" y="401" type="curve" smooth="yes"/>
      <point x="1094" y="360"/>
      <point x="1106" y="256"/>
      <point x="1224" y="256" type="curve" smooth="yes"/>
      <point x="1330" y="256"/>
      <point x="1351" y="308"/>
      <point x="1352" y="379" type="curve" smooth="yes"/>
      <point x="1407" y="376" type="line" smooth="yes"/>
      <point x="1407" y="271"/>
      <point x="1380" y="155"/>
      <point x="1220" y="155" type="curve" smooth="yes"/>
      <point x="1102" y="155"/>
      <point x="993" y="240"/>
      <point x="991" y="410" type="curve" smooth="yes"/>
      <point x="990" y="514"/>
      <point x="1057" y="573"/>
      <point x="1132" y="573" type="curve" smooth="yes"/>
      <point x="1255" y="573"/>
      <point x="1275" y="483"/>
      <point x="1274" y="418" type="curve" smooth="yes"/>
    </contour>
    <contour>
      <point x="553" y="-24"/>
      <point x="491" y="65"/>
      <point x="491" y="191" type="curve" smooth="yes"/>
      <point x="491" y="382"/>
      <point x="604" y="475"/>
      <point x="731" y="475" type="curve" smooth="yes"/>
      <point x="869" y="475"/>
      <point x="965" y="381"/>
      <point x="965" y="215" type="curve" smooth="yes"/>
      <point x="965" y="125"/>
      <point x="927" y="72"/>
      <point x="921" y="59" type="curve"/>
      <point x="830" y="84" type="line"/>
      <point x="848" y="110"/>
      <point x="866" y="149"/>
      <point x="866" y="215" type="curve" smooth="yes"/>
      <point x="866" y="312"/>
      <point x="823" y="378"/>
      <point x="729" y="378" type="curve" smooth="yes"/>
      <point x="649" y="378"/>
      <point x="588" y="309"/>
      <point x="588" y="189" type="curve" smooth="yes"/>
      <point x="588" y="122"/>
      <point x="607" y="74"/>
      <point x="661" y="74" type="curve" smooth="yes"/>
      <point x="704" y="74"/>
      <point x="713" y="120"/>
      <point x="713" y="140" type="curve" smooth="yes"/>
      <point x="713" y="208"/>
      <point x="675" y="244"/>
      <point x="589" y="244" type="curve" smooth="yes"/>
      <point x="495" y="244" type="line"/>
      <point x="495" y="341" type="line"/>
      <point x="600" y="341" type="line" smooth="yes"/>
      <point x="723" y="341"/>
      <point x="809" y="264"/>
      <point x="809" y="151" type="curve" smooth="yes"/>
      <point x="809" y="55"/>
      <point x="752" y="-24"/>
      <point x="658" y="-24" type="curve" smooth="yes"/>
    </contour>
    <component base="tml_Ca" xOffset="12"/>
  </outline>
</glyph>
<glyph name="tml_KU" format="1">
  <advance width="880"/>
  <outline>
    <contour>
      <point x="459" y="-274" type="curve" smooth="yes"/>
      <point x="211" y="-274"/>
      <point x="43" y="-104"/>
      <point x="42" y="121" type="curve" smooth="yes"/>
      <point x="41" y="262"/>
      <point x="92" y="372"/>
      <point x="150" y="466" type="curve"/>
      <point x="239" y="421" type="line"/>
      <point x="182" y="328"/>
      <point x="146" y="244"/>
      <point x="146" y="121" type="curve" smooth="yes"/>
      <point x="146" y="-77"/>
      <point x="304" y="-177"/>
      <point x="459" y="-177" type="curve" smooth="yes"/>
      <point x="637" y="-177"/>
      <point x="740" y="-68"/>
      <point x="740" y="87" type="curve" smooth="yes"/>
      <point x="740" y="184"/>
      <point x="691" y="241"/>
      <point x="619" y="242" type="curve" smooth="yes"/>
      <point x="423" y="244" type="line" smooth="yes"/>
      <point x="370" y="245"/>
      <point x="341" y="212"/>
      <point x="341" y="167" type="curve" smooth="yes"/>
      <point x="341" y="124"/>
      <point x="375" y="89"/>
      <point x="426" y="89" type="curve" smooth="yes"/>
      <point x="481" y="89"/>
      <point x="519" y="130"/>
      <point x="519" y="207" type="curve" smooth="yes"/>
      <point x="519" y="289" type="line"/>
      <point x="529" y="301" type="line"/>
      <point x="529" y="461" type="line"/>
      <point x="434" y="461" type="line"/>
      <point x="434" y="309" type="line"/>
      <point x="350" y="309" type="line"/>
      <point x="350" y="560" type="line"/>
      <point x="729" y="560" type="line"/>
      <point x="729" y="461" type="line"/>
      <point x="626" y="461" type="line"/>
      <point x="626" y="207" type="line" smooth="yes"/>
      <point x="626" y="103"/>
      <point x="586" y="-9"/>
      <point x="428" y="-9" type="curve" smooth="yes"/>
      <point x="293" y="-9"/>
      <point x="241" y="75"/>
      <point x="241" y="172" type="curve" smooth="yes"/>
      <point x="241" y="271"/>
      <point x="303" y="341"/>
      <point x="421" y="341" type="curve" smooth="yes"/>
      <point x="622" y="341" type="line" smooth="yes"/>
      <point x="761" y="341"/>
      <point x="838" y="226"/>
      <point x="838" y="87" type="curve" smooth="yes"/>
      <point x="838" y="-116"/>
      <point x="721" y="-274"/>
    </contour>
  </outline>
</glyph>
<glyph name="tml_KUu" format="1">
  <advance width="1090"/>
  <outline>
    <contour>
      <point x="541" y="-24"/>
      <point x="479" y="65"/>
      <point x="479" y="191" type="curve" smooth="yes"/>
      <point x="479" y="382"/>
      <point x="592" y="475"/>
      <point x="719" y="475" type="curve" smooth="yes"/>
      <point x="857" y="475"/>
      <point x="953" y="381"/>
      <point x="953" y="215" type="curve" smooth="yes"/>
      <point x="953" y="125"/>
      <point x="915" y="72"/>
      <point x="909" y="59" type="curve"/>
      <point x="818" y="84" type="line"/>
      <point x="836" y="110"/>
      <point x="854" y="149"/>
      <point x="854" y="215" type="curve" smooth="yes"/>
      <point x="854" y="312"/>
      <point x="811" y="378"/>
      <point x="717" y="378" type="curve" smooth="yes"/>
      <point x="637" y="378"/>
      <point x="576" y="309"/>
      <point x="576" y="189" type="curve" smooth="yes"/>
      <point x="576" y="122"/>
      <point x="595" y="74"/>
      <point x="649" y="74" type="curve" smooth="yes"/>
      <point x="692" y="74"/>
      <point x="701" y="120"/>
      <point x="701" y="140" type="curve" smooth="yes"/>
      <point x="701" y="208"/>
      <point x="663" y="244"/>
      <point x="577" y="244" type="curve" smooth="yes"/>
      <point x="483" y="244" type="line"/>
      <point x="483" y="341" type="line"/>
      <point x="588" y="341" type="line" smooth="yes"/>
      <point x="711" y="341"/>
      <point x="797" y="264"/>
      <point x="797" y="151" type="curve" smooth="yes"/>
      <point x="797" y="55"/>
      <point x="740" y="-24"/>
      <point x="646" y="-24" type="curve" smooth="yes"/>
    </contour>
    <contour>
      <point x="818" y="84" type="line"/>
      <point x="918" y="99" type="line"/>
      <point x="1050" y="99" type="line"/>
      <point x="1050" y="1" type="line"/>
      <point x="819" y="1" type="line"/>
    </contour>
    <component base="tml_Ca" xOffset="10"/>
  </outline>
</glyph>
<glyph name="tml_LU" format="1">
  <advance width="954"/>
  <outline>
    <contour>
      <point x="610" y="0" type="line"/>
      <point x="610" y="-173"/>
      <point x="541" y="-349"/>
      <point x="308" y="-349" type="curve" smooth="yes"/>
      <point x="150" y="-349"/>
      <point x="62" y="-275"/>
      <point x="62" y="-193" type="curve" smooth="yes"/>
      <point x="62" y="-124"/>
      <point x="113" y="-74"/>
      <point x="189" y="-74" type="curve" smooth="yes"/>
      <point x="787" y="-74" type="line"/>
      <point x="787" y="573" type="line"/>
      <point x="894" y="573" type="line"/>
      <point x="894" y="-171" type="line"/>
      <point x="204" y="-169" type="line" smooth="yes"/>
      <point x="186" y="-169"/>
      <point x="169" y="-177"/>
      <point x="169" y="-199" type="curve" smooth="yes"/>
      <point x="169" y="-215"/>
      <point x="185" y="-252"/>
      <point x="308" y="-252" type="curve" smooth="yes"/>
      <point x="426" y="-252"/>
      <point x="506" y="-190"/>
      <point x="506" y="0" type="curve"/>
    </contour>
    <component base="tml_La" xOffset="2"/>
  </outline>
</glyph>
<glyph name="tml_LUu" format="1">
  <advance width="1199"/>
  <outline>
    <contour>
      <point x="1199" y="573" type="line"/>
      <point x="1199" y="476" type="line"/>
      <point x="1099" y="476" type="line"/>
      <point x="1099" y="-13" type="line"/>
      <point x="992" y="-13" type="line"/>
      <point x="992" y="476" type="line"/>
      <point x="877" y="476" type="line"/>
      <point x="877" y="573" type="line"/>
    </contour>
    <component base="tml_LU" xOffset="-5"/>
  </outline>
</glyph>
<glyph name="tml_LlU" format="1">
  <advance width="1362"/>
  <outline>
    <contour>
      <point x="271" y="-64"/>
      <point x="526" y="-168"/>
      <point x="771" y="-168" type="curve" smooth="yes"/>
      <point x="994" y="-168"/>
      <point x="1230" y="-84"/>
      <point x="1230" y="137" type="curve" smooth="yes"/>
      <point x="1230" y="208"/>
      <point x="1206" y="267"/>
      <point x="1159" y="267" type="curve" smooth="yes"/>
      <point x="1123" y="267"/>
      <point x="1111" y="231"/>
      <point x="1111" y="204" type="curve"/>
      <point x="1062" y="235" type="line"/>
      <point x="1062" y="308"/>
      <point x="1108" y="358"/>
      <point x="1178" y="358" type="curve" smooth="yes"/>
      <point x="1268" y="358"/>
      <point x="1332" y="274"/>
      <point x="1332" y="138" type="curve" smooth="yes"/>
      <point x="1332" y="-147"/>
      <point x="1112" y="-271"/>
      <point x="775" y="-271" type="curve" smooth="yes"/>
      <point x="475" y="-271"/>
      <point x="167" y="-147"/>
      <point x="167" y="242" type="curve" smooth="yes"/>
      <point x="167" y="388"/>
      <point x="215" y="510"/>
      <point x="263" y="572" type="curve"/>
      <point x="352" y="527" type="line"/>
      <point x="343" y="514"/>
      <point x="271" y="417"/>
      <point x="271" y="252" type="curve" smooth="yes"/>
    </contour>
    <component base="tml_Lla" xOffset="326"/>
  </outline>
</glyph>
<glyph name="tml_LlUu" format="1">
  <advance width="1378"/>
  <outline>
    <contour>
      <point x="142" y="-48"/>
      <point x="470" y="-169"/>
      <point x="761" y="-168" type="curve" smooth="yes"/>
      <point x="999" y="-167"/>
      <point x="1234" y="-84"/>
      <point x="1234" y="134" type="curve" smooth="yes"/>
      <point x="1234" y="213"/>
      <point x="1207" y="267"/>
      <point x="1166" y="267" type="curve" smooth="yes"/>
      <point x="1124" y="267"/>
      <point x="1115" y="229"/>
      <point x="1115" y="204" type="curve"/>
      <point x="1066" y="235" type="line" smooth="yes"/>
      <point x="1066" y="308"/>
      <point x="1114" y="358"/>
      <point x="1178" y="358" type="curve" smooth="yes"/>
      <point x="1272" y="358"/>
      <point x="1336" y="280"/>
      <point x="1336" y="131" type="curve" smooth="yes"/>
      <point x="1336" y="-147"/>
      <point x="1068" y="-270"/>
      <point x="760" y="-275" type="curve" smooth="yes"/>
      <point x="421" y="-281"/>
      <point x="42" y="-120"/>
      <point x="42" y="238" type="curve" smooth="yes"/>
      <point x="42" y="381"/>
      <point x="76" y="572"/>
      <point x="231" y="572" type="curve" smooth="yes"/>
      <point x="322" y="572"/>
      <point x="359" y="491"/>
      <point x="359" y="427" type="curve" smooth="yes"/>
      <point x="359" y="361"/>
      <point x="320" y="286"/>
      <point x="237" y="286" type="curve" smooth="yes"/>
      <point x="158" y="286"/>
      <point x="127" y="353"/>
      <point x="127" y="407" type="curve" smooth="yes"/>
      <point x="127" y="460"/>
      <point x="158" y="500"/>
      <point x="203" y="510" type="curve"/>
      <point x="222" y="486" type="line"/>
      <point x="201" y="481"/>
      <point x="188" y="459"/>
      <point x="188" y="425" type="curve" smooth="yes"/>
      <point x="188" y="389"/>
      <point x="203" y="365"/>
      <point x="232" y="365" type="curve" smooth="yes"/>
      <point x="259" y="365"/>
      <point x="275" y="389"/>
      <point x="275" y="424" type="curve" smooth="yes"/>
      <point x="275" y="459"/>
      <point x="262" y="487"/>
      <point x="233" y="487" type="curve"/>
      <point x="171" y="490"/>
      <point x="142" y="348"/>
      <point x="142" y="253" type="curve" smooth="yes"/>
    </contour>
    <component base="tml_Lla" xOffset="331"/>
  </outline>
</glyph>
<glyph name="tml_LllU" format="1">
<<<<<<< HEAD
  <advance width="0"/>
=======
  <advance width="920"/>
  <outline>
    <contour>
      <point x="644" y="-278"/>
      <point x="718" y="-233"/>
      <point x="718" y="-173" type="curve" smooth="yes"/>
      <point x="718" y="-108"/>
      <point x="661" y="-112"/>
      <point x="645" y="-160" type="curve"/>
      <point x="537" y="-160" type="line"/>
      <point x="538" y="32" type="line"/>
      <point x="646" y="33" type="line"/>
      <point x="646" y="-61" type="line"/>
      <point x="676" y="-32"/>
      <point x="821" y="-28"/>
      <point x="821" y="-173" type="curve" smooth="yes"/>
      <point x="821" y="-271"/>
      <point x="714" y="-386"/>
      <point x="503" y="-386" type="curve"/>
      <point x="188" y="-385"/>
      <point x="30" y="-124"/>
      <point x="30" y="167" type="curve" smooth="yes"/>
      <point x="30" y="348"/>
      <point x="81" y="476"/>
      <point x="138" y="572" type="curve"/>
      <point x="227" y="527" type="line"/>
      <point x="189" y="454"/>
      <point x="134" y="350"/>
      <point x="134" y="167" type="curve" smooth="yes"/>
      <point x="134" y="-27"/>
      <point x="215" y="-279"/>
      <point x="504" y="-278" type="curve"/>
    </contour>
    <component base="tml_Ma" xOffset="253"/>
  </outline>
>>>>>>> remotes/origin/tamil-dev
</glyph>
<glyph name="tml_LllUu" format="1">
  <advance width="1011"/>
  <outline>
    <contour>
      <point x="582.99" y="-386" type="curve" smooth="yes"/>
      <point x="232.99" y="-386"/>
      <point x="41.9902" y="-144"/>
      <point x="41.9902" y="181" type="curve" smooth="yes"/>
      <point x="41.9902" y="334"/>
      <point x="83.9902" y="573"/>
      <point x="238.99" y="573" type="curve" smooth="yes"/>
      <point x="329.99" y="573"/>
      <point x="366.99" y="492"/>
      <point x="366.99" y="428" type="curve" smooth="yes"/>
      <point x="366.99" y="362"/>
      <point x="327.99" y="287"/>
      <point x="244.99" y="287" type="curve" smooth="yes"/>
      <point x="165.99" y="287"/>
      <point x="134.99" y="354"/>
      <point x="134.99" y="408" type="curve" smooth="yes"/>
      <point x="134.99" y="461"/>
      <point x="165.99" y="501"/>
      <point x="210.99" y="511" type="curve"/>
      <point x="229.99" y="487" type="line"/>
      <point x="208.99" y="482"/>
      <point x="195.99" y="460"/>
      <point x="195.99" y="426" type="curve" smooth="yes"/>
      <point x="195.99" y="390"/>
      <point x="210.99" y="366"/>
      <point x="239.99" y="366" type="curve" smooth="yes"/>
      <point x="266.99" y="366"/>
      <point x="282.99" y="390"/>
      <point x="282.99" y="425" type="curve" smooth="yes"/>
      <point x="282.99" y="460"/>
      <point x="269.99" y="488"/>
      <point x="240.99" y="488" type="curve" smooth="yes"/>
      <point x="165.99" y="488"/>
      <point x="141.99" y="336"/>
      <point x="141.99" y="214" type="curve" smooth="yes"/>
      <point x="141.99" y="-94"/>
      <point x="294.99" y="-278"/>
      <point x="581.99" y="-278" type="curve" smooth="yes"/>
      <point x="711.99" y="-278"/>
      <point x="816.99" y="-240"/>
      <point x="816.99" y="-167" type="curve" smooth="yes"/>
      <point x="816.99" y="-113"/>
      <point x="759.99" y="-111"/>
      <point x="743.99" y="-160" type="curve"/>
      <point x="635.99" y="-160" type="line"/>
      <point x="636.99" y="32" type="line"/>
      <point x="744.99" y="33" type="line"/>
      <point x="744.99" y="-61" type="line"/>
      <point x="774.99" y="-30"/>
      <point x="919.99" y="-36"/>
      <point x="919.99" y="-166" type="curve" smooth="yes"/>
      <point x="919.99" y="-271"/>
      <point x="823.99" y="-386"/>
    </contour>
    <component base="tml_Ma" xOffset="351.99"/>
  </outline>
</glyph>
<glyph name="tml_MU" format="1">
  <advance width="929"/>
  <outline>
    <contour>
      <point x="154" y="-267"/>
      <point x="10" y="-96"/>
      <point x="10" y="184" type="curve" smooth="yes"/>
      <point x="10" y="354"/>
      <point x="63" y="483"/>
      <point x="127" y="573" type="curve"/>
      <point x="217" y="528" type="line"/>
      <point x="156" y="435"/>
      <point x="114" y="340"/>
      <point x="114" y="189" type="curve" smooth="yes"/>
      <point x="114" y="-42"/>
      <point x="213" y="-170"/>
      <point x="352" y="-170" type="curve" smooth="yes"/>
      <point x="454" y="-170"/>
      <point x="527" y="-101"/>
      <point x="527" y="29" type="curve"/>
      <point x="635" y="29" type="line"/>
      <point x="635" y="-170"/>
      <point x="503" y="-267"/>
      <point x="353" y="-267" type="curve" smooth="yes"/>
    </contour>
    <component base="tml_Ma" xOffset="262"/>
  </outline>
</glyph>
<glyph name="tml_MUu" format="1">
  <advance width="1022"/>
  <outline>
    <contour>
      <point x="144" y="-17"/>
      <point x="258" y="-170"/>
      <point x="435" y="-170" type="curve" smooth="yes"/>
      <point x="537" y="-170"/>
      <point x="640" y="-101"/>
      <point x="640" y="29" type="curve"/>
      <point x="748" y="29" type="line"/>
      <point x="748" y="-170"/>
      <point x="586" y="-267"/>
      <point x="436" y="-267" type="curve" smooth="yes"/>
      <point x="227" y="-267"/>
      <point x="44" y="-99"/>
      <point x="44" y="181" type="curve"/>
      <point x="44" y="334"/>
      <point x="86" y="573"/>
      <point x="241" y="573" type="curve" smooth="yes"/>
      <point x="332" y="573"/>
      <point x="369" y="492"/>
      <point x="369" y="428" type="curve" smooth="yes"/>
      <point x="369" y="362"/>
      <point x="330" y="287"/>
      <point x="247" y="287" type="curve" smooth="yes"/>
      <point x="168" y="287"/>
      <point x="137" y="354"/>
      <point x="137" y="408" type="curve" smooth="yes"/>
      <point x="137" y="461"/>
      <point x="168" y="501"/>
      <point x="213" y="511" type="curve"/>
      <point x="232" y="487" type="line"/>
      <point x="211" y="482"/>
      <point x="198" y="460"/>
      <point x="198" y="426" type="curve" smooth="yes"/>
      <point x="198" y="390"/>
      <point x="213" y="366"/>
      <point x="242" y="366" type="curve" smooth="yes"/>
      <point x="269" y="366"/>
      <point x="285" y="390"/>
      <point x="285" y="425" type="curve" smooth="yes"/>
      <point x="285" y="460"/>
      <point x="272" y="488"/>
      <point x="243" y="488" type="curve"/>
      <point x="168" y="488"/>
      <point x="144" y="336"/>
      <point x="144" y="214" type="curve"/>
    </contour>
    <component base="tml_Ma" xOffset="355"/>
  </outline>
</glyph>
<glyph name="tml_MatraAi.alt" format="1">
  <advance width="-666"/>
  <outline>
    <contour>
      <point x="-744" y="244" type="move" name="_MatraAi.alt"/>
    </contour>
    <contour>
      <point x="-822" y="800"/>
      <point x="-725" y="724"/>
      <point x="-725" y="566" type="curve" smooth="yes"/>
      <point x="-725" y="418"/>
      <point x="-884" y="263"/>
      <point x="-884" y="166" type="curve" smooth="yes"/>
      <point x="-884" y="101"/>
      <point x="-852" y="76"/>
      <point x="-813" y="76" type="curve" smooth="yes"/>
      <point x="-754" y="76"/>
      <point x="-744" y="147"/>
      <point x="-744" y="245" type="curve"/>
      <point x="-666" y="201" type="line"/>
      <point x="-666" y="62"/>
      <point x="-714" y="-23"/>
      <point x="-813" y="-23" type="curve" smooth="yes"/>
      <point x="-903" y="-23"/>
      <point x="-985" y="23"/>
      <point x="-985" y="166" type="curve" smooth="yes"/>
      <point x="-985" y="329"/>
      <point x="-822" y="440"/>
      <point x="-822" y="566" type="curve" smooth="yes"/>
      <point x="-822" y="664"/>
      <point x="-872" y="708"/>
      <point x="-939" y="708" type="curve" smooth="yes"/>
      <point x="-1002" y="708"/>
      <point x="-1047" y="664"/>
      <point x="-1047" y="603" type="curve" smooth="yes"/>
      <point x="-1047" y="575"/>
      <point x="-1029" y="554"/>
      <point x="-1003" y="554" type="curve" smooth="yes"/>
      <point x="-978" y="554"/>
      <point x="-960" y="574"/>
      <point x="-960" y="602" type="curve" smooth="yes"/>
      <point x="-960" y="628"/>
      <point x="-978" y="646"/>
      <point x="-1003" y="646" type="curve" smooth="yes"/>
      <point x="-1028" y="646"/>
      <point x="-1046" y="628"/>
      <point x="-1047" y="603" type="curve"/>
      <point x="-1101" y="605" type="line"/>
      <point x="-1101" y="670"/>
      <point x="-1056" y="717"/>
      <point x="-993" y="717" type="curve" smooth="yes"/>
      <point x="-925" y="717"/>
      <point x="-876" y="667"/>
      <point x="-876" y="599" type="curve" smooth="yes"/>
      <point x="-876" y="527"/>
      <point x="-928" y="475"/>
      <point x="-1000" y="475" type="curve" smooth="yes"/>
      <point x="-1078" y="475"/>
      <point x="-1134" y="526"/>
      <point x="-1134" y="610" type="curve" smooth="yes"/>
      <point x="-1134" y="715"/>
      <point x="-1058" y="801"/>
      <point x="-936" y="800" type="curve" smooth="yes"/>
    </contour>
  </outline>
</glyph>
<glyph name="tml_MatraI.alt1" format="1">
  <advance width="515"/>
  <outline>
    <contour>
      <point x="160" y="560" type="move" name="_MatraI.alt1"/>
    </contour>
    <contour>
      <point x="130" y="492" type="line"/>
      <point x="81" y="492"/>
      <point x="30" y="541"/>
      <point x="30" y="597" type="curve" smooth="yes"/>
      <point x="30" y="711"/>
      <point x="135" y="758"/>
      <point x="221" y="758" type="curve" smooth="yes"/>
      <point x="364" y="758"/>
      <point x="482" y="676"/>
      <point x="483" y="467" type="curve" smooth="yes"/>
      <point x="485" y="1" type="line"/>
      <point x="377" y="1" type="line"/>
      <point x="376" y="471" type="line" smooth="yes"/>
      <point x="376" y="592"/>
      <point x="303" y="650"/>
      <point x="217" y="650" type="curve" smooth="yes"/>
      <point x="157" y="650"/>
      <point x="124" y="626"/>
      <point x="124" y="597" type="curve" smooth="yes"/>
      <point x="124" y="573"/>
      <point x="143" y="560"/>
      <point x="160" y="560" type="curve"/>
    </contour>
  </outline>
</glyph>
<glyph name="tml_MatraI.alt2" format="1">
  <advance width="219"/>
  <outline>
    <contour>
      <point x="-227.039" y="490" type="line" smooth="yes"/>
      <point x="-251.709" y="523.344"/>
      <point x="-262.706" y="554.028"/>
      <point x="-262.719" y="582" type="curve" smooth="yes"/>
      <point x="-262.751" y="695.802"/>
      <point x="-157.57" y="755.566"/>
      <point x="-74" y="756" type="curve" smooth="yes"/>
      <point x="77.0826" y="756.713"/>
      <point x="156.282" y="671.278"/>
      <point x="157" y="496" type="curve" smooth="yes"/>
      <point x="159" y="0" type="line" smooth="yes"/>
      <point x="51" y="0" type="line" smooth="yes"/>
      <point x="50" y="496" type="line" smooth="yes"/>
      <point x="49.8004" y="595.422"/>
      <point x="18" y="648"/>
      <point x="-78" y="648" type="curve" smooth="yes"/>
      <point x="-124.604" y="648"/>
      <point x="-161.304" y="612.332"/>
      <point x="-162.061" y="566" type="curve" smooth="yes"/>
      <point x="-162.714" y="542.973"/>
      <point x="-150.948" y="518.179"/>
      <point x="-121.697" y="493" type="curve" smooth="yes"/>
    </contour>
  </outline>
</glyph>
<glyph name="tml_MatraI.alt3" format="1">
  <advance width="250"/>
  <outline>
    <contour>
      <point x="-112" y="530" type="move" name="_MatraI.alt3"/>
    </contour>
    <contour>
      <point x="-112" y="442" type="line"/>
      <point x="-176" y="442"/>
      <point x="-253" y="490"/>
      <point x="-253" y="582" type="curve" smooth="yes"/>
      <point x="-253" y="691"/>
      <point x="-160" y="758"/>
      <point x="-65" y="758" type="curve" smooth="yes"/>
      <point x="78" y="758"/>
      <point x="176" y="666"/>
      <point x="177" y="497" type="curve" smooth="yes"/>
      <point x="177" y="1" type="line"/>
      <point x="70" y="1" type="line"/>
      <point x="70" y="501" type="line" smooth="yes"/>
      <point x="70" y="592"/>
      <point x="17" y="650"/>
      <point x="-69" y="650" type="curve" smooth="yes"/>
      <point x="-114" y="650"/>
      <point x="-158" y="624"/>
      <point x="-158" y="583" type="curve" smooth="yes"/>
      <point x="-158" y="542"/>
      <point x="-129" y="530"/>
      <point x="-112" y="530" type="curve"/>
    </contour>
  </outline>
</glyph>
<glyph name="tml_MatraI.alt4" format="1">
  <advance width="269"/>
  <outline>
    <contour>
      <point x="-236.039" y="560" type="line" smooth="yes"/>
      <point x="-191.014" y="712.778"/>
      <point x="-95.8076" y="755.244"/>
      <point x="-14" y="756" type="curve" smooth="yes"/>
      <point x="137.081" y="757"/>
      <point x="216.177" y="668.997"/>
      <point x="217" y="489" type="curve" smooth="yes"/>
      <point x="219" y="0" type="line" smooth="yes"/>
      <point x="111" y="0" type="line" smooth="yes"/>
      <point x="110" y="489" type="line" smooth="yes"/>
      <point x="109.742" y="593"/>
      <point x="78" y="648"/>
      <point x="-18" y="648" type="curve" smooth="yes"/>
      <point x="-74.7373" y="648"/>
      <point x="-136.433" y="617.846"/>
      <point x="-160.697" y="513" type="curve" smooth="yes"/>
    </contour>
  </outline>
</glyph>
<glyph name="tml_MatraI.alt5" format="1">
  <advance width="199"/>
  <outline>
    <contour>
      <point x="-170" y="492" type="line" smooth="yes"/>
      <point x="-244" y="498"/>
      <point x="-273" y="554"/>
      <point x="-272" y="590" type="curve" smooth="yes"/>
      <point x="-271" y="717"/>
      <point x="-150" y="758"/>
      <point x="-84" y="758" type="curve" smooth="yes"/>
      <point x="67" y="759"/>
      <point x="146" y="668"/>
      <point x="147" y="481" type="curve" smooth="yes"/>
      <point x="149" y="1" type="line"/>
      <point x="41" y="1" type="line"/>
      <point x="40" y="481" type="line" smooth="yes"/>
      <point x="40" y="592"/>
      <point x="8" y="650"/>
      <point x="-88" y="650" type="curve" smooth="yes"/>
      <point x="-148" y="650"/>
      <point x="-175" y="615"/>
      <point x="-175" y="586" type="curve" smooth="yes"/>
      <point x="-175" y="562"/>
      <point x="-151" y="560"/>
      <point x="-140" y="560" type="curve" smooth="yes"/>
    </contour>
  </outline>
</glyph>
<glyph name="tml_MatraI.alt6" format="1">
  <advance width="269"/>
  <outline>
    <contour>
      <point x="-286.039" y="496" type="line" smooth="yes"/>
      <point x="-328.075" y="530.287"/>
      <point x="-330.935" y="572.276"/>
      <point x="-331" y="600" type="curve" smooth="yes"/>
      <point x="-331.228" y="715.89"/>
      <point x="-185.864" y="757.386"/>
      <point x="-114" y="757" type="curve" smooth="yes"/>
      <point x="69.7827" y="756.014"/>
      <point x="166.13" y="666.739"/>
      <point x="167" y="480" type="curve" smooth="yes"/>
      <point x="169" y="0" type="line" smooth="yes"/>
      <point x="61" y="0" type="line" smooth="yes"/>
      <point x="60" y="480" type="line" smooth="yes"/>
      <point x="59.7246" y="590.541"/>
      <point x="15.5" y="649"/>
      <point x="-118" y="649" type="curve" smooth="yes"/>
      <point x="-179.988" y="649"/>
      <point x="-231.416" y="630.123"/>
      <point x="-231" y="600" type="curve" smooth="yes"/>
      <point x="-230.415" y="564.026"/>
      <point x="-217.059" y="557.436"/>
      <point x="-190.697" y="557" type="curve" smooth="yes"/>
    </contour>
  </outline>
</glyph>
<glyph name="tml_MatraI.alt8" format="1">
  <advance width="207"/>
  <outline>
    <contour>
      <point x="-243" y="510" type="move" name="_MatraI.alt8"/>
    </contour>
    <contour>
      <point x="-281" y="452" type="line"/>
      <point x="-330" y="452"/>
      <point x="-379" y="509"/>
      <point x="-379" y="573" type="curve" smooth="yes"/>
      <point x="-379" y="649"/>
      <point x="-310" y="757"/>
      <point x="-148" y="757" type="curve" smooth="yes"/>
      <point x="58" y="757"/>
      <point x="167" y="602"/>
      <point x="167" y="445" type="curve" smooth="yes"/>
      <point x="167" y="0" type="line"/>
      <point x="60" y="0" type="line"/>
      <point x="60" y="420" type="line" smooth="yes"/>
      <point x="60" y="561"/>
      <point x="-24" y="649"/>
      <point x="-148" y="649" type="curve" smooth="yes"/>
      <point x="-237" y="649"/>
      <point x="-269" y="605"/>
      <point x="-269" y="566" type="curve" smooth="yes"/>
      <point x="-269" y="543"/>
      <point x="-252" y="528"/>
      <point x="-243" y="510" type="curve"/>
    </contour>
  </outline>
</glyph>
<glyph name="tml_MatraI.stylalt1" format="1">
  <advance width="874"/>
  <outline>
    <contour>
      <point x="207" y="275" type="move" name="_MatraI.stylalt1"/>
    </contour>
    <contour>
      <point x="140" y="192" type="line"/>
      <point x="95" y="226"/>
      <point x="30" y="305"/>
      <point x="30" y="441" type="curve" smooth="yes"/>
      <point x="30" y="630"/>
      <point x="171" y="800"/>
      <point x="419" y="800" type="curve" smooth="yes"/>
      <point x="706" y="800"/>
      <point x="844" y="611"/>
      <point x="844" y="328" type="curve"/>
      <point x="844" y="-14" type="line"/>
      <point x="735" y="-13" type="line"/>
      <point x="735" y="337" type="line"/>
      <point x="735" y="596"/>
      <point x="596" y="692"/>
      <point x="419" y="690" type="curve" smooth="yes"/>
      <point x="255" y="688"/>
      <point x="138" y="593"/>
      <point x="138" y="441" type="curve" smooth="yes"/>
      <point x="138" y="354"/>
      <point x="159" y="314"/>
      <point x="207" y="275" type="curve"/>
    </contour>
  </outline>
</glyph>
<glyph name="tml_MatraIi.alt1" format="1">
  <advance width="533"/>
  <outline>
    <contour>
      <point x="97" y="894" type="curve" smooth="yes"/>
      <point x="-18" y="779"/>
      <point x="-1" y="528"/>
      <point x="-1" y="528" type="curve" smooth="yes"/>
      <point x="131" y="523" type="line" smooth="yes"/>
      <point x="100" y="631"/>
      <point x="98" y="756"/>
      <point x="176" y="837" type="curve" smooth="yes"/>
      <point x="189" y="851"/>
      <point x="249" y="913"/>
      <point x="325" y="837" type="curve" smooth="yes"/>
      <point x="357" y="805"/>
      <point x="406" y="747"/>
      <point x="382" y="723" type="curve" smooth="yes"/>
      <point x="358" y="699"/>
      <point x="301" y="739"/>
      <point x="264" y="776" type="curve" smooth="yes"/>
      <point x="242" y="798"/>
      <point x="234" y="840"/>
      <point x="283" y="889" type="curve"/>
      <point x="197" y="970" type="line"/>
      <point x="93" y="866"/>
      <point x="118" y="768"/>
      <point x="187" y="699" type="curve" smooth="yes"/>
      <point x="264" y="622"/>
      <point x="375" y="580"/>
      <point x="445" y="649" type="curve" smooth="yes"/>
      <point x="515" y="720"/>
      <point x="503" y="814"/>
      <point x="403" y="914" type="curve" smooth="yes"/>
      <point x="279" y="1038"/>
      <point x="192" y="989"/>
    </contour>
    <contour>
      <point x="2" y="0" type="move" name="_Anchor2"/>
    </contour>
  </outline>
</glyph>
<glyph name="tml_MatraIi.alt2" format="1">
  <advance width="0"/>
  <outline>
    <contour>
      <point x="0" y="584" type="move" name="_MatraIi.alt2"/>
    </contour>
    <contour>
      <point x="-82" y="445"/>
      <point x="-224" y="509"/>
      <point x="-224" y="666" type="curve" smooth="yes"/>
      <point x="-224" y="833"/>
      <point x="-94" y="903"/>
      <point x="19" y="902" type="curve" smooth="yes"/>
      <point x="121" y="901"/>
      <point x="169" y="830"/>
      <point x="169" y="738" type="curve" smooth="yes"/>
      <point x="169" y="616"/>
      <point x="99" y="590"/>
      <point x="45" y="590" type="curve" smooth="yes"/>
      <point x="-23" y="590"/>
      <point x="-79" y="629"/>
      <point x="-80" y="728" type="curve" smooth="yes"/>
      <point x="-80" y="797"/>
      <point x="-29" y="855"/>
      <point x="8" y="881" type="curve"/>
      <point x="44" y="806" type="line"/>
      <point x="18" y="806"/>
      <point x="2" y="768"/>
      <point x="2" y="736" type="curve" smooth="yes"/>
      <point x="2" y="684"/>
      <point x="21" y="664"/>
      <point x="46" y="664" type="curve" smooth="yes"/>
      <point x="72" y="664"/>
      <point x="85" y="693"/>
      <point x="85" y="738" type="curve" smooth="yes"/>
      <point x="85" y="764"/>
      <point x="79" y="806"/>
      <point x="43" y="806" type="curve" smooth="yes"/>
      <point x="-53" y="806"/>
      <point x="-120" y="764"/>
      <point x="-120" y="666" type="curve" smooth="yes"/>
      <point x="-120" y="589"/>
      <point x="-61" y="546"/>
      <point x="0" y="584" type="curve"/>
      <point x="-5" y="482" type="line"/>
    </contour>
  </outline>
</glyph>
<glyph name="tml_MatraIi.alt3" format="1">
  <advance width="0"/>
  <outline>
    <contour>
      <point x="0" y="542" type="move" name="_MatraIi.alt3"/>
    </contour>
    <contour>
      <point x="-81" y="470"/>
      <point x="-196" y="519"/>
      <point x="-196" y="666" type="curve" smooth="yes"/>
      <point x="-196" y="833"/>
      <point x="-76" y="903"/>
      <point x="37" y="902" type="curve" smooth="yes"/>
      <point x="139" y="901"/>
      <point x="187" y="830"/>
      <point x="187" y="738" type="curve" smooth="yes"/>
      <point x="187" y="616"/>
      <point x="117" y="590"/>
      <point x="63" y="590" type="curve" smooth="yes"/>
      <point x="-5" y="590"/>
      <point x="-61" y="629"/>
      <point x="-62" y="728" type="curve" smooth="yes"/>
      <point x="-62" y="797"/>
      <point x="-11" y="855"/>
      <point x="26" y="881" type="curve"/>
      <point x="62" y="806" type="line"/>
      <point x="36" y="806"/>
      <point x="20" y="768"/>
      <point x="20" y="736" type="curve" smooth="yes"/>
      <point x="20" y="684"/>
      <point x="39" y="664"/>
      <point x="64" y="664" type="curve" smooth="yes"/>
      <point x="90" y="664"/>
      <point x="103" y="693"/>
      <point x="103" y="738" type="curve" smooth="yes"/>
      <point x="103" y="764"/>
      <point x="97" y="806"/>
      <point x="61" y="806" type="curve" smooth="yes"/>
      <point x="-35" y="806"/>
      <point x="-92" y="763"/>
      <point x="-92" y="665" type="curve" smooth="yes"/>
      <point x="-92" y="581"/>
      <point x="-33" y="557"/>
      <point x="0" y="542" type="curve"/>
      <point x="-14" y="470" type="line"/>
    </contour>
  </outline>
</glyph>
